<?xml version='1.0' encoding='UTF-8'?>
<!DOCTYPE svg PUBLIC '-//W3C//DTD SVG 1.1//EN' 'http://www.w3.org/Graphics/SVG/1.1/DTD/svg11.dtd'>
<svg xmlns:xlink="http://www.w3.org/1999/xlink" style="shape-rendering:geometricPrecision; text-rendering:geometricPrecision; image-rendering:optimizeQuality; fill-rule:evenodd; clip-rule:evenodd" width="1024px" height="1024px" xmlns="http://www.w3.org/2000/svg" version="1.1">
 <g>
  <path style="opacity:0.004" fill="#f8f9f9" d="M 488.5,96.5 C 488.897,95.475 489.563,95.3083 490.5,96C 489.906,96.4643 489.239,96.631 488.5,96.5 Z"/>
 </g>
 <g>
  <path style="opacity:0.008" fill="#f8f8f8" d="M 496.5,96.5 C 497.251,95.4265 498.251,95.2599 499.5,96C 498.552,96.4828 497.552,96.6495 496.5,96.5 Z"/>
 </g>
 <g>
  <path style="opacity:0.004" fill="#fafbf9" d="M 528.5,95.5 C 529.833,96.1667 529.833,96.1667 528.5,95.5 Z"/>
 </g>
 <g>
  <path style="opacity:0.004" fill="#fafaf9" d="M 530.5,95.5 C 531.833,96.1667 531.833,96.1667 530.5,95.5 Z"/>
 </g>
 <g>
  <path style="opacity:0.008" fill="#f9f8f8" d="M 533.5,95.5 C 534.833,96.1667 534.833,96.1667 533.5,95.5 Z"/>
 </g>
 <g>
  <path style="opacity:0.008" fill="#f9fbf8" d="M 550.5,96.5 C 551.833,97.1667 551.833,97.1667 550.5,96.5 Z"/>
 </g>
 <g>
  <path style="opacity:0.992" fill="#fefefe" d="M 660.5,123.5 C 666.594,126.538 672.927,129.204 679.5,131.5C 685.196,134.678 691.196,137.344 697.5,139.5C 700.792,141.815 704.792,143.815 709.5,145.5C 714.502,149.003 719.835,152.003 725.5,154.5C 737.463,162.487 749.463,170.487 761.5,178.5C 764.627,181.898 768.293,184.565 772.5,186.5C 785.157,197.158 797.49,208.158 809.5,219.5C 828.685,240.344 846.352,262.344 862.5,285.5C 930.785,398.59 945.285,517.923 906,643.5C 899.59,661.65 892.09,679.317 883.5,696.5C 859.321,740.374 828.988,779.708 792.5,814.5C 782.847,822.155 773.514,830.155 764.5,838.5C 750.477,848.199 736.477,857.866 722.5,867.5C 715.903,870.775 709.57,874.442 703.5,878.5C 606.774,925.606 506.107,936.106 401.5,910C 383.316,904.661 365.316,898.827 347.5,892.5C 336.692,886.93 325.692,881.597 314.5,876.5C 305.006,870.584 295.339,864.918 285.5,859.5C 281.447,856.117 277.114,853.117 272.5,850.5C 266.2,845.016 259.533,840.016 252.5,835.5C 250.249,832.705 247.582,830.372 244.5,828.5C 229.504,815.171 215.171,801.171 201.5,786.5C 199.883,783.216 197.55,780.549 194.5,778.5C 193.219,775.553 191.219,773.219 188.5,771.5C 188.573,769.973 187.906,768.973 186.5,768.5C 180.822,761.128 175.155,753.795 169.5,746.5C 164.551,738.223 159.218,730.223 153.5,722.5C 151.582,717.657 148.916,713.323 145.5,709.5C 129.025,678.621 116.358,645.788 107.5,611C 106.944,609.989 106.278,609.156 105.5,608.5C 106.097,608.265 106.43,607.765 106.5,607C 103.191,592.646 100.691,578.146 99,563.5C 98.2828,562.956 97.7828,562.289 97.5,561.5C 98.1471,560.726 98.4805,559.726 98.5,558.5C 89.504,481.813 100.837,408.147 132.5,337.5C 144.304,313.886 157.637,291.22 172.5,269.5C 181.823,258.206 191.156,246.873 200.5,235.5C 210.806,224.527 221.473,213.86 232.5,203.5C 244.858,193.47 257.191,183.47 269.5,173.5C 277.795,168.526 285.795,163.192 293.5,157.5C 295.027,157.573 296.027,156.906 296.5,155.5C 325.032,138.901 355.032,125.568 386.5,115.5C 478.752,89.0965 570.085,91.7632 660.5,123.5 Z"/>
 </g>
 <g>
  <path style="opacity:0.004" fill="#f5f9f7" d="M 460.5,98.5 C 461.833,99.1667 461.833,99.1667 460.5,98.5 Z"/>
 </g>
 <g>
  <path style="opacity:0.008" fill="#f8f9f7" d="M 451.5,99.5 C 452.833,100.167 452.833,100.167 451.5,99.5 Z"/>
 </g>
 <g>
  <path style="opacity:0.006" fill="#f6f7f6" d="M 417.5,106.5 C 417.897,105.475 418.563,105.308 419.5,106C 418.906,106.464 418.239,106.631 417.5,106.5 Z"/>
 </g>
 <g>
  <path style="opacity:0.004" fill="#f2f6f5" d="M 628.5,111.5 C 629.833,112.167 629.833,112.167 628.5,111.5 Z"/>
 </g>
 <g>
  <path style="opacity:0.004" fill="#f6f7f7" d="M 383.5,114.5 C 384.833,115.167 384.833,115.167 383.5,114.5 Z"/>
 </g>
 <g>
  <path style="opacity:0.004" fill="#f4f6f5" d="M 386.5,115.5 C 385.833,114.167 385.833,114.167 386.5,115.5 Z"/>
 </g>
 <g>
  <path style="opacity:0.004" fill="#f2f4f4" d="M 368.5,119.5 C 369.833,120.167 369.833,120.167 368.5,119.5 Z"/>
 </g>
 <g>
  <path style="opacity:0.006" fill="#f4f7f6" d="M 360.5,123.5 C 360.897,122.475 361.563,122.308 362.5,123C 361.906,123.464 361.239,123.631 360.5,123.5 Z"/>
 </g>
 <g>
  <path style="opacity:0.004" fill="#f4f5f6" d="M 660.5,122.5 C 661.833,123.167 661.833,123.167 660.5,122.5 Z"/>
 </g>
 <g>
  <path style="opacity:0.004" fill="#f3f5f3" d="M 355.5,124.5 C 356.833,125.167 356.833,125.167 355.5,124.5 Z"/>
 </g>
 <g>
  <path style="opacity:0.004" fill="#f1f4f1" d="M 342.5,129.5 C 343.833,130.167 343.833,130.167 342.5,129.5 Z"/>
 </g>
 <g>
  <path style="opacity:0.004" fill="#f1f5f2" d="M 679.5,130.5 C 678.833,129.167 678.833,129.167 679.5,130.5 Z"/>
 </g>
 <g>
  <path style="opacity:0.004" fill="#f5f6f5" d="M 679.5,130.5 C 680.833,131.167 680.833,131.167 679.5,130.5 Z"/>
 </g>
 <g>
  <path style="opacity:0.008" fill="#f3f6f4" d="M 336.5,132.5 C 337.833,133.167 337.833,133.167 336.5,132.5 Z"/>
 </g>
 <g>
  <path style="opacity:0.999" fill="#3a89ac" d="M 485.5,134.5 C 625.745,130.049 737.911,183.383 822,294.5C 888.546,393.776 906.213,501.109 875,616.5C 838.745,726.079 768.578,805.579 664.5,855C 563.132,896.966 461.465,896.966 359.5,855C 270.667,814.167 205.833,749.333 165,660.5C 128.923,574.695 123.59,487.695 149,399.5C 185.096,293.413 253.596,216.246 354.5,168C 396.311,149.131 439.978,137.965 485.5,134.5 Z"/>
 </g>
 <g>
  <path style="opacity:0.008" fill="#f4f5f6" d="M 693.5,136.5 C 694.833,137.167 694.833,137.167 693.5,136.5 Z"/>
 </g>
 <g>
  <path style="opacity:0.004" fill="#f2f6f4" d="M 325.5,137.5 C 326.833,138.167 326.833,138.167 325.5,137.5 Z"/>
 </g>
 <g>
  <path style="opacity:0.004" fill="#f3f5f5" d="M 697.5,138.5 C 698.833,139.167 698.833,139.167 697.5,138.5 Z"/>
 </g>
 <g>
  <path style="opacity:0.008" fill="#f3f4f5" d="M 709.5,144.5 C 710.833,145.167 710.833,145.167 709.5,144.5 Z"/>
 </g>
 <g>
  <path style="opacity:0.004" fill="#f4f5f6" d="M 725.5,154.5 C 725.897,153.475 726.563,153.308 727.5,154C 726.906,154.464 726.239,154.631 725.5,154.5 Z"/>
 </g>
 <g>
  <path style="opacity:0.008" fill="#f6f8f6" d="M 296.5,155.5 C 295.833,154.167 295.833,154.167 296.5,155.5 Z"/>
 </g>
 <g>
  <path style="opacity:0.006" fill="#f1f4f3" d="M 293.5,157.5 C 292.761,157.631 292.094,157.464 291.5,157C 292.437,156.308 293.103,156.475 293.5,157.5 Z"/>
 </g>
 <g>
  <path style="opacity:0.012" fill="#f4f6f4" d="M 740.5,162.5 C 741.833,163.167 741.833,163.167 740.5,162.5 Z"/>
 </g>
 <g>
  <path style="opacity:0.004" fill="#f0f4f2" d="M 753.5,168.5 C 754.833,169.167 754.833,169.167 753.5,168.5 Z"/>
 </g>
 <g>
  <path style="opacity:0.004" fill="#f2f5f4" d="M 270.5,170.5 C 271.833,171.167 271.833,171.167 270.5,170.5 Z"/>
 </g>
 <g>
  <path style="opacity:0.004" fill="#f0f1f2" d="M 263.5,172.5 C 264.833,173.167 264.833,173.167 263.5,172.5 Z"/>
 </g>
 <g>
  <path style="opacity:0.008" fill="#f2f5f2" d="M 269.5,173.5 C 268.833,172.167 268.833,172.167 269.5,173.5 Z"/>
 </g>
 <g>
  <path style="opacity:0.004" fill="#f2f5f3" d="M 761.5,177.5 C 762.833,178.167 762.833,178.167 761.5,177.5 Z"/>
 </g>
 <g>
  <path style="opacity:0.999" fill="#fefefe" d="M 486.5,180.5 C 617.249,174.966 719.415,224.966 793,330.5C 840.217,405.262 855.05,486.095 837.5,573C 815.572,675.593 758.905,752.259 667.5,803C 562.977,854.661 458.644,854.328 354.5,802C 250.808,743.524 192.641,654.691 180,535.5C 173.276,429.827 208.11,340.66 284.5,268C 341.738,216.069 409.071,186.902 486.5,180.5 Z"/>
 </g>
 <g>
  <path style="opacity:0.004" fill="#f7f8f6" d="M 772.5,185.5 C 773.833,186.167 773.833,186.167 772.5,185.5 Z"/>
 </g>
 <g>
  <path style="opacity:0.004" fill="#f5f7f6" d="M 232.5,203.5 C 231.833,202.167 231.833,202.167 232.5,203.5 Z"/>
 </g>
 <g>
  <path style="opacity:1" fill="#3a89ac" d="M 500.5,218.5 C 620.204,218.241 710.704,268.908 772,370.5C 808.832,440.654 816.832,513.987 796,590.5C 763.02,692.147 695.52,758.98 593.5,791C 496.392,816.512 407.726,799.178 327.5,739C 239.736,665.746 203.902,572.246 220,458.5C 240.363,360.824 295.196,289.991 384.5,246C 421.509,229.246 460.175,220.079 500.5,218.5 Z"/>
 </g>
 <g>
  <path style="opacity:0.004" fill="#f5f6f5" d="M 809.5,218.5 C 810.833,219.167 810.833,219.167 809.5,218.5 Z"/>
 </g>
 <g>
  <path style="opacity:0.004" fill="#f3f5f4" d="M 206.5,225.5 C 207.833,226.167 207.833,226.167 206.5,225.5 Z"/>
 </g>
 <g>
  <path style="opacity:0.004" fill="#f4f6f8" d="M 200.5,235.5 C 199.833,234.167 199.833,234.167 200.5,235.5 Z"/>
 </g>
 <g>
  <path style="opacity:0.008" fill="#f3f6f4" d="M 191.5,242.5 C 192.833,243.167 192.833,243.167 191.5,242.5 Z"/>
 </g>
 <g>
  <path style="opacity:0.004" fill="#edf0ef" d="M 852.5,263.5 C 853.833,264.167 853.833,264.167 852.5,263.5 Z"/>
 </g>
 <g>
  <path style="opacity:0.008" fill="#f2f3f3" d="M 172.5,269.5 C 171.833,268.167 171.833,268.167 172.5,269.5 Z"/>
 </g>
 <g>
  <path style="opacity:0.004" fill="#f4f5f5" d="M 854.5,271.5 C 855.833,272.167 855.833,272.167 854.5,271.5 Z"/>
 </g>
 <g>
  <path style="opacity:0.004" fill="#f2f3f3" d="M 862.5,284.5 C 863.833,285.167 863.833,285.167 862.5,284.5 Z"/>
 </g>
 <g>
  <path style="opacity:0.012" fill="#f3f6f3" d="M 151.5,298.5 C 152.833,299.167 152.833,299.167 151.5,298.5 Z"/>
 </g>
 <g>
  <path style="opacity:0.004" fill="#f3f3f3" d="M 874.5,303.5 C 875.833,304.167 875.833,304.167 874.5,303.5 Z"/>
 </g>
 <g>
  <path style="opacity:0.004" fill="#f3f5f3" d="M 147.5,304.5 C 148.833,305.167 148.833,305.167 147.5,304.5 Z"/>
 </g>
 <g>
  <path style="opacity:0.008" fill="#f0f2f1" d="M 878.5,305.5 C 879.833,306.167 879.833,306.167 878.5,305.5 Z"/>
 </g>
 <g>
  <path style="opacity:0.004" fill="#f2f7f4" d="M 876.5,307.5 C 877.833,308.167 877.833,308.167 876.5,307.5 Z"/>
 </g>
 <g>
  <path style="opacity:0.004" fill="#f2f3f2" d="M 878.5,308.5 C 879.833,309.167 879.833,309.167 878.5,308.5 Z"/>
 </g>
 <g>
  <path style="opacity:0.999" fill="#fefefe" d="M 493.5,319.5 C 552.84,317.334 609.173,329.167 662.5,355C 691.31,369.481 714.81,389.981 733,416.5C 756.214,458.381 752.714,497.714 722.5,534.5C 713.286,544.886 702.286,552.72 689.5,558C 671.831,562.154 661.498,555.321 658.5,537.5C 661.446,523.776 669.112,513.61 681.5,507C 702.749,488.422 706.916,466.588 694,441.5C 680.27,421.772 662.77,406.272 641.5,395C 576.226,362.636 508.226,355.303 437.5,373C 401.121,382.097 369.621,399.597 343,425.5C 336.674,432.812 331.341,440.812 327,449.5C 318.98,477.294 327.48,498.461 352.5,513C 363.562,521.275 367.729,532.109 365,545.5C 361.375,554.327 354.708,558.994 345,559.5C 332.916,558.04 322.416,553.207 313.5,545C 275.143,509.206 267.643,467.706 291,420.5C 308.032,392.801 330.865,371.301 359.5,356C 401.704,334.531 446.371,322.364 493.5,319.5 Z"/>
 </g>
 <g>
  <path style="opacity:0.004" fill="#f2f5f5" d="M 883.5,319.5 C 884.833,320.167 884.833,320.167 883.5,319.5 Z"/>
 </g>
 <g>
  <path style="opacity:0.004" fill="#f5f6f5" d="M 138.5,321.5 C 139.833,322.167 139.833,322.167 138.5,321.5 Z"/>
 </g>
 <g>
  <path style="opacity:0.004" fill="#f1f4f3" d="M 886.5,322.5 C 887.833,323.167 887.833,323.167 886.5,322.5 Z"/>
 </g>
 <g>
  <path style="opacity:0.004" fill="#f7faf6" d="M 132.5,337.5 C 131.833,336.167 131.833,336.167 132.5,337.5 Z"/>
 </g>
 <g>
  <path style="opacity:0.004" fill="#f4f7f6" d="M 128.5,342.5 C 129.833,343.167 129.833,343.167 128.5,342.5 Z"/>
 </g>
 <g>
  <path style="opacity:0.004" fill="#f4f6f5" d="M 893.5,342.5 C 894.833,343.167 894.833,343.167 893.5,342.5 Z"/>
 </g>
 <g>
  <path style="opacity:0.004" fill="#f6f7f6" d="M 902.5,364.5 C 903.833,365.167 903.833,365.167 902.5,364.5 Z"/>
 </g>
 <g>
  <path style="opacity:0.004" fill="#f3f6f4" d="M 910.5,380.5 C 911.833,381.167 911.833,381.167 910.5,380.5 Z"/>
 </g>
 <g>
  <path style="opacity:0.004" fill="#f7faf9" d="M 111.5,386.5 C 112.833,387.167 112.833,387.167 111.5,386.5 Z"/>
 </g>
 <g>
  <path style="opacity:0.008" fill="#f9f8f7" d="M 910.5,388.5 C 911.833,389.167 911.833,389.167 910.5,388.5 Z"/>
 </g>
 <g>
  <path style="opacity:0.004" fill="#f7f8f8" d="M 107.5,400.5 C 108.833,401.167 108.833,401.167 107.5,400.5 Z"/>
 </g>
 <g>
  <path style="opacity:0.006" fill="#f8f8f8" d="M 916.5,410.5 C 916.897,409.475 917.563,409.308 918.5,410C 917.906,410.464 917.239,410.631 916.5,410.5 Z"/>
 </g>
 <g>
  <path style="opacity:0.008" fill="#f8f9fb" d="M 103.5,416.5 C 104.833,417.167 104.833,417.167 103.5,416.5 Z"/>
 </g>
 <g>
  <path style="opacity:0.004" fill="#f7faf8" d="M 918.5,417.5 C 919.833,418.167 919.833,418.167 918.5,417.5 Z"/>
 </g>
 <g>
  <path style="opacity:0.008" fill="#f7faf9" d="M 921.5,432.5 C 922.833,433.167 922.833,433.167 921.5,432.5 Z"/>
 </g>
 <g>
  <path style="opacity:0.999" fill="#fefefe" d="M 443.5,443.5 C 451.931,443.084 459.597,445.25 466.5,450C 481.654,465.32 496.987,480.487 512.5,495.5C 527.695,479.56 543.362,464.06 559.5,449C 576.587,440.017 592.087,442.183 606,455.5C 614.238,466.243 615.238,477.576 609,489.5C 592.873,507.628 576.039,525.128 558.5,542C 573.894,558.396 589.728,574.563 606,590.5C 617.464,610.806 612.964,626.639 592.5,638C 578.921,643.617 566.588,641.617 555.5,632C 541.629,617.13 527.462,602.63 513,588.5C 497.732,603.508 482.565,618.674 467.5,634C 453.972,643.22 439.972,643.886 425.5,636C 410.463,624.684 406.963,610.518 415,593.5C 431.318,576.348 447.818,559.348 464.5,542.5C 449.766,527.267 434.932,512.267 420,497.5C 407.326,479.343 409.826,463.51 427.5,450C 432.607,446.935 437.94,444.769 443.5,443.5 Z"/>
 </g>
 <g>
  <path style="opacity:0.012" fill="#f9f8fa" d="M 926.5,464.5 C 927.573,465.251 927.74,466.251 927,467.5C 926.517,466.552 926.351,465.552 926.5,464.5 Z"/>
 </g>
 <g>
  <path style="opacity:0.012" fill="#fafafa" d="M 95.5,466.5 C 96.8333,467.167 96.8333,467.167 95.5,466.5 Z"/>
 </g>
 <g>
  <path style="opacity:0.008" fill="#f7fafa" d="M 95.5,472.5 C 96.8333,473.167 96.8333,473.167 95.5,472.5 Z"/>
 </g>
 <g>
  <path style="opacity:0.008" fill="#f8fbf9" d="M 95.5,548.5 C 96.8333,549.167 96.8333,549.167 95.5,548.5 Z"/>
 </g>
 <g>
  <path style="opacity:0.008" fill="#f6f9fa" d="M 97.5,561.5 C 96.4265,560.749 96.2599,559.749 97,558.5C 97.4828,559.448 97.6495,560.448 97.5,561.5 Z"/>
 </g>
 <g>
  <path style="opacity:0.004" fill="#fafbfb" d="M 924.5,566.5 C 925.833,567.167 925.833,567.167 924.5,566.5 Z"/>
 </g>
 <g>
  <path style="opacity:0.012" fill="#f7faf9" d="M 97.5,565.5 C 98.6225,567.288 98.7891,569.288 98,571.5C 97.5045,569.527 97.3379,567.527 97.5,565.5 Z"/>
 </g>
 <g>
  <path style="opacity:0.004" fill="#f8f9f9" d="M 923.5,573.5 C 924.833,574.167 924.833,574.167 923.5,573.5 Z"/>
 </g>
 <g>
  <path style="opacity:0.008" fill="#f7f8f9" d="M 98.5,575.5 C 99.8333,576.167 99.8333,576.167 98.5,575.5 Z"/>
 </g>
 <g>
  <path style="opacity:0.004" fill="#f6f7f8" d="M 103.5,601.5 C 104.833,602.167 104.833,602.167 103.5,601.5 Z"/>
 </g>
 <g>
  <path style="opacity:0.008" fill="#f7f7f6" d="M 105.5,608.5 C 104.475,608.103 104.308,607.437 105,606.5C 105.464,607.094 105.631,607.761 105.5,608.5 Z"/>
 </g>
 <g>
  <path style="opacity:0.012" fill="#f6f7f7" d="M 105.5,610.5 C 106.525,610.897 106.692,611.563 106,612.5C 105.536,611.906 105.369,611.239 105.5,610.5 Z"/>
 </g>
 <g>
  <path style="opacity:0.004" fill="#f6f9f6" d="M 915.5,613.5 C 916.833,614.167 916.833,614.167 915.5,613.5 Z"/>
 </g>
 <g>
  <path style="opacity:0.008" fill="#f4f6f6" d="M 106.5,614.5 C 107.833,615.167 107.833,615.167 106.5,614.5 Z"/>
 </g>
 <g>
  <path style="opacity:0.004" fill="#f5f7f5" d="M 107.5,617.5 C 108.833,618.167 108.833,618.167 107.5,617.5 Z"/>
 </g>
 <g>
  <path style="opacity:0.004" fill="#f6f6f7" d="M 107.5,619.5 C 108.833,620.167 108.833,620.167 107.5,619.5 Z"/>
 </g>
 <g>
  <path style="opacity:0.004" fill="#f5f6f6" d="M 910.5,630.5 C 911.833,631.167 911.833,631.167 910.5,630.5 Z"/>
 </g>
 <g>
  <path style="opacity:0.008" fill="#f5f6f4" d="M 111.5,632.5 C 112.525,632.897 112.692,633.563 112,634.5C 111.536,633.906 111.369,633.239 111.5,632.5 Z"/>
 </g>
 <g>
  <path style="opacity:0.004" fill="#f3f7f5" d="M 112.5,636.5 C 113.833,637.167 113.833,637.167 112.5,636.5 Z"/>
 </g>
 <g>
  <path style="opacity:0.004" fill="#f5f9f7" d="M 908.5,638.5 C 909.833,639.167 909.833,639.167 908.5,638.5 Z"/>
 </g>
 <g>
  <path style="opacity:0.004" fill="#f4f7f6" d="M 113.5,639.5 C 114.833,640.167 114.833,640.167 113.5,639.5 Z"/>
 </g>
 <g>
  <path style="opacity:0.004" fill="#f4f6f6" d="M 114.5,642.5 C 115.833,643.167 115.833,643.167 114.5,642.5 Z"/>
 </g>
 <g>
  <path style="opacity:0.004" fill="#f3f6f5" d="M 115.5,645.5 C 116.833,646.167 116.833,646.167 115.5,645.5 Z"/>
 </g>
 <g>
  <path style="opacity:0.004" fill="#f5f7f4" d="M 897.5,667.5 C 898.833,668.167 898.833,668.167 897.5,667.5 Z"/>
 </g>
 <g>
  <path style="opacity:0.008" fill="#f4f7f6" d="M 130.5,682.5 C 131.833,683.167 131.833,683.167 130.5,682.5 Z"/>
 </g>
 <g>
  <path style="opacity:0.012" fill="#f4f7f6" d="M 131.5,684.5 C 132.833,685.167 132.833,685.167 131.5,684.5 Z"/>
 </g>
 <g>
  <path style="opacity:0.004" fill="#f6f6f6" d="M 136.5,694.5 C 137.833,695.167 137.833,695.167 136.5,694.5 Z"/>
 </g>
 <g>
  <path style="opacity:0.004" fill="#f3f4f4" d="M 883.5,696.5 C 884.525,696.897 884.692,697.563 884,698.5C 883.536,697.906 883.369,697.239 883.5,696.5 Z"/>
 </g>
 <g>
  <path style="opacity:0.004" fill="#f3f5f4" d="M 138.5,698.5 C 139.833,699.167 139.833,699.167 138.5,698.5 Z"/>
 </g>
 <g>
  <path style="opacity:0.008" fill="#f4f6f5" d="M 139.5,700.5 C 140.833,701.167 140.833,701.167 139.5,700.5 Z"/>
 </g>
 <g>
  <path style="opacity:0.004" fill="#f1f4f2" d="M 881.5,701.5 C 882.833,702.167 882.833,702.167 881.5,701.5 Z"/>
 </g>
 <g>
  <path style="opacity:0.012" fill="#f3f5f6" d="M 145.5,709.5 C 144.833,710.167 144.833,710.167 145.5,709.5 Z"/>
 </g>
 <g>
  <path style="opacity:0.004" fill="#f4f3f4" d="M 877.5,710.5 C 878.833,711.167 878.833,711.167 877.5,710.5 Z"/>
 </g>
 <g>
  <path style="opacity:0.004" fill="#f2f3f3" d="M 146.5,713.5 C 147.833,714.167 147.833,714.167 146.5,713.5 Z"/>
 </g>
 <g>
  <path style="opacity:0.012" fill="#f1f5f5" d="M 153.5,722.5 C 152.833,723.167 152.833,723.167 153.5,722.5 Z"/>
 </g>
 <g>
  <path style="opacity:0.008" fill="#f2f7f5" d="M 163.5,739.5 C 164.833,740.167 164.833,740.167 163.5,739.5 Z"/>
 </g>
 <g>
  <path style="opacity:0.004" fill="#f3f4f3" d="M 164.5,741.5 C 165.833,742.167 165.833,742.167 164.5,741.5 Z"/>
 </g>
 <g>
  <path style="opacity:0.008" fill="#f3f5f6" d="M 169.5,746.5 C 168.833,747.167 168.833,747.167 169.5,746.5 Z"/>
 </g>
 <g>
  <path style="opacity:0.004" fill="#f3f7f5" d="M 175.5,756.5 C 176.833,757.167 176.833,757.167 175.5,756.5 Z"/>
 </g>
 <g>
  <path style="opacity:0.008" fill="#f1f3f3" d="M 845.5,757.5 C 846.833,758.167 846.833,758.167 845.5,757.5 Z"/>
 </g>
 <g>
  <path style="opacity:0.008" fill="#f3f4f4" d="M 183.5,767.5 C 184.833,768.167 184.833,768.167 183.5,767.5 Z"/>
 </g>
 <g>
  <path style="opacity:0.004" fill="#f3f6f2" d="M 186.5,768.5 C 185.833,769.167 185.833,769.167 186.5,768.5 Z"/>
 </g>
 <g>
  <path style="opacity:0.004" fill="#f4f5f5" d="M 187.5,771.5 C 186.833,770.167 186.833,770.167 187.5,771.5 Z"/>
 </g>
 <g>
  <path style="opacity:0.008" fill="#f3f5f5" d="M 187.5,771.5 C 187.833,771.5 188.167,771.5 188.5,771.5C 188.315,772.17 187.981,772.17 187.5,771.5 Z"/>
 </g>
 <g>
  <path style="opacity:0.004" fill="#f5f7f6" d="M 194.5,778.5 C 193.833,779.167 193.833,779.167 194.5,778.5 Z"/>
 </g>
 <g>
  <path style="opacity:0.008" fill="#f3f3f5" d="M 201.5,786.5 C 201.631,787.239 201.464,787.906 201,788.5C 200.308,787.563 200.475,786.897 201.5,786.5 Z"/>
 </g>
 <g>
  <path style="opacity:0.004" fill="#f2f6f4" d="M 792.5,814.5 C 793.833,815.167 793.833,815.167 792.5,814.5 Z"/>
 </g>
 <g>
  <path style="opacity:0.004" fill="#f1f4f3" d="M 239.5,825.5 C 240.833,826.167 240.833,826.167 239.5,825.5 Z"/>
 </g>
 <g>
  <path style="opacity:0.016" fill="#f4f5f3" d="M 244.5,828.5 C 243.833,829.167 243.833,829.167 244.5,828.5 Z"/>
 </g>
 <g>
  <path style="opacity:0.004" fill="#f1f4f3" d="M 249.5,834.5 C 250.833,835.167 250.833,835.167 249.5,834.5 Z"/>
 </g>
 <g>
  <path style="opacity:0.008" fill="#f3f4f3" d="M 252.5,835.5 C 251.833,836.167 251.833,836.167 252.5,835.5 Z"/>
 </g>
 <g>
  <path style="opacity:0.004" fill="#f5f7f4" d="M 764.5,838.5 C 765.833,839.167 765.833,839.167 764.5,838.5 Z"/>
 </g>
 <g>
  <path style="opacity:0.012" fill="#f2f5f4" d="M 272.5,850.5 C 271.833,851.167 271.833,851.167 272.5,850.5 Z"/>
 </g>
 <g>
  <path style="opacity:0.004" fill="#f0f3f4" d="M 285.5,859.5 C 284.833,860.167 284.833,860.167 285.5,859.5 Z"/>
 </g>
 <g>
  <path style="opacity:0.004" fill="#f0f3f4" d="M 296.5,867.5 C 297.833,868.167 297.833,868.167 296.5,867.5 Z"/>
 </g>
 <g>
  <path style="opacity:0.016" fill="#f5f6f5" d="M 722.5,867.5 C 723.833,868.167 723.833,868.167 722.5,867.5 Z"/>
 </g>
 <g>
  <path style="opacity:0.004" fill="#f1f3f4" d="M 296.5,868.5 C 295.833,869.167 295.833,869.167 296.5,868.5 Z"/>
 </g>
 <g>
  <path style="opacity:0.004" fill="#f0f2f3" d="M 314.5,876.5 C 313.833,877.167 313.833,877.167 314.5,876.5 Z"/>
 </g>
 <g>
  <path style="opacity:0.004" fill="#f2f4f4" d="M 703.5,878.5 C 704.239,878.369 704.906,878.536 705.5,879C 704.563,879.692 703.897,879.525 703.5,878.5 Z"/>
 </g>
 <g>
  <path style="opacity:0.004" fill="#f2f4f4" d="M 322.5,881.5 C 323.833,882.167 323.833,882.167 322.5,881.5 Z"/>
 </g>
 <g>
  <path style="opacity:0.004" fill="#f0f3f2" d="M 343.5,892.5 C 344.833,893.167 344.833,893.167 343.5,892.5 Z"/>
 </g>
 <g>
  <path style="opacity:0.006" fill="#f4f4f5" d="M 347.5,892.5 C 347.103,893.525 346.437,893.692 345.5,893C 346.094,892.536 346.761,892.369 347.5,892.5 Z"/>
 </g>
 <g>
  <path style="opacity:0.008" fill="#f1f3f3" d="M 348.5,893.5 C 349.833,894.167 349.833,894.167 348.5,893.5 Z"/>
 </g>
 <g>
  <path style="opacity:0.008" fill="#f5f6f6" d="M 662.5,897.5 C 663.833,898.167 663.833,898.167 662.5,897.5 Z"/>
 </g>
 <g>
  <path style="opacity:0.012" fill="#f3f5f4" d="M 361.5,898.5 C 362.833,899.167 362.833,899.167 361.5,898.5 Z"/>
 </g>
 <g>
  <path style="opacity:0.008" fill="#f5f7f4" d="M 657.5,899.5 C 658.833,900.167 658.833,900.167 657.5,899.5 Z"/>
 </g>
 <g>
  <path style="opacity:0.004" fill="#f5f7f7" d="M 367.5,900.5 C 368.833,901.167 368.833,901.167 367.5,900.5 Z"/>
 </g>
 <g>
  <path style="opacity:0.004" fill="#f5f6f6" d="M 384.5,906.5 C 385.833,907.167 385.833,907.167 384.5,906.5 Z"/>
 </g>
 <g>
  <path style="opacity:0.004" fill="#f6f7f7" d="M 387.5,908.5 C 387.897,907.475 388.563,907.308 389.5,908C 388.906,908.464 388.239,908.631 387.5,908.5 Z"/>
 </g>
 <g>
  <path style="opacity:0.004" fill="#f6f8f5" d="M 633.5,907.5 C 634.833,908.167 634.833,908.167 633.5,907.5 Z"/>
 </g>
 <g>
  <path style="opacity:0.008" fill="#f2f5f5" d="M 391.5,908.5 C 392.833,909.167 392.833,909.167 391.5,908.5 Z"/>
 </g>
 <g>
  <path style="opacity:0.004" fill="#f3f3f4" d="M 389.5,910.5 C 390.833,911.167 390.833,911.167 389.5,910.5 Z"/>
 </g>
 <g>
  <path style="opacity:0.004" fill="#f4f6f6" d="M 410.5,914.5 C 410.897,913.475 411.563,913.308 412.5,914C 411.906,914.464 411.239,914.631 410.5,914.5 Z"/>
 </g>
 <g>
  <path style="opacity:0.008" fill="#f4f6f6" d="M 419.5,915.5 C 420.833,916.167 420.833,916.167 419.5,915.5 Z"/>
 </g>
 <g>
  <path style="opacity:0.004" fill="#f5f6f6" d="M 423.5,916.5 C 424.833,917.167 424.833,917.167 423.5,916.5 Z"/>
 </g>
 <g>
  <path style="opacity:0.008" fill="#f6f7f7" d="M 425.5,916.5 C 426.833,917.167 426.833,917.167 425.5,916.5 Z"/>
 </g>
 <g>
  <path style="opacity:0.004" fill="#f6f9f8" d="M 431.5,917.5 C 432.833,918.167 432.833,918.167 431.5,917.5 Z"/>
 </g>
 <g>
  <path style="opacity:0.012" fill="#f7f8f7" d="M 591.5,918.5 C 591.897,917.475 592.563,917.308 593.5,918C 592.906,918.464 592.239,918.631 591.5,918.5 Z"/>
 </g>
 <g>
  <path style="opacity:0.008" fill="#f6f6f6" d="M 584.5,918.5 C 585.833,919.167 585.833,919.167 584.5,918.5 Z"/>
 </g>
 <g>
  <path style="opacity:0.004" fill="#f6f8f8" d="M 455.5,921.5 C 456.833,922.167 456.833,922.167 455.5,921.5 Z"/>
 </g>
 <g>
  <path style="opacity:0.008" fill="#f5f8f7" d="M 457.5,921.5 C 458.833,922.167 458.833,922.167 457.5,921.5 Z"/>
 </g>
 <g>
  <path style="opacity:0.004" fill="#f5f8f8" d="M 459.5,921.5 C 460.833,922.167 460.833,922.167 459.5,921.5 Z"/>
 </g>
 <g>
  <path style="opacity:0.004" fill="#f6f7f7" d="M 566.5,921.5 C 567.833,922.167 567.833,922.167 566.5,921.5 Z"/>
 </g>
 <g>
  <path style="opacity:0.006" fill="#f6f8f8" d="M 462.5,923.5 C 462.897,922.475 463.563,922.308 464.5,923C 463.906,923.464 463.239,923.631 462.5,923.5 Z"/>
 </g>
 <g>
  <path style="opacity:0.004" fill="#f6f9f8" d="M 558.5,922.5 C 559.833,923.167 559.833,923.167 558.5,922.5 Z"/>
 </g>
 <g>
  <path style="opacity:0.005" fill="#f6f6f7" d="M 473.5,924.5 C 474.946,923.387 476.613,923.22 478.5,924C 476.866,924.494 475.199,924.66 473.5,924.5 Z"/>
 </g>
 <g>
  <path style="opacity:0.004" fill="#f5f8f7" d="M 547.5,923.5 C 548.833,924.167 548.833,924.167 547.5,923.5 Z"/>
 </g>
 <g>
  <path style="opacity:0.004" fill="#f5f7f6" d="M 487.5,924.5 C 488.833,925.167 488.833,925.167 487.5,924.5 Z"/>
 </g>
 <g>
  <path style="opacity:0.008" fill="#f4f8f5" d="M 489.5,924.5 C 490.833,925.167 490.833,925.167 489.5,924.5 Z"/>
 </g>
 <g>
  <path style="opacity:0.005" fill="#f5f7f6" d="M 495.5,925.5 C 496.251,924.427 497.251,924.26 498.5,925C 497.552,925.483 496.552,925.649 495.5,925.5 Z"/>
 </g>
 <g>
  <path style="opacity:0.004" fill="#f5f9f6" d="M 511.5,924.5 C 512.833,925.167 512.833,925.167 511.5,924.5 Z"/>
 </g>
 <g>
  <path style="opacity:0.004" fill="#f4f8f8" d="M 521.5,924.5 C 522.833,925.167 522.833,925.167 521.5,924.5 Z"/>
 </g>
 <g>
  <path style="opacity:0.006" fill="#f6f8f8" d="M 528.5,925.5 C 529.601,924.402 530.934,924.235 532.5,925C 531.207,925.49 529.873,925.657 528.5,925.5 Z"/>
 </g>
 <g>
  <path style="opacity:0.004" fill="#f6f8f7" d="M 536.5,924.5 C 537.833,925.167 537.833,925.167 536.5,924.5 Z"/>
 </g>
 <g>
  <path style="opacity:0.004" fill="#f4f6f5" d="M 549.5,925.5 C 550.833,926.167 550.833,926.167 549.5,925.5 Z"/>
 </g>
</svg>
