<?xml version='1.0' encoding='UTF-8'?>
<!DOCTYPE svg PUBLIC '-//W3C//DTD SVG 1.1//EN' 'http://www.w3.org/Graphics/SVG/1.1/DTD/svg11.dtd'>
<svg xmlns:xlink="http://www.w3.org/1999/xlink" style="shape-rendering:geometricPrecision; text-rendering:geometricPrecision; image-rendering:optimizeQuality; fill-rule:evenodd; clip-rule:evenodd" width="1024px" height="1024px" xmlns="http://www.w3.org/2000/svg" version="1.1">
 <g>
  <path style="opacity:0.008" fill="#f6f7f7" d="M 486.5,90.5 C 487.833,91.1667 487.833,91.1667 486.5,90.5 Z"/>
 </g>
 <g>
  <path style="opacity:0.008" fill="#f6f7f6" d="M 467.5,91.5 C 468.833,92.1667 468.833,92.1667 467.5,91.5 Z"/>
 </g>
 <g>
  <path style="opacity:0.008" fill="#f6f7f8" d="M 550.5,91.5 C 551.833,92.1667 551.833,92.1667 550.5,91.5 Z"/>
 </g>
 <g>
  <path style="opacity:0.004" fill="#f7f7f8" d="M 457.5,92.5 C 458.833,93.1667 458.833,93.1667 457.5,92.5 Z"/>
 </g>
 <g>
  <path style="opacity:0.994" fill="#fefefe" d="M 669.5,121.5 C 685.082,128.43 701.416,136.097 718.5,144.5C 724.334,148.921 730.668,152.588 737.5,155.5C 745.868,161.857 754.535,167.857 763.5,173.5C 783.994,188.982 803.327,205.982 821.5,224.5C 824.195,227.526 826.862,230.526 829.5,233.5C 840.658,246.508 851.325,259.841 861.5,273.5C 869.685,286.65 877.685,299.316 885.5,311.5C 942.658,425.675 949.491,542.675 906,662.5C 898.644,680.878 890.477,698.878 881.5,716.5C 874.002,727.49 867.002,738.824 860.5,750.5C 858.025,752.77 856.025,755.437 854.5,758.5C 841.573,774.767 828.24,790.767 814.5,806.5C 811.167,809.167 808.167,812.167 805.5,815.5C 743.175,874.496 669.509,911.496 584.5,926.5C 511.309,937.679 439.975,931.679 370.5,908.5C 362.776,904.98 354.776,901.98 346.5,899.5C 336.144,893.99 325.477,888.99 314.5,884.5C 309.498,880.997 304.165,877.997 298.5,875.5C 290.844,870.003 282.844,865.003 274.5,860.5C 266.352,854.258 258.018,848.258 249.5,842.5C 247.766,839.8 245.432,837.8 242.5,836.5C 238.485,832.487 234.152,828.821 229.5,825.5C 215.191,811.189 201.191,796.522 187.5,781.5C 187.5,780.833 187.167,780.5 186.5,780.5C 186.068,779.29 185.401,778.29 184.5,777.5C 183.2,774.568 181.2,772.234 178.5,770.5C 171.41,759.983 164.076,749.649 156.5,739.5C 151.415,730.327 146.082,721.327 140.5,712.5C 140.008,710.181 139.008,708.181 137.5,706.5C 136.341,702.849 134.674,699.515 132.5,696.5C 127.082,684 121.415,671.667 115.5,659.5C 113.03,649.02 109.863,638.354 106,627.5C 105.444,629.595 104.944,629.762 104.5,628C 104.911,626.856 105.244,625.689 105.5,624.5C 103.818,618.375 102.151,612.375 100.5,606.5C 74.2255,477.809 99.5588,361.143 176.5,256.5C 187.138,244.192 197.804,231.859 208.5,219.5C 211.452,217.215 214.118,214.548 216.5,211.5C 223.491,205.842 230.157,199.842 236.5,193.5C 242.155,189.177 247.488,184.51 252.5,179.5C 254.23,178.974 255.564,177.974 256.5,176.5C 287.736,152.205 322.069,133.038 359.5,119C 374.238,114.031 388.905,109.198 403.5,104.5C 493.75,83.291 582.417,88.9577 669.5,121.5 Z"/>
 </g>
 <g>
  <path style="opacity:0.004" fill="#f6f8f5" d="M 555.5,92.5 C 556.833,93.1667 556.833,93.1667 555.5,92.5 Z"/>
 </g>
 <g>
  <path style="opacity:0.004" fill="#f4f7f5" d="M 558.5,92.5 C 559.833,93.1667 559.833,93.1667 558.5,92.5 Z"/>
 </g>
 <g>
  <path style="opacity:0.004" fill="#f3f4f5" d="M 593.5,97.5 C 594.833,98.1667 594.833,98.1667 593.5,97.5 Z"/>
 </g>
 <g>
  <path style="opacity:0.004" fill="#f5f5f4" d="M 417.5,99.5 C 418.833,100.167 418.833,100.167 417.5,99.5 Z"/>
 </g>
 <g>
  <path style="opacity:0.004" fill="#f2f4f2" d="M 603.5,99.5 C 604.833,100.167 604.833,100.167 603.5,99.5 Z"/>
 </g>
 <g>
  <path style="opacity:0.004" fill="#f2f2f0" d="M 400.5,103.5 C 401.833,104.167 401.833,104.167 400.5,103.5 Z"/>
 </g>
 <g>
  <path style="opacity:0.008" fill="#f3f6f4" d="M 403.5,104.5 C 402.833,103.167 402.833,103.167 403.5,104.5 Z"/>
 </g>
 <g>
  <path style="opacity:0.004" fill="#f2f4f3" d="M 390.5,106.5 C 391.833,107.167 391.833,107.167 390.5,106.5 Z"/>
 </g>
 <g>
  <path style="opacity:0.004" fill="#f0f2f0" d="M 630.5,106.5 C 631.833,107.167 631.833,107.167 630.5,106.5 Z"/>
 </g>
 <g>
  <path style="opacity:0.008" fill="#f1f5f2" d="M 384.5,108.5 C 385.833,109.167 385.833,109.167 384.5,108.5 Z"/>
 </g>
 <g>
  <path style="opacity:0.006" fill="#f2f2f1" d="M 645.5,112.5 C 645.897,111.475 646.563,111.308 647.5,112C 646.906,112.464 646.239,112.631 645.5,112.5 Z"/>
 </g>
 <g>
  <path style="opacity:0.004" fill="#f2f3f4" d="M 655.5,114.5 C 656.833,115.167 656.833,115.167 655.5,114.5 Z"/>
 </g>
 <g>
  <path style="opacity:0.008" fill="#f1f2f2" d="M 363.5,115.5 C 364.833,116.167 364.833,116.167 363.5,115.5 Z"/>
 </g>
 <g>
  <path style="opacity:0.008" fill="#f1f3f2" d="M 352.5,119.5 C 353.833,120.167 353.833,120.167 352.5,119.5 Z"/>
 </g>
 <g>
  <path style="opacity:0.004" fill="#efeff0" d="M 669.5,120.5 C 670.833,121.167 670.833,121.167 669.5,120.5 Z"/>
 </g>
 <g>
  <path style="opacity:0.012" fill="#f1f4f2" d="M 345.5,122.5 C 346.833,123.167 346.833,123.167 345.5,122.5 Z"/>
 </g>
 <g>
  <path style="opacity:0.016" fill="#f3f4f2" d="M 675.5,122.5 C 676.833,123.167 676.833,123.167 675.5,122.5 Z"/>
 </g>
 <g>
  <path style="opacity:0.999" fill="#3a89ac" d="M 487.5,126.5 C 612.292,122.509 717.459,165.509 803,255.5C 881.851,347.096 912.851,453.096 896,573.5C 872.499,697.777 805.999,790.943 696.5,853C 573.367,915.155 450.367,914.822 327.5,852C 217.553,789.617 151.387,695.784 129,570.5C 111.994,437.516 151.16,324.016 246.5,230C 314.612,167.625 394.945,133.125 487.5,126.5 Z"/>
 </g>
 <g>
  <path style="opacity:0.004" fill="#f1f0f0" d="M 331.5,127.5 C 332.833,128.167 332.833,128.167 331.5,127.5 Z"/>
 </g>
 <g>
  <path style="opacity:0.004" fill="#f0f3f2" d="M 313.5,137.5 C 314.833,138.167 314.833,138.167 313.5,137.5 Z"/>
 </g>
 <g>
  <path style="opacity:0.008" fill="#f3f6f3" d="M 311.5,138.5 C 312.833,139.167 312.833,139.167 311.5,138.5 Z"/>
 </g>
 <g>
  <path style="opacity:0.004" fill="#f1f3f2" d="M 709.5,138.5 C 710.833,139.167 710.833,139.167 709.5,138.5 Z"/>
 </g>
 <g>
  <path style="opacity:0.004" fill="#eff2f0" d="M 307.5,140.5 C 308.833,141.167 308.833,141.167 307.5,140.5 Z"/>
 </g>
 <g>
  <path style="opacity:0.004" fill="#f4f5f4" d="M 718.5,143.5 C 719.833,144.167 719.833,144.167 718.5,143.5 Z"/>
 </g>
 <g>
  <path style="opacity:0.004" fill="#f3f5f4" d="M 296.5,146.5 C 297.833,147.167 297.833,147.167 296.5,146.5 Z"/>
 </g>
 <g>
  <path style="opacity:0.008" fill="#f1f3f3" d="M 737.5,154.5 C 738.833,155.167 738.833,155.167 737.5,154.5 Z"/>
 </g>
 <g>
  <path style="opacity:0.004" fill="#f1f4f1" d="M 742.5,157.5 C 743.833,158.167 743.833,158.167 742.5,157.5 Z"/>
 </g>
 <g>
  <path style="opacity:0.008" fill="#f2f3f4" d="M 275.5,160.5 C 276.833,161.167 276.833,161.167 275.5,160.5 Z"/>
 </g>
 <g>
  <path style="opacity:0.999" fill="#fefefe" d="M 489.5,168.5 C 608.383,164.735 706.55,207.068 784,295.5C 850.878,382.706 872.878,480.373 850,588.5C 821.926,701.515 754.759,781.682 648.5,829C 560.247,864.536 471.581,865.536 382.5,832C 254.942,776.818 182.776,679.985 166,541.5C 159.219,433.098 193.719,340.931 269.5,265C 331.279,206.954 404.612,174.787 489.5,168.5 Z"/>
 </g>
 <g>
  <path style="opacity:0.008" fill="#f1f2f1" d="M 262.5,169.5 C 263.833,170.167 263.833,170.167 262.5,169.5 Z"/>
 </g>
 <g>
  <path style="opacity:0.004" fill="#f0f2f1" d="M 763.5,172.5 C 764.833,173.167 764.833,173.167 763.5,172.5 Z"/>
 </g>
 <g>
  <path style="opacity:0.031" fill="#f4f5f4" d="M 256.5,176.5 C 255.833,175.167 255.833,175.167 256.5,176.5 Z"/>
 </g>
 <g>
  <path style="opacity:0.004" fill="#f3f3f1" d="M 768.5,175.5 C 769.833,176.167 769.833,176.167 768.5,175.5 Z"/>
 </g>
 <g>
  <path style="opacity:0.004" fill="#f3f5f3" d="M 252.5,179.5 C 251.833,178.167 251.833,178.167 252.5,179.5 Z"/>
 </g>
 <g>
  <path style="opacity:0.004" fill="#f4f7f5" d="M 236.5,193.5 C 235.833,192.167 235.833,192.167 236.5,193.5 Z"/>
 </g>
 <g>
  <path style="opacity:0.004" fill="#f0f2f3" d="M 789.5,192.5 C 790.833,193.167 790.833,193.167 789.5,192.5 Z"/>
 </g>
 <g>
  <path style="opacity:1" fill="#3a89ac" d="M 488.5,206.5 C 579.382,201.652 658.382,229.485 725.5,290C 816.475,381.399 842.975,488.566 805,611.5C 767.403,714.071 695.569,780.238 589.5,810C 484.679,833.295 390.679,810.962 307.5,743C 236.802,677.617 201.802,596.617 202.5,500C 209.524,404.94 250.191,327.94 324.5,269C 373.355,233.101 428.022,212.268 488.5,206.5 Z"/>
 </g>
 <g>
  <path style="opacity:0.004" fill="#f2f4f3" d="M 216.5,211.5 C 215.833,210.167 215.833,210.167 216.5,211.5 Z"/>
 </g>
 <g>
  <path style="opacity:0.008" fill="#f4f5f4" d="M 208.5,219.5 C 207.833,218.167 207.833,218.167 208.5,219.5 Z"/>
 </g>
 <g>
  <path style="opacity:0.004" fill="#f2f3f3" d="M 821.5,223.5 C 822.833,224.167 822.833,224.167 821.5,223.5 Z"/>
 </g>
 <g>
  <path style="opacity:0.004" fill="#f2f3f3" d="M 199.5,226.5 C 200.833,227.167 200.833,227.167 199.5,226.5 Z"/>
 </g>
 <g>
  <path style="opacity:0.004" fill="#f1f3f3" d="M 829.5,232.5 C 830.833,233.167 830.833,233.167 829.5,232.5 Z"/>
 </g>
 <g>
  <path style="opacity:0.008" fill="#f3f4f3" d="M 193.5,233.5 C 194.833,234.167 194.833,234.167 193.5,233.5 Z"/>
 </g>
 <g>
  <path style="opacity:0.008" fill="#f1f2f3" d="M 176.5,256.5 C 175.833,255.167 175.833,255.167 176.5,256.5 Z"/>
 </g>
 <g>
  <path style="opacity:0.004" fill="#f0f2f3" d="M 861.5,272.5 C 862.833,273.167 862.833,273.167 861.5,272.5 Z"/>
 </g>
 <g>
  <path style="opacity:0.004" fill="#f1f2f2" d="M 868.5,281.5 C 869.833,282.167 869.833,282.167 868.5,281.5 Z"/>
 </g>
 <g>
  <path style="opacity:0.004" fill="#f1f1f0" d="M 145.5,299.5 C 146.833,300.167 146.833,300.167 145.5,299.5 Z"/>
 </g>
 <g>
  <path style="opacity:0.004" fill="#f1f4f1" d="M 883.5,306.5 C 884.833,307.167 884.833,307.167 883.5,306.5 Z"/>
 </g>
 <g>
  <path style="opacity:0.004" fill="#f1f3f2" d="M 885.5,310.5 C 886.833,311.167 886.833,311.167 885.5,310.5 Z"/>
 </g>
 <g>
  <path style="opacity:1" fill="#fefefe" d="M 494.5,322.5 C 558.036,320.136 617.702,333.969 673.5,364C 695.409,376.24 713.909,392.407 729,412.5C 754.886,454.968 753.22,496.301 724,536.5C 696.496,566.928 662.496,586.261 622,594.5C 608.424,593.59 600.591,586.423 598.5,573C 599.582,565.169 603.249,558.836 609.5,554C 629.675,548.914 649.008,541.58 667.5,532C 683.156,522.678 694.989,509.845 703,493.5C 705.385,486.469 706.885,479.302 707.5,472C 705.865,457.764 700.698,444.931 692,433.5C 670.799,410.324 645.299,393.491 615.5,383C 542.776,357.508 470.443,358.842 398.5,387C 374.233,397.538 353.067,412.371 335,431.5C 312.384,462.491 314.884,491.324 342.5,518C 349.6,522.436 356.1,527.603 362,533.5C 369.616,549.446 365.116,560.612 348.5,567C 341.347,568.173 334.681,566.84 328.5,563C 284.018,532.485 268.851,490.985 283,438.5C 292.59,413.832 308.09,393.666 329.5,378C 362.582,354.287 399.249,338.287 439.5,330C 457.838,326.418 476.172,323.918 494.5,322.5 Z"/>
 </g>
 <g>
  <path style="opacity:0.004" fill="#f2f4f2" d="M 131.5,325.5 C 132.833,326.167 132.833,326.167 131.5,325.5 Z"/>
 </g>
 <g>
  <path style="opacity:0.004" fill="#f0f2f1" d="M 901.5,342.5 C 902.833,343.167 902.833,343.167 901.5,342.5 Z"/>
 </g>
 <g>
  <path style="opacity:0.004" fill="#f2f5f5" d="M 902.5,345.5 C 903.833,346.167 903.833,346.167 902.5,345.5 Z"/>
 </g>
 <g>
  <path style="opacity:0.008" fill="#f1f3f3" d="M 907.5,357.5 C 908.833,358.167 908.833,358.167 907.5,357.5 Z"/>
 </g>
 <g>
  <path style="opacity:0.004" fill="#f3f7f4" d="M 114.5,364.5 C 115.833,365.167 115.833,365.167 114.5,364.5 Z"/>
 </g>
 <g>
  <path style="opacity:0.004" fill="#f6f5f5" d="M 917.5,386.5 C 918.833,387.167 918.833,387.167 917.5,386.5 Z"/>
 </g>
 <g>
  <path style="opacity:0.004" fill="#f4f7f6" d="M 921.5,400.5 C 922.833,401.167 922.833,401.167 921.5,400.5 Z"/>
 </g>
 <g>
  <path style="opacity:0.004" fill="#f6f8f9" d="M 97.5,423.5 C 98.8333,424.167 98.8333,424.167 97.5,423.5 Z"/>
 </g>
 <g>
  <path style="opacity:0.008" fill="#f8fbf8" d="M 95.5,432.5 C 96.8333,433.167 96.8333,433.167 95.5,432.5 Z"/>
 </g>
 <g>
  <path style="opacity:0.004" fill="#f7f8f7" d="M 929.5,436.5 C 930.833,437.167 930.833,437.167 929.5,436.5 Z"/>
 </g>
 <g>
  <path style="opacity:1" fill="#fefefe" d="M 541.5,445.5 C 568.117,444.109 583.45,456.443 587.5,482.5C 586.869,493.561 583.369,503.561 577,512.5C 552.609,535.89 528.442,559.723 504.5,584C 530.53,609.699 556.363,635.199 582,660.5C 592.272,675.676 591.605,690.343 580,704.5C 570.859,713.57 559.859,718.903 547,720.5C 541.101,719.867 535.601,718.034 530.5,715C 494.652,680.318 458.652,645.818 422.5,611.5C 410.788,598.098 407.621,583.098 413,566.5C 415.398,560.704 418.564,555.37 422.5,550.5C 456.765,516.731 491.432,483.564 526.5,451C 531.4,448.647 536.4,446.814 541.5,445.5 Z"/>
 </g>
 <g>
  <path style="opacity:0.004" fill="#f8f9f8" d="M 932.5,457.5 C 933.833,458.167 933.833,458.167 932.5,457.5 Z"/>
 </g>
 <g>
  <path style="opacity:0.004" fill="#f8f7f8" d="M 90.5,465.5 C 91.8333,466.167 91.8333,466.167 90.5,465.5 Z"/>
 </g>
 <g>
  <path style="opacity:0.004" fill="#f7f7fa" d="M 934.5,473.5 C 935.525,473.897 935.692,474.563 935,475.5C 934.536,474.906 934.369,474.239 934.5,473.5 Z"/>
 </g>
 <g>
  <path style="opacity:0.008" fill="#f8f8fa" d="M 89.5,474.5 C 90.525,474.897 90.6917,475.563 90,476.5C 89.5357,475.906 89.369,475.239 89.5,474.5 Z"/>
 </g>
 <g>
  <path style="opacity:0.012" fill="#f9f9f9" d="M 934.5,479.5 C 935.622,481.288 935.789,483.288 935,485.5C 934.505,483.527 934.338,481.527 934.5,479.5 Z"/>
 </g>
 <g>
  <path style="opacity:0.004" fill="#f7f9f9" d="M 88.5,491.5 C 89.8333,492.167 89.8333,492.167 88.5,491.5 Z"/>
 </g>
 <g>
  <path style="opacity:0.006" fill="#f6f9f8" d="M 88.5,526.5 C 89.5735,527.251 89.7401,528.251 89,529.5C 88.5172,528.552 88.3505,527.552 88.5,526.5 Z"/>
 </g>
 <g>
  <path style="opacity:0.004" fill="#f6fcf8" d="M 88.5,535.5 C 89.8333,536.167 89.8333,536.167 88.5,535.5 Z"/>
 </g>
 <g>
  <path style="opacity:0.008" fill="#f9faf9" d="M 934.5,537.5 C 935.833,538.167 935.833,538.167 934.5,537.5 Z"/>
 </g>
 <g>
  <path style="opacity:0.004" fill="#f7faf7" d="M 89.5,541.5 C 90.8333,542.167 90.8333,542.167 89.5,541.5 Z"/>
 </g>
 <g>
  <path style="opacity:0.009" fill="#f6f7f8" d="M 89.5,543.5 C 90.6129,544.946 90.7796,546.613 90,548.5C 89.5065,546.866 89.3398,545.199 89.5,543.5 Z"/>
 </g>
 <g>
  <path style="opacity:0.004" fill="#f5f8f7" d="M 89.5,549.5 C 90.8333,550.167 90.8333,550.167 89.5,549.5 Z"/>
 </g>
 <g>
  <path style="opacity:0.004" fill="#f7f7f7" d="M 90.5,555.5 C 91.8333,556.167 91.8333,556.167 90.5,555.5 Z"/>
 </g>
 <g>
  <path style="opacity:0.004" fill="#f5faf7" d="M 90.5,557.5 C 91.8333,558.167 91.8333,558.167 90.5,557.5 Z"/>
 </g>
 <g>
  <path style="opacity:0.004" fill="#f6f9f8" d="M 932.5,557.5 C 933.833,558.167 933.833,558.167 932.5,557.5 Z"/>
 </g>
 <g>
  <path style="opacity:0.008" fill="#f6f8f7" d="M 91.5,563.5 C 92.8333,564.167 92.8333,564.167 91.5,563.5 Z"/>
 </g>
 <g>
  <path style="opacity:0.004" fill="#f7faf9" d="M 931.5,564.5 C 932.833,565.167 932.833,565.167 931.5,564.5 Z"/>
 </g>
 <g>
  <path style="opacity:0.004" fill="#f8f9f9" d="M 931.5,566.5 C 932.833,567.167 932.833,567.167 931.5,566.5 Z"/>
 </g>
 <g>
  <path style="opacity:0.005" fill="#f5f6f6" d="M 92.5,570.5 C 93.5983,571.601 93.765,572.934 93,574.5C 92.51,573.207 92.3433,571.873 92.5,570.5 Z"/>
 </g>
 <g>
  <path style="opacity:0.004" fill="#f5f7f6" d="M 925.5,597.5 C 926.833,598.167 926.833,598.167 925.5,597.5 Z"/>
 </g>
 <g>
  <path style="opacity:0.006" fill="#f6f6f7" d="M 97.5,599.5 C 98.525,599.897 98.6917,600.563 98,601.5C 97.5357,600.906 97.369,600.239 97.5,599.5 Z"/>
 </g>
 <g>
  <path style="opacity:0.004" fill="#f6f7f5" d="M 98.5,604.5 C 99.8333,605.167 99.8333,605.167 98.5,604.5 Z"/>
 </g>
 <g>
  <path style="opacity:0.004" fill="#f5f7f6" d="M 100.5,606.5 C 99.8333,607.167 99.8333,607.167 100.5,606.5 Z"/>
 </g>
 <g>
  <path style="opacity:0.004" fill="#f5f7f6" d="M 105.5,631.5 C 106.525,631.897 106.692,632.563 106,633.5C 105.536,632.906 105.369,632.239 105.5,631.5 Z"/>
 </g>
 <g>
  <path style="opacity:0.004" fill="#f4f5f5" d="M 106.5,635.5 C 107.833,636.167 107.833,636.167 106.5,635.5 Z"/>
 </g>
 <g>
  <path style="opacity:0.006" fill="#f5f6f5" d="M 915.5,637.5 C 916.525,637.897 916.692,638.563 916,639.5C 915.536,638.906 915.369,638.239 915.5,637.5 Z"/>
 </g>
 <g>
  <path style="opacity:0.004" fill="#f6f6f4" d="M 107.5,638.5 C 108.833,639.167 108.833,639.167 107.5,638.5 Z"/>
 </g>
 <g>
  <path style="opacity:0.004" fill="#f4f6f6" d="M 115.5,659.5 C 114.833,658.167 114.833,658.167 115.5,659.5 Z"/>
 </g>
 <g>
  <path style="opacity:0.008" fill="#f4f6f5" d="M 907.5,660.5 C 908.525,660.897 908.692,661.563 908,662.5C 907.536,661.906 907.369,661.239 907.5,660.5 Z"/>
 </g>
 <g>
  <path style="opacity:0.004" fill="#f3f3f2" d="M 904.5,668.5 C 905.833,669.167 905.833,669.167 904.5,668.5 Z"/>
 </g>
 <g>
  <path style="opacity:0.004" fill="#f3f2f4" d="M 127.5,689.5 C 128.525,689.897 128.692,690.563 128,691.5C 127.536,690.906 127.369,690.239 127.5,689.5 Z"/>
 </g>
 <g>
  <path style="opacity:0.004" fill="#f1f5f3" d="M 129.5,693.5 C 130.833,694.167 130.833,694.167 129.5,693.5 Z"/>
 </g>
 <g>
  <path style="opacity:0.004" fill="#f4f5f5" d="M 132.5,696.5 C 131.833,697.167 131.833,697.167 132.5,696.5 Z"/>
 </g>
 <g>
  <path style="opacity:0.004" fill="#f1f3f2" d="M 136.5,706.5 C 135.833,705.167 135.833,705.167 136.5,706.5 Z"/>
 </g>
 <g>
  <path style="opacity:0.004" fill="#f2f2f4" d="M 136.5,706.5 C 136.833,706.5 137.167,706.5 137.5,706.5C 137.167,709.167 136.833,709.167 136.5,706.5 Z"/>
 </g>
 <g>
  <path style="opacity:0.008" fill="#f1f5f3" d="M 137.5,709.5 C 138.833,710.167 138.833,710.167 137.5,709.5 Z"/>
 </g>
 <g>
  <path style="opacity:0.008" fill="#f3f4f3" d="M 140.5,712.5 C 139.833,713.167 139.833,713.167 140.5,712.5 Z"/>
 </g>
 <g>
  <path style="opacity:0.004" fill="#f1f4f3" d="M 881.5,716.5 C 882.833,717.167 882.833,717.167 881.5,716.5 Z"/>
 </g>
 <g>
  <path style="opacity:0.004" fill="#eff2f1" d="M 883.5,717.5 C 884.833,718.167 884.833,718.167 883.5,717.5 Z"/>
 </g>
 <g>
  <path style="opacity:0.004" fill="#f1f3f1" d="M 880.5,718.5 C 881.833,719.167 881.833,719.167 880.5,718.5 Z"/>
 </g>
 <g>
  <path style="opacity:0.004" fill="#f1f3f4" d="M 143.5,720.5 C 144.833,721.167 144.833,721.167 143.5,720.5 Z"/>
 </g>
 <g>
  <path style="opacity:0.004" fill="#f2f4f3" d="M 144.5,722.5 C 145.833,723.167 145.833,723.167 144.5,722.5 Z"/>
 </g>
 <g>
  <path style="opacity:0.004" fill="#f2f3f3" d="M 148.5,728.5 C 149.833,729.167 149.833,729.167 148.5,728.5 Z"/>
 </g>
 <g>
  <path style="opacity:0.004" fill="#f2f2f1" d="M 149.5,730.5 C 150.833,731.167 150.833,731.167 149.5,730.5 Z"/>
 </g>
 <g>
  <path style="opacity:0.008" fill="#f1f1f3" d="M 873.5,730.5 C 874.833,731.167 874.833,731.167 873.5,730.5 Z"/>
 </g>
 <g>
  <path style="opacity:0.006" fill="#f0f3f2" d="M 152.5,737.5 C 152.897,736.475 153.563,736.308 154.5,737C 153.906,737.464 153.239,737.631 152.5,737.5 Z"/>
 </g>
 <g>
  <path style="opacity:0.008" fill="#f1f2ef" d="M 870.5,737.5 C 871.833,738.167 871.833,738.167 870.5,737.5 Z"/>
 </g>
 <g>
  <path style="opacity:0.004" fill="#eef2f1" d="M 153.5,738.5 C 154.833,739.167 154.833,739.167 153.5,738.5 Z"/>
 </g>
 <g>
  <path style="opacity:0.008" fill="#f1f5f5" d="M 156.5,739.5 C 155.833,740.167 155.833,740.167 156.5,739.5 Z"/>
 </g>
 <g>
  <path style="opacity:0.004" fill="#f0f3f1" d="M 156.5,741.5 C 157.833,742.167 157.833,742.167 156.5,741.5 Z"/>
 </g>
 <g>
  <path style="opacity:0.004" fill="#eff1f1" d="M 869.5,741.5 C 870.833,742.167 870.833,742.167 869.5,741.5 Z"/>
 </g>
 <g>
  <path style="opacity:0.008" fill="#f3f6f5" d="M 160.5,747.5 C 161.833,748.167 161.833,748.167 160.5,747.5 Z"/>
 </g>
 <g>
  <path style="opacity:0.004" fill="#f0f5f3" d="M 860.5,750.5 C 861.833,751.167 861.833,751.167 860.5,750.5 Z"/>
 </g>
 <g>
  <path style="opacity:0.004" fill="#f3f2f0" d="M 854.5,758.5 C 855.833,759.167 855.833,759.167 854.5,758.5 Z"/>
 </g>
 <g>
  <path style="opacity:0.008" fill="#f2f4f4" d="M 846.5,769.5 C 847.833,770.167 847.833,770.167 846.5,769.5 Z"/>
 </g>
 <g>
  <path style="opacity:0.008" fill="#f3f5f3" d="M 178.5,770.5 C 177.833,771.167 177.833,771.167 178.5,770.5 Z"/>
 </g>
 <g>
  <path style="opacity:0.004" fill="#f2f3f3" d="M 184.5,777.5 C 183.833,778.167 183.833,778.167 184.5,777.5 Z"/>
 </g>
 <g>
  <path style="opacity:0.004" fill="#f0f3f3" d="M 183.5,780.5 C 184.833,781.167 184.833,781.167 183.5,780.5 Z"/>
 </g>
 <g>
  <path style="opacity:0.004" fill="#f1f3f4" d="M 186.5,780.5 C 187.167,780.5 187.5,780.833 187.5,781.5C 187.44,782.043 187.107,782.376 186.5,782.5C 185.227,781.743 185.227,781.077 186.5,780.5 Z"/>
 </g>
 <g>
  <path style="opacity:0.004" fill="#f2f7f1" d="M 814.5,806.5 C 815.833,807.167 815.833,807.167 814.5,806.5 Z"/>
 </g>
 <g>
  <path style="opacity:0.004" fill="#f0f3f0" d="M 811.5,810.5 C 812.833,811.167 812.833,811.167 811.5,810.5 Z"/>
 </g>
 <g>
  <path style="opacity:0.004" fill="#f3f4f3" d="M 805.5,815.5 C 806.833,816.167 806.833,816.167 805.5,815.5 Z"/>
 </g>
 <g>
  <path style="opacity:0.004" fill="#eef2f1" d="M 229.5,825.5 C 228.833,826.167 228.833,826.167 229.5,825.5 Z"/>
 </g>
 <g>
  <path style="opacity:0.008" fill="#eff6f3" d="M 232.5,829.5 C 233.833,830.167 233.833,830.167 232.5,829.5 Z"/>
 </g>
 <g>
  <path style="opacity:0.008" fill="#f1f5f4" d="M 242.5,836.5 C 241.833,837.167 241.833,837.167 242.5,836.5 Z"/>
 </g>
 <g>
  <path style="opacity:0.004" fill="#f0f4f4" d="M 249.5,842.5 C 248.833,843.167 248.833,843.167 249.5,842.5 Z"/>
 </g>
 <g>
  <path style="opacity:0.004" fill="#f2f3f3" d="M 759.5,854.5 C 760.833,855.167 760.833,855.167 759.5,854.5 Z"/>
 </g>
 <g>
  <path style="opacity:0.004" fill="#f0f2f0" d="M 268.5,857.5 C 269.833,858.167 269.833,858.167 268.5,857.5 Z"/>
 </g>
 <g>
  <path style="opacity:0.008" fill="#eff1f1" d="M 274.5,860.5 C 273.833,861.167 273.833,861.167 274.5,860.5 Z"/>
 </g>
 <g>
  <path style="opacity:0.004" fill="#f0f3f1" d="M 737.5,869.5 C 738.833,870.167 738.833,870.167 737.5,869.5 Z"/>
 </g>
 <g>
  <path style="opacity:0.004" fill="#eff2f1" d="M 740.5,869.5 C 741.833,870.167 741.833,870.167 740.5,869.5 Z"/>
 </g>
 <g>
  <path style="opacity:0.004" fill="#f1f2f0" d="M 730.5,873.5 C 731.833,874.167 731.833,874.167 730.5,873.5 Z"/>
 </g>
 <g>
  <path style="opacity:0.004" fill="#f2f3f4" d="M 298.5,875.5 C 298.103,876.525 297.437,876.692 296.5,876C 297.094,875.536 297.761,875.369 298.5,875.5 Z"/>
 </g>
 <g>
  <path style="opacity:0.004" fill="#f0f4f2" d="M 309.5,882.5 C 310.833,883.167 310.833,883.167 309.5,882.5 Z"/>
 </g>
 <g>
  <path style="opacity:0.008" fill="#eff2f1" d="M 314.5,884.5 C 313.833,885.167 313.833,885.167 314.5,884.5 Z"/>
 </g>
 <g>
  <path style="opacity:0.004" fill="#f1f3f2" d="M 324.5,890.5 C 325.833,891.167 325.833,891.167 324.5,890.5 Z"/>
 </g>
 <g>
  <path style="opacity:0.004" fill="#f2f2f3" d="M 699.5,890.5 C 700.833,891.167 700.833,891.167 699.5,890.5 Z"/>
 </g>
 <g>
  <path style="opacity:0.004" fill="#f0f2f1" d="M 702.5,890.5 C 703.833,891.167 703.833,891.167 702.5,890.5 Z"/>
 </g>
 <g>
  <path style="opacity:0.004" fill="#eff3f3" d="M 329.5,892.5 C 330.833,893.167 330.833,893.167 329.5,892.5 Z"/>
 </g>
 <g>
  <path style="opacity:0.004" fill="#f0f3f3" d="M 695.5,892.5 C 696.833,893.167 696.833,893.167 695.5,892.5 Z"/>
 </g>
 <g>
  <path style="opacity:0.004" fill="#f0f3f2" d="M 684.5,897.5 C 685.833,898.167 685.833,898.167 684.5,897.5 Z"/>
 </g>
 <g>
  <path style="opacity:0.004" fill="#f2f4f4" d="M 346.5,899.5 C 346.103,900.525 345.437,900.692 344.5,900C 345.094,899.536 345.761,899.369 346.5,899.5 Z"/>
 </g>
 <g>
  <path style="opacity:0.004" fill="#f0f2f2" d="M 679.5,900.5 C 680.833,901.167 680.833,901.167 679.5,900.5 Z"/>
 </g>
 <g>
  <path style="opacity:0.008" fill="#f1f2f3" d="M 360.5,905.5 C 361.473,905.987 362.473,906.487 363.5,907C 361.843,907.725 360.843,907.225 360.5,905.5 Z"/>
 </g>
 <g>
  <path style="opacity:0.004" fill="#f2f4f2" d="M 662.5,906.5 C 663.833,907.167 663.833,907.167 662.5,906.5 Z"/>
 </g>
 <g>
  <path style="opacity:0.004" fill="#f1f3f3" d="M 367.5,908.5 C 368.833,909.167 368.833,909.167 367.5,908.5 Z"/>
 </g>
 <g>
  <path style="opacity:0.008" fill="#f0f4f3" d="M 370.5,908.5 C 369.833,909.167 369.833,909.167 370.5,908.5 Z"/>
 </g>
 <g>
  <path style="opacity:0.004" fill="#f1f3f3" d="M 385.5,914.5 C 386.833,915.167 386.833,915.167 385.5,914.5 Z"/>
 </g>
 <g>
  <path style="opacity:0.004" fill="#f4f6f5" d="M 627.5,917.5 C 628.833,918.167 628.833,918.167 627.5,917.5 Z"/>
 </g>
 <g>
  <path style="opacity:0.008" fill="#f2f5f3" d="M 417.5,922.5 C 418.833,923.167 418.833,923.167 417.5,922.5 Z"/>
 </g>
 <g>
  <path style="opacity:0.008" fill="#f5f6f6" d="M 607.5,922.5 C 608.833,923.167 608.833,923.167 607.5,922.5 Z"/>
 </g>
 <g>
  <path style="opacity:0.004" fill="#f4f5f6" d="M 425.5,924.5 C 426.833,925.167 426.833,925.167 425.5,924.5 Z"/>
 </g>
 <g>
  <path style="opacity:0.008" fill="#f3f5f5" d="M 599.5,924.5 C 600.833,925.167 600.833,925.167 599.5,924.5 Z"/>
 </g>
 <g>
  <path style="opacity:0.012" fill="#f4f8f6" d="M 431.5,925.5 C 432.833,926.167 432.833,926.167 431.5,925.5 Z"/>
 </g>
 <g>
  <path style="opacity:0.008" fill="#f4f5f4" d="M 436.5,926.5 C 437.833,927.167 437.833,927.167 436.5,926.5 Z"/>
 </g>
 <g>
  <path style="opacity:0.012" fill="#f3f4f7" d="M 584.5,926.5 C 585.833,927.167 585.833,927.167 584.5,926.5 Z"/>
 </g>
 <g>
  <path style="opacity:0.004" fill="#f5f6f6" d="M 586.5,927.5 C 586.897,926.475 587.563,926.308 588.5,927C 587.906,927.464 587.239,927.631 586.5,927.5 Z"/>
 </g>
 <g>
  <path style="opacity:0.004" fill="#f3f6f3" d="M 589.5,926.5 C 590.833,927.167 590.833,927.167 589.5,926.5 Z"/>
 </g>
 <g>
  <path style="opacity:0.006" fill="#f4f5f5" d="M 457.5,930.5 C 457.897,929.475 458.563,929.308 459.5,930C 458.906,930.464 458.239,930.631 457.5,930.5 Z"/>
 </g>
 <g>
  <path style="opacity:0.004" fill="#f4f5f5" d="M 463.5,931.5 C 464.251,930.427 465.251,930.26 466.5,931C 465.552,931.483 464.552,931.649 463.5,931.5 Z"/>
 </g>
 <g>
  <path style="opacity:0.004" fill="#f4f6f6" d="M 472.5,931.5 C 473.833,932.167 473.833,932.167 472.5,931.5 Z"/>
 </g>
 <g>
  <path style="opacity:0.004" fill="#f5f6f6" d="M 474.5,931.5 C 475.833,932.167 475.833,932.167 474.5,931.5 Z"/>
 </g>
 <g>
  <path style="opacity:0.008" fill="#f5f6f7" d="M 476.5,931.5 C 477.833,932.167 477.833,932.167 476.5,931.5 Z"/>
 </g>
 <g>
  <path style="opacity:0.004" fill="#f2f7f6" d="M 548.5,931.5 C 549.833,932.167 549.833,932.167 548.5,931.5 Z"/>
 </g>
 <g>
  <path style="opacity:0.004" fill="#f4f6f5" d="M 487.5,932.5 C 488.833,933.167 488.833,933.167 487.5,932.5 Z"/>
 </g>
 <g>
  <path style="opacity:0.004" fill="#f2f6f6" d="M 497.5,932.5 C 498.833,933.167 498.833,933.167 497.5,932.5 Z"/>
 </g>
 <g>
  <path style="opacity:0.004" fill="#f4f5f6" d="M 499.5,932.5 C 500.833,933.167 500.833,933.167 499.5,932.5 Z"/>
 </g>
 <g>
  <path style="opacity:0.004" fill="#f4f6f6" d="M 527.5,932.5 C 528.833,933.167 528.833,933.167 527.5,932.5 Z"/>
 </g>
 <g>
  <path style="opacity:0.008" fill="#f4f4f6" d="M 529.5,932.5 C 530.833,933.167 530.833,933.167 529.5,932.5 Z"/>
 </g>
 <g>
  <path style="opacity:0.006" fill="#f6f7f7" d="M 535.5,933.5 C 535.897,932.475 536.563,932.308 537.5,933C 536.906,933.464 536.239,933.631 535.5,933.5 Z"/>
 </g>
</svg>
