<?xml version='1.0' encoding='UTF-8'?>
<!DOCTYPE svg PUBLIC '-//W3C//DTD SVG 1.1//EN' 'http://www.w3.org/Graphics/SVG/1.1/DTD/svg11.dtd'>
<svg xmlns:xlink="http://www.w3.org/1999/xlink" style="shape-rendering:geometricPrecision; text-rendering:geometricPrecision; image-rendering:optimizeQuality; fill-rule:evenodd; clip-rule:evenodd" width="1024px" height="1024px" xmlns="http://www.w3.org/2000/svg" version="1.1">
 <g>
  <path style="opacity:0.004" fill="#0c0d0b" d="M 419.5,5.5 C 420.833,6.16667 420.833,6.16667 419.5,5.5 Z"/>
 </g>
 <g>
  <path style="opacity:0.004" fill="#040604" d="M 659.5,13.5 C 660.833,14.1667 660.833,14.1667 659.5,13.5 Z"/>
 </g>
 <g>
  <path style="opacity:0.004" fill="#000000" d="M 723.5,13.5 C 724.833,14.1667 724.833,14.1667 723.5,13.5 Z"/>
 </g>
 <g>
  <path style="opacity:0.004" fill="#070a08" d="M 307.5,53.5 C 308.833,54.1667 308.833,54.1667 307.5,53.5 Z"/>
 </g>
 <g>
  <path style="opacity:0.004" fill="#000200" d="M 795.5,61.5 C 796.833,62.1667 796.833,62.1667 795.5,61.5 Z"/>
 </g>
 <g>
  <path style="opacity:0.004" fill="#000000" d="M 963.5,101.5 C 964.833,102.167 964.833,102.167 963.5,101.5 Z"/>
 </g>
 <g>
  <path style="opacity:0.004" fill="#212222" d="M 259.5,141.5 C 260.833,142.167 260.833,142.167 259.5,141.5 Z"/>
 </g>
 <g>
  <path style="opacity:0.004" fill="#f1f3f4" d="M 472.5,200.5 C 472.897,199.475 473.563,199.308 474.5,200C 473.906,200.464 473.239,200.631 472.5,200.5 Z"/>
 </g>
 <g>
  <path style="opacity:0.996" fill="#fdfefe" d="M 545.5,200.5 C 559.681,202.339 573.848,205.005 588,208.5C 588.772,208.355 589.439,208.022 590,207.5C 592.727,209.41 595.727,210.744 599,211.5C 599.667,208.833 600.333,208.833 601,211.5C 608.833,214.026 617,216.693 625.5,219.5C 643.778,226.805 661.445,235.472 678.5,245.5C 681.291,247.735 684.291,249.735 687.5,251.5C 692.32,255.078 697.32,258.412 702.5,261.5C 714.142,271.471 725.808,281.471 737.5,291.5C 737.833,292.5 738.5,293.167 739.5,293.5C 742.101,297.771 745.434,301.437 749.5,304.5C 782.809,343.779 806.143,388.446 819.5,438.5C 836.96,517.629 826.627,593.295 788.5,665.5C 778.246,682.343 767.246,698.676 755.5,714.5C 753.086,715.911 751.419,717.911 750.5,720.5C 740.628,731.109 730.295,741.276 719.5,751C 709.979,758.364 700.645,765.864 691.5,773.5C 687.951,774.723 684.951,776.723 682.5,779.5C 680.973,779.427 679.973,780.094 679.5,781.5C 674.976,783.043 670.976,785.377 667.5,788.5C 649.544,797.812 631.211,806.145 612.5,813.5C 552.412,832.198 492.412,833.864 432.5,818.5C 417.037,813.789 401.704,808.456 386.5,802.5C 380.577,798.48 374.244,795.98 367.5,795C 368.167,794.667 368.833,794.333 369.5,794C 361.594,789.244 353.594,784.744 345.5,780.5C 341.024,776.425 336.024,773.092 330.5,770.5C 328.23,768.025 325.563,766.025 322.5,764.5C 308.894,752.899 295.561,740.899 282.5,728.5C 280.212,724.544 277.212,721.211 273.5,718.5C 266.469,709.143 259.469,699.81 252.5,690.5C 245.901,680.298 239.568,669.964 233.5,659.5C 228.289,648.507 223.289,637.507 218.5,626.5C 217.208,621.618 215.541,616.952 213.5,612.5C 213.072,609.215 212.072,606.215 210.5,603.5C 184.084,503.328 200.418,410.661 259.5,325.5C 269.137,314.192 278.804,302.858 288.5,291.5C 294.75,286.921 300.416,281.587 305.5,275.5C 307.23,274.974 308.564,273.974 309.5,272.5C 313.12,270.547 316.12,267.881 318.5,264.5C 322.707,262.565 326.373,259.898 329.5,256.5C 331.404,256.262 332.738,255.262 333.5,253.5C 335.027,253.573 336.027,252.906 336.5,251.5C 345.841,245.83 355.175,240.163 364.5,234.5C 366.153,234.34 367.486,233.674 368.5,232.5C 424.506,205.633 483.506,194.967 545.5,200.5 Z"/>
 </g>
 <g>
  <path style="opacity:0.008" fill="#edf2f2" d="M 545.5,199.5 C 546.833,200.167 546.833,200.167 545.5,199.5 Z"/>
 </g>
 <g>
  <path style="opacity:0.008" fill="#f0f1f2" d="M 548.5,200.5 C 549.251,199.427 550.251,199.26 551.5,200C 550.552,200.483 549.552,200.649 548.5,200.5 Z"/>
 </g>
 <g>
  <path style="opacity:0.004" fill="#f0f2f1" d="M 557.5,200.5 C 558.833,201.167 558.833,201.167 557.5,200.5 Z"/>
 </g>
 <g>
  <path style="opacity:0.004" fill="#eef2ef" d="M 443.5,204.5 C 444.833,205.167 444.833,205.167 443.5,204.5 Z"/>
 </g>
 <g>
  <path style="opacity:0.004" fill="#edf1f1" d="M 579.5,204.5 C 580.833,205.167 580.833,205.167 579.5,204.5 Z"/>
 </g>
 <g>
  <path style="opacity:0.004" fill="#edf4ef" d="M 592.5,207.5 C 593.833,208.167 593.833,208.167 592.5,207.5 Z"/>
 </g>
 <g>
  <path style="opacity:0.004" fill="#edf1f2" d="M 595.5,208.5 C 594.833,207.167 594.833,207.167 595.5,208.5 Z"/>
 </g>
 <g>
  <path style="opacity:0.008" fill="#eef3f2" d="M 427.5,208.5 C 428.833,209.167 428.833,209.167 427.5,208.5 Z"/>
 </g>
 <g>
  <path style="opacity:0.004" fill="#ecf1f1" d="M 595.5,208.5 C 596.833,209.167 596.833,209.167 595.5,208.5 Z"/>
 </g>
 <g>
  <path style="opacity:0.004" fill="#edf0ef" d="M 597.5,208.5 C 598.833,209.167 598.833,209.167 597.5,208.5 Z"/>
 </g>
 <g>
  <path style="opacity:0.004" fill="#edf1f1" d="M 422.5,209.5 C 423.833,210.167 423.833,210.167 422.5,209.5 Z"/>
 </g>
 <g>
  <path style="opacity:0.004" fill="#eef1f3" d="M 424.5,209.5 C 425.833,210.167 425.833,210.167 424.5,209.5 Z"/>
 </g>
 <g>
  <path style="opacity:0.004" fill="#edf2f0" d="M 603.5,210.5 C 604.833,211.167 604.833,211.167 603.5,210.5 Z"/>
 </g>
 <g>
  <path style="opacity:0.004" fill="#edeef0" d="M 610.5,212.5 C 611.833,213.167 611.833,213.167 610.5,212.5 Z"/>
 </g>
 <g>
  <path style="opacity:0.004" fill="#edeff0" d="M 621.5,217.5 C 621.897,216.475 622.563,216.308 623.5,217C 622.906,217.464 622.239,217.631 621.5,217.5 Z"/>
 </g>
 <g>
  <path style="opacity:0.004" fill="#edf1f0" d="M 625.5,218.5 C 626.833,219.167 626.833,219.167 625.5,218.5 Z"/>
 </g>
 <g>
  <path style="opacity:0.999" fill="#3a89ac" d="M 487.5,222.5 C 590.183,216.781 674.683,252.781 741,330.5C 801.52,410.102 818.853,498.436 793,595.5C 766.44,680.194 713.273,741.694 633.5,780C 554.392,814.632 475.058,814.966 395.5,781C 306.178,738.34 250.012,668.84 227,572.5C 207.982,463.433 238.482,370.933 318.5,295C 366.928,252.682 423.262,228.515 487.5,222.5 Z"/>
 </g>
 <g>
  <path style="opacity:0.004" fill="#eaf1f0" d="M 645.5,226.5 C 644.833,225.167 644.833,225.167 645.5,226.5 Z"/>
 </g>
 <g>
  <path style="opacity:0.004" fill="#ebeff0" d="M 376.5,226.5 C 377.833,227.167 377.833,227.167 376.5,226.5 Z"/>
 </g>
 <g>
  <path style="opacity:0.004" fill="#eeeff0" d="M 645.5,226.5 C 646.363,225.537 647.03,225.537 647.5,226.5C 646.743,227.773 646.077,227.773 645.5,226.5 Z"/>
 </g>
 <g>
  <path style="opacity:0.008" fill="#ecf0f1" d="M 368.5,232.5 C 367.833,231.167 367.833,231.167 368.5,232.5 Z"/>
 </g>
 <g>
  <path style="opacity:0.004" fill="#edeef1" d="M 364.5,234.5 C 363.833,233.167 363.833,233.167 364.5,234.5 Z"/>
 </g>
 <g>
  <path style="opacity:0.008" fill="#e9eeee" d="M 359.5,234.5 C 360.833,235.167 360.833,235.167 359.5,234.5 Z"/>
 </g>
 <g>
  <path style="opacity:0.008" fill="#ebf0ef" d="M 361.5,234.5 C 362.833,235.167 362.833,235.167 361.5,234.5 Z"/>
 </g>
 <g>
  <path style="opacity:0.012" fill="#e9eeee" d="M 352.5,239.5 C 353.833,240.167 353.833,240.167 352.5,239.5 Z"/>
 </g>
 <g>
  <path style="opacity:0.004" fill="#ecf1f0" d="M 674.5,241.5 C 675.833,242.167 675.833,242.167 674.5,241.5 Z"/>
 </g>
 <g>
  <path style="opacity:0.004" fill="#eceeef" d="M 345.5,243.5 C 346.833,244.167 346.833,244.167 345.5,243.5 Z"/>
 </g>
 <g>
  <path style="opacity:0.004" fill="#ebefef" d="M 343.5,244.5 C 344.833,245.167 344.833,245.167 343.5,244.5 Z"/>
 </g>
 <g>
  <path style="opacity:0.004" fill="#efefef" d="M 678.5,244.5 C 679.833,245.167 679.833,245.167 678.5,244.5 Z"/>
 </g>
 <g>
  <path style="opacity:0.016" fill="#eef0f1" d="M 336.5,251.5 C 335.833,250.167 335.833,250.167 336.5,251.5 Z"/>
 </g>
 <g>
  <path style="opacity:0.008" fill="#ecefef" d="M 687.5,250.5 C 688.833,251.167 688.833,251.167 687.5,250.5 Z"/>
 </g>
 <g>
  <path style="opacity:0.004" fill="#eaedee" d="M 333.5,253.5 C 332.833,252.167 332.833,252.167 333.5,253.5 Z"/>
 </g>
 <g>
  <path style="opacity:0.008" fill="#eaf0ef" d="M 329.5,256.5 C 328.833,255.167 328.833,255.167 329.5,256.5 Z"/>
 </g>
 <g>
  <path style="opacity:0.004" fill="#ecf1f0" d="M 702.5,260.5 C 703.833,261.167 703.833,261.167 702.5,260.5 Z"/>
 </g>
 <g>
  <path style="opacity:0.004" fill="#ebeff0" d="M 318.5,264.5 C 317.833,263.167 317.833,263.167 318.5,264.5 Z"/>
 </g>
 <g>
  <path style="opacity:0.004" fill="#ebeeee" d="M 314.5,265.5 C 315.833,266.167 315.833,266.167 314.5,265.5 Z"/>
 </g>
 <g>
  <path style="opacity:0.004" fill="#eceeef" d="M 311.5,266.5 C 312.525,266.897 312.692,267.563 312,268.5C 311.536,267.906 311.369,267.239 311.5,266.5 Z"/>
 </g>
 <g>
  <path style="opacity:0.008" fill="#ecf1f1" d="M 309.5,272.5 C 308.833,271.167 308.833,271.167 309.5,272.5 Z"/>
 </g>
 <g>
  <path style="opacity:0.004" fill="#eff2f3" d="M 305.5,275.5 C 304.761,275.631 304.094,275.464 303.5,275C 304.437,274.308 305.103,274.475 305.5,275.5 Z"/>
 </g>
 <g>
  <path style="opacity:0.999" fill="#fefefe" d="M 497.5,276.5 C 582.598,273.812 651.431,305.479 704,371.5C 750.343,437.89 761.676,509.89 738,587.5C 710.444,664.722 657.611,715.889 579.5,741C 483.591,764.689 401.758,740.856 334,669.5C 278.87,603.205 262.537,528.205 285,444.5C 312.159,363.342 366.659,310.175 448.5,285C 464.752,280.848 481.086,278.014 497.5,276.5 Z"/>
 </g>
 <g>
  <path style="opacity:0.008" fill="#eff3f2" d="M 295.5,282.5 C 296.833,283.167 296.833,283.167 295.5,282.5 Z"/>
 </g>
 <g>
  <path style="opacity:0.004" fill="#ebefed" d="M 731.5,284.5 C 732.833,285.167 732.833,285.167 731.5,284.5 Z"/>
 </g>
 <g>
  <path style="opacity:0.004" fill="#edf0f0" d="M 288.5,291.5 C 287.833,290.167 287.833,290.167 288.5,291.5 Z"/>
 </g>
 <g>
  <path style="opacity:0.012" fill="#ecefef" d="M 737.5,290.5 C 738.833,291.167 738.833,291.167 737.5,290.5 Z"/>
 </g>
 <g>
  <path style="opacity:0.004" fill="#eaefed" d="M 739.5,292.5 C 740.833,293.167 740.833,293.167 739.5,292.5 Z"/>
 </g>
 <g>
  <path style="opacity:0.004" fill="#edf0f0" d="M 279.5,298.5 C 280.833,299.167 280.833,299.167 279.5,298.5 Z"/>
 </g>
 <g>
  <path style="opacity:0.999" fill="#3a89ac" d="M 500.5,301.5 C 582.992,299.824 647.159,332.824 693,400.5C 732.297,468.042 735.63,537.376 703,608.5C 665.67,678.095 607.503,717.262 528.5,726C 446.261,728.79 381.761,697.29 335,631.5C 295.282,566.107 289.615,497.774 318,426.5C 346.623,367.211 392.457,328.044 455.5,309C 470.469,305.427 485.469,302.927 500.5,301.5 Z"/>
 </g>
 <g>
  <path style="opacity:0.012" fill="#ebeff0" d="M 749.5,303.5 C 750.833,304.167 750.833,304.167 749.5,303.5 Z"/>
 </g>
 <g>
  <path style="opacity:0.004" fill="#ecf0ef" d="M 259.5,325.5 C 258.833,324.167 258.833,324.167 259.5,325.5 Z"/>
 </g>
 <g>
  <path style="opacity:0.004" fill="#e8ecea" d="M 774.5,332.5 C 775.833,333.167 775.833,333.167 774.5,332.5 Z"/>
 </g>
 <g>
  <path style="opacity:0.004" fill="#eceeee" d="M 251.5,333.5 C 252.833,334.167 252.833,334.167 251.5,333.5 Z"/>
 </g>
 <g>
  <path style="opacity:0.999" fill="#fefefe" d="M 515.5,338.5 C 531.418,338.834 542.918,345.5 550,358.5C 555.873,373.801 553.04,387.301 541.5,399C 524.786,410.96 508.786,410.127 493.5,396.5C 482.664,382.457 481.831,367.79 491,352.5C 497.597,344.793 505.763,340.127 515.5,338.5 Z"/>
 </g>
 <g>
  <path style="opacity:0.004" fill="#eaf0f0" d="M 247.5,339.5 C 248.833,340.167 248.833,340.167 247.5,339.5 Z"/>
 </g>
 <g>
  <path style="opacity:0.004" fill="#070a08" d="M 1003.5,349.5 C 1004.83,350.167 1004.83,350.167 1003.5,349.5 Z"/>
 </g>
 <g>
  <path style="opacity:0.004" fill="#ecf0f1" d="M 239.5,352.5 C 240.833,353.167 240.833,353.167 239.5,352.5 Z"/>
 </g>
 <g>
  <path style="opacity:0.008" fill="#eceeee" d="M 787.5,355.5 C 788.833,356.167 788.833,356.167 787.5,355.5 Z"/>
 </g>
 <g>
  <path style="opacity:0.008" fill="#ecf1f1" d="M 231.5,367.5 C 232.833,368.167 232.833,368.167 231.5,367.5 Z"/>
 </g>
 <g>
  <path style="opacity:0.004" fill="#edefef" d="M 796.5,373.5 C 797.833,374.167 797.833,374.167 796.5,373.5 Z"/>
 </g>
 <g>
  <path style="opacity:0.004" fill="#ecf0f0" d="M 797.5,375.5 C 798.833,376.167 798.833,376.167 797.5,375.5 Z"/>
 </g>
 <g>
  <path style="opacity:0.004" fill="#edf1f1" d="M 798.5,377.5 C 799.833,378.167 799.833,378.167 798.5,377.5 Z"/>
 </g>
 <g>
  <path style="opacity:0.004" fill="#ebf0f0" d="M 804.5,389.5 C 805.833,390.167 805.833,390.167 804.5,389.5 Z"/>
 </g>
 <g>
  <path style="opacity:0.004" fill="#eeeff0" d="M 813.5,414.5 C 814.525,414.897 814.692,415.563 814,416.5C 813.536,415.906 813.369,415.239 813.5,414.5 Z"/>
 </g>
 <g>
  <path style="opacity:0.999" fill="#fefefe" d="M 460.5,427.5 C 483.169,427.333 505.836,427.5 528.5,428C 538.567,430.4 545.067,436.566 548,446.5C 548.333,497.833 548.667,549.167 549,600.5C 549.574,602.492 550.741,603.992 552.5,605C 561.893,605.113 571.226,605.78 580.5,607C 593.688,612.869 599.521,623.036 598,637.5C 595.061,650.106 587.228,657.606 574.5,660C 537.5,660.667 500.5,660.667 463.5,660C 448.817,656.982 440.817,647.982 439.5,633C 440.556,619.287 447.556,610.287 460.5,606C 469.167,605.667 477.833,605.333 486.5,605C 488.049,603.786 489.215,602.286 490,600.5C 490.667,562.5 490.667,524.5 490,486.5C 489.215,484.714 488.049,483.214 486.5,482C 478.167,481.667 469.833,481.333 461.5,481C 448.795,478.293 441.629,470.46 440,457.5C 439.585,442.434 446.419,432.434 460.5,427.5 Z"/>
 </g>
 <g>
  <path style="opacity:0.008" fill="#f0f4f2" d="M 207.5,428.5 C 208.833,429.167 208.833,429.167 207.5,428.5 Z"/>
 </g>
 <g>
  <path style="opacity:0.004" fill="#eff0f1" d="M 819.5,438.5 C 819.459,434.757 820.126,434.59 821.5,438C 820.906,438.464 820.239,438.631 819.5,438.5 Z"/>
 </g>
 <g>
  <path style="opacity:0.004" fill="#edf0f2" d="M 820.5,440.5 C 821.833,441.167 821.833,441.167 820.5,440.5 Z"/>
 </g>
 <g>
  <path style="opacity:0.008" fill="#f0f3f3" d="M 203.5,443.5 C 204.573,444.251 204.74,445.251 204,446.5C 203.517,445.552 203.351,444.552 203.5,443.5 Z"/>
 </g>
 <g>
  <path style="opacity:0.004" fill="#f1f3f2" d="M 822.5,449.5 C 823.833,450.167 823.833,450.167 822.5,449.5 Z"/>
 </g>
 <g>
  <path style="opacity:0.004" fill="#eff4f3" d="M 202.5,450.5 C 203.833,451.167 203.833,451.167 202.5,450.5 Z"/>
 </g>
 <g>
  <path style="opacity:0.004" fill="#f2f6f5" d="M 200.5,458.5 C 201.833,459.167 201.833,459.167 200.5,458.5 Z"/>
 </g>
 <g>
  <path style="opacity:0.008" fill="#f3f5f7" d="M 199.5,464.5 C 200.833,465.167 200.833,465.167 199.5,464.5 Z"/>
 </g>
 <g>
  <path style="opacity:0.004" fill="#edefee" d="M 825.5,464.5 C 826.833,465.167 826.833,465.167 825.5,464.5 Z"/>
 </g>
 <g>
  <path style="opacity:0.004" fill="#f2f5f7" d="M 199.5,466.5 C 200.833,467.167 200.833,467.167 199.5,466.5 Z"/>
 </g>
 <g>
  <path style="opacity:0.004" fill="#eef1f1" d="M 825.5,466.5 C 826.833,467.167 826.833,467.167 825.5,466.5 Z"/>
 </g>
 <g>
  <path style="opacity:0.004" fill="#eef1f2" d="M 827.5,476.5 C 828.525,476.897 828.692,477.563 828,478.5C 827.536,477.906 827.369,477.239 827.5,476.5 Z"/>
 </g>
 <g>
  <path style="opacity:0.004" fill="#eff3f0" d="M 827.5,482.5 C 828.833,483.167 828.833,483.167 827.5,482.5 Z"/>
 </g>
 <g>
  <path style="opacity:0.004" fill="#f0f2f1" d="M 827.5,484.5 C 828.833,485.167 828.833,485.167 827.5,484.5 Z"/>
 </g>
 <g>
  <path style="opacity:0.008" fill="#f0f3f3" d="M 828.5,493.5 C 829.525,493.897 829.692,494.563 829,495.5C 828.536,494.906 828.369,494.239 828.5,493.5 Z"/>
 </g>
 <g>
  <path style="opacity:0.004" fill="#f1f3f3" d="M 196.5,496.5 C 197.525,496.897 197.692,497.563 197,498.5C 196.536,497.906 196.369,497.239 196.5,496.5 Z"/>
 </g>
 <g>
  <path style="opacity:0.005" fill="#eff2f2" d="M 196.5,499.5 C 197.598,500.601 197.765,501.934 197,503.5C 196.51,502.207 196.343,500.873 196.5,499.5 Z"/>
 </g>
 <g>
  <path style="opacity:0.004" fill="#f0f4f4" d="M 196.5,504.5 C 197.833,505.167 197.833,505.167 196.5,504.5 Z"/>
 </g>
 <g>
  <path style="opacity:0.004" fill="#f1f3f4" d="M 196.5,517.5 C 197.525,517.897 197.692,518.563 197,519.5C 196.536,518.906 196.369,518.239 196.5,517.5 Z"/>
 </g>
 <g>
  <path style="opacity:0.004" fill="#f2f5f5" d="M 196.5,522.5 C 197.833,523.167 197.833,523.167 196.5,522.5 Z"/>
 </g>
 <g>
  <path style="opacity:0.004" fill="#f1f3f1" d="M 196.5,533.5 C 197.833,534.167 197.833,534.167 196.5,533.5 Z"/>
 </g>
 <g>
  <path style="opacity:0.009" fill="#f0f2f4" d="M 827.5,539.5 C 828.598,540.601 828.765,541.934 828,543.5C 827.51,542.207 827.343,540.873 827.5,539.5 Z"/>
 </g>
 <g>
  <path style="opacity:0.004" fill="#eef1f2" d="M 825.5,556.5 C 826.833,557.167 826.833,557.167 825.5,556.5 Z"/>
 </g>
 <g>
  <path style="opacity:0.004" fill="#eff4f5" d="M 199.5,557.5 C 200.833,558.167 200.833,558.167 199.5,557.5 Z"/>
 </g>
 <g>
  <path style="opacity:0.008" fill="#f1f3f5" d="M 200.5,564.5 C 201.525,564.897 201.692,565.563 201,566.5C 200.536,565.906 200.369,565.239 200.5,564.5 Z"/>
 </g>
 <g>
  <path style="opacity:0.005" fill="#f2f4f4" d="M 822.5,572.5 C 823.573,573.251 823.74,574.251 823,575.5C 822.517,574.552 822.351,573.552 822.5,572.5 Z"/>
 </g>
 <g>
  <path style="opacity:0.004" fill="#f1f3f4" d="M 201.5,570.5 C 202.598,571.601 202.765,572.934 202,574.5C 201.51,573.207 201.343,571.873 201.5,570.5 Z"/>
 </g>
 <g>
  <path style="opacity:0.004" fill="#f0f1f4" d="M 202.5,576.5 C 203.833,577.167 203.833,577.167 202.5,576.5 Z"/>
 </g>
 <g>
  <path style="opacity:0.008" fill="#f2f5f3" d="M 820.5,582.5 C 821.833,583.167 821.833,583.167 820.5,582.5 Z"/>
 </g>
 <g>
  <path style="opacity:0.008" fill="#f1f5f4" d="M 210.5,603.5 C 209.833,604.167 209.833,604.167 210.5,603.5 Z"/>
 </g>
 <g>
  <path style="opacity:0.004" fill="#eef2f2" d="M 210.5,609.5 C 211.833,610.167 211.833,610.167 210.5,609.5 Z"/>
 </g>
 <g>
  <path style="opacity:0.004" fill="#f1f4f4" d="M 212.5,612.5 C 211.833,611.167 211.833,611.167 212.5,612.5 Z"/>
 </g>
 <g>
  <path style="opacity:0.008" fill="#f0f2f3" d="M 212.5,612.5 C 212.833,612.5 213.167,612.5 213.5,612.5C 213.315,613.17 212.981,613.17 212.5,612.5 Z"/>
 </g>
 <g>
  <path style="opacity:0.004" fill="#f0f2f2" d="M 809.5,619.5 C 810.833,620.167 810.833,620.167 809.5,619.5 Z"/>
 </g>
 <g>
  <path style="opacity:0.012" fill="#f1f3f3" d="M 218.5,626.5 C 218.631,627.239 218.464,627.906 218,628.5C 217.308,627.563 217.475,626.897 218.5,626.5 Z"/>
 </g>
 <g>
  <path style="opacity:0.008" fill="#eff0f2" d="M 805.5,630.5 C 806.833,631.167 806.833,631.167 805.5,630.5 Z"/>
 </g>
 <g>
  <path style="opacity:0.004" fill="#ebf2f1" d="M 224.5,644.5 C 225.833,645.167 225.833,645.167 224.5,644.5 Z"/>
 </g>
 <g>
  <path style="opacity:0.012" fill="#eff1f1" d="M 798.5,646.5 C 799.833,647.167 799.833,647.167 798.5,646.5 Z"/>
 </g>
 <g>
  <path style="opacity:0.004" fill="#eef1f1" d="M 795.5,652.5 C 796.833,653.167 796.833,653.167 795.5,652.5 Z"/>
 </g>
 <g>
  <path style="opacity:0.004" fill="#eef0f0" d="M 232.5,659.5 C 231.833,658.167 231.833,658.167 232.5,659.5 Z"/>
 </g>
 <g>
  <path style="opacity:0.008" fill="#eef0f2" d="M 232.5,659.5 C 232.833,659.5 233.167,659.5 233.5,659.5C 233.315,660.17 232.981,660.17 232.5,659.5 Z"/>
 </g>
 <g>
  <path style="opacity:0.004" fill="#ebf4f0" d="M 790.5,662.5 C 791.833,663.167 791.833,663.167 790.5,662.5 Z"/>
 </g>
 <g>
  <path style="opacity:0.004" fill="#f0f4f2" d="M 788.5,665.5 C 789.833,666.167 789.833,666.167 788.5,665.5 Z"/>
 </g>
 <g>
  <path style="opacity:0.004" fill="#f1f4f3" d="M 787.5,668.5 C 788.833,669.167 788.833,669.167 787.5,668.5 Z"/>
 </g>
 <g>
  <path style="opacity:0.008" fill="#ecf1f0" d="M 239.5,672.5 C 240.833,673.167 240.833,673.167 239.5,672.5 Z"/>
 </g>
 <g>
  <path style="opacity:0.004" fill="#edf0f1" d="M 240.5,674.5 C 241.833,675.167 241.833,675.167 240.5,674.5 Z"/>
 </g>
 <g>
  <path style="opacity:0.004" fill="#eaf0f0" d="M 249.5,688.5 C 250.833,689.167 250.833,689.167 249.5,688.5 Z"/>
 </g>
 <g>
  <path style="opacity:0.004" fill="#edf0f2" d="M 252.5,690.5 C 251.833,691.167 251.833,691.167 252.5,690.5 Z"/>
 </g>
 <g>
  <path style="opacity:0.004" fill="#ecefef" d="M 755.5,714.5 C 756.833,715.167 756.833,715.167 755.5,714.5 Z"/>
 </g>
 <g>
  <path style="opacity:0.008" fill="#3a89ac" d="M 273.5,718.5 C 272.833,719.167 272.833,719.167 273.5,718.5 Z"/>
 </g>
 <g>
  <path style="opacity:0.004" fill="#edeff0" d="M 750.5,720.5 C 751.833,721.167 751.833,721.167 750.5,720.5 Z"/>
 </g>
 <g>
  <path style="opacity:0.004" fill="#e9eeee" d="M 276.5,723.5 C 277.833,724.167 277.833,724.167 276.5,723.5 Z"/>
 </g>
 <g>
  <path style="opacity:0.004" fill="#e8edeb" d="M 277.5,725.5 C 278.833,726.167 278.833,726.167 277.5,725.5 Z"/>
 </g>
 <g>
  <path style="opacity:0.012" fill="#eaeeee" d="M 282.5,728.5 C 281.833,729.167 281.833,729.167 282.5,728.5 Z"/>
 </g>
 <g>
  <path style="opacity:0.004" fill="#e9eceb" d="M 286.5,734.5 C 287.833,735.167 287.833,735.167 286.5,734.5 Z"/>
 </g>
 <g>
  <path style="opacity:0.004" fill="#ebf0ef" d="M 730.5,741.5 C 731.833,742.167 731.833,742.167 730.5,741.5 Z"/>
 </g>
 <g>
  <path style="opacity:0.004" fill="#eaeaeb" d="M 292.5,742.5 C 293.833,743.167 293.833,743.167 292.5,742.5 Z"/>
 </g>
 <g>
  <path style="opacity:0.004" fill="#e9edec" d="M 294.5,742.5 C 295.833,743.167 295.833,743.167 294.5,742.5 Z"/>
 </g>
 <g>
  <path style="opacity:0.004" fill="#eef1f2" d="M 726.5,745.5 C 727.833,746.167 727.833,746.167 726.5,745.5 Z"/>
 </g>
 <g>
  <path style="opacity:0.004" fill="#ecefed" d="M 717.5,753.5 C 718.833,754.167 718.833,754.167 717.5,753.5 Z"/>
 </g>
 <g>
  <path style="opacity:0.008" fill="#e9eeee" d="M 322.5,764.5 C 321.833,765.167 321.833,765.167 322.5,764.5 Z"/>
 </g>
 <g>
  <path style="opacity:0.004" fill="#ecf0ee" d="M 330.5,770.5 C 329.833,771.167 329.833,771.167 330.5,770.5 Z"/>
 </g>
 <g>
  <path style="opacity:0.004" fill="#ebefed" d="M 333.5,773.5 C 334.833,774.167 334.833,774.167 333.5,773.5 Z"/>
 </g>
 <g>
  <path style="opacity:0.004" fill="#f0f4f3" d="M 691.5,773.5 C 692.833,774.167 692.833,774.167 691.5,773.5 Z"/>
 </g>
 <g>
  <path style="opacity:0.008" fill="#eef1f0" d="M 682.5,779.5 C 683.833,780.167 683.833,780.167 682.5,779.5 Z"/>
 </g>
 <g>
  <path style="opacity:0.004" fill="#ecf0f1" d="M 345.5,780.5 C 345.5,780.833 345.5,781.167 345.5,781.5C 342.833,781.167 342.833,780.833 345.5,780.5 Z"/>
 </g>
 <g>
  <path style="opacity:0.008" fill="#e9eff0" d="M 345.5,781.5 C 346.167,781.5 346.5,781.833 346.5,782.5C 346.167,782.167 345.833,781.833 345.5,781.5 Z"/>
 </g>
 <g>
  <path style="opacity:0.008" fill="#edf0f0" d="M 679.5,781.5 C 680.833,782.167 680.833,782.167 679.5,781.5 Z"/>
 </g>
 <g>
  <path style="opacity:0.004" fill="#ebefef" d="M 346.5,782.5 C 347.833,783.167 347.833,783.167 346.5,782.5 Z"/>
 </g>
 <g>
  <path style="opacity:0.008" fill="#eff4f2" d="M 679.5,782.5 C 678.833,783.167 678.833,783.167 679.5,782.5 Z"/>
 </g>
 <g>
  <path style="opacity:0.008" fill="#ebeeee" d="M 355.5,787.5 C 356.833,788.167 356.833,788.167 355.5,787.5 Z"/>
 </g>
 <g>
  <path style="opacity:0.004" fill="#e6e9eb" d="M 353.5,788.5 C 354.833,789.167 354.833,789.167 353.5,788.5 Z"/>
 </g>
 <g>
  <path style="opacity:0.004" fill="#eef2f1" d="M 667.5,788.5 C 668.833,789.167 668.833,789.167 667.5,788.5 Z"/>
 </g>
 <g>
  <path style="opacity:0.004" fill="#eff2f2" d="M 657.5,794.5 C 658.833,795.167 658.833,795.167 657.5,794.5 Z"/>
 </g>
 <g>
  <path style="opacity:0.004" fill="#eef4f4" d="M 651.5,797.5 C 652.833,798.167 652.833,798.167 651.5,797.5 Z"/>
 </g>
 <g>
  <path style="opacity:0.004" fill="#ecf1f0" d="M 376.5,798.5 C 377.833,799.167 377.833,799.167 376.5,798.5 Z"/>
 </g>
 <g>
  <path style="opacity:0.004" fill="#edf0f1" d="M 386.5,802.5 C 385.833,803.167 385.833,803.167 386.5,802.5 Z"/>
 </g>
 <g>
  <path style="opacity:0.004" fill="#ebf1f0" d="M 391.5,805.5 C 392.833,806.167 392.833,806.167 391.5,805.5 Z"/>
 </g>
 <g>
  <path style="opacity:0.004" fill="#e7ecec" d="M 407.5,812.5 C 408.833,813.167 408.833,813.167 407.5,812.5 Z"/>
 </g>
 <g>
  <path style="opacity:0.004" fill="#eaefee" d="M 409.5,812.5 C 410.833,813.167 410.833,813.167 409.5,812.5 Z"/>
 </g>
 <g>
  <path style="opacity:0.004" fill="#000000" d="M 43.5,813.5 C 44.8333,814.167 44.8333,814.167 43.5,813.5 Z"/>
 </g>
 <g>
  <path style="opacity:0.008" fill="#ebeeed" d="M 612.5,813.5 C 613.833,814.167 613.833,814.167 612.5,813.5 Z"/>
 </g>
 <g>
  <path style="opacity:0.004" fill="#ebeef1" d="M 416.5,814.5 C 417.833,815.167 417.833,815.167 416.5,814.5 Z"/>
 </g>
 <g>
  <path style="opacity:0.004" fill="#ebf1f0" d="M 432.5,818.5 C 431.833,819.167 431.833,819.167 432.5,818.5 Z"/>
 </g>
 <g>
  <path style="opacity:0.008" fill="#edf1ef" d="M 439.5,821.5 C 440.833,822.167 440.833,822.167 439.5,821.5 Z"/>
 </g>
 <g>
  <path style="opacity:0.012" fill="#eef2f2" d="M 580.5,822.5 C 581.833,823.167 581.833,823.167 580.5,822.5 Z"/>
 </g>
 <g>
  <path style="opacity:0.004" fill="#edf2f0" d="M 582.5,822.5 C 583.833,823.167 583.833,823.167 582.5,822.5 Z"/>
 </g>
 <g>
  <path style="opacity:0.004" fill="#eef0ef" d="M 459.5,825.5 C 460.833,826.167 460.833,826.167 459.5,825.5 Z"/>
 </g>
 <g>
  <path style="opacity:0.004" fill="#eff2f1" d="M 560.5,826.5 C 561.833,827.167 561.833,827.167 560.5,826.5 Z"/>
 </g>
 <g>
  <path style="opacity:0.004" fill="#edeff0" d="M 472.5,828.5 C 472.897,827.475 473.563,827.308 474.5,828C 473.906,828.464 473.239,828.631 472.5,828.5 Z"/>
 </g>
 <g>
  <path style="opacity:0.004" fill="#f0f2f3" d="M 543.5,829.5 C 543.897,828.475 544.563,828.308 545.5,829C 544.906,829.464 544.239,829.631 543.5,829.5 Z"/>
 </g>
 <g>
  <path style="opacity:0.008" fill="#ecefef" d="M 491.5,829.5 C 492.833,830.167 492.833,830.167 491.5,829.5 Z"/>
 </g>
 <g>
  <path style="opacity:0.004" fill="#eff0f1" d="M 496.5,830.5 C 497.946,829.387 499.613,829.22 501.5,830C 499.866,830.494 498.199,830.66 496.5,830.5 Z"/>
 </g>
 <g>
  <path style="opacity:0.004" fill="#eff3f3" d="M 527.5,829.5 C 528.833,830.167 528.833,830.167 527.5,829.5 Z"/>
 </g>
 <g>
  <path style="opacity:0.004" fill="#eef1f1" d="M 530.5,830.5 C 531.251,829.427 532.251,829.26 533.5,830C 532.552,830.483 531.552,830.649 530.5,830.5 Z"/>
 </g>
 <g>
  <path style="opacity:0.004" fill="#000000" d="M 95.5,922.5 C 96.8333,923.167 96.8333,923.167 95.5,922.5 Z"/>
 </g>
 <g>
  <path style="opacity:0.004" fill="#000200" d="M 187.5,925.5 C 188.833,926.167 188.833,926.167 187.5,925.5 Z"/>
 </g>
 <g>
  <path style="opacity:0.004" fill="#000000" d="M 851.5,925.5 C 852.833,926.167 852.833,926.167 851.5,925.5 Z"/>
 </g>
 <g>
  <path style="opacity:0.004" fill="#121411" d="M 307.5,933.5 C 308.833,934.167 308.833,934.167 307.5,933.5 Z"/>
 </g>
 <g>
  <path style="opacity:0.004" fill="#000000" d="M 842.5,964.5 C 843.833,965.167 843.833,965.167 842.5,964.5 Z"/>
 </g>
</svg>
