<?xml version='1.0' encoding='UTF-8'?>
<!DOCTYPE svg PUBLIC '-//W3C//DTD SVG 1.1//EN' 'http://www.w3.org/Graphics/SVG/1.1/DTD/svg11.dtd'>
<svg height="1024px" version="1.1" xmlns:xlink="http://www.w3.org/1999/xlink" style="shape-rendering:geometricPrecision; text-rendering:geometricPrecision; image-rendering:optimizeQuality; fill-rule:evenodd; clip-rule:evenodd" xmlns="http://www.w3.org/2000/svg" width="1024px">
 <g>
  <path fill="#1c1d1b" style="opacity:0.004" d="M 419.5,5.5 C 420.833,6.16667 420.833,6.16667 419.5,5.5 Z"/>
 </g>
 <g>
  <path fill="#050905" style="opacity:0.004" d="M 795.5,61.5 C 796.833,62.1667 796.833,62.1667 795.5,61.5 Z"/>
 </g>
 <g>
  <path fill="#000000" style="opacity:0.004" d="M 963.5,101.5 C 964.833,102.167 964.833,102.167 963.5,101.5 Z"/>
 </g>
 <g>
  <path fill="#3e3f3f" style="opacity:0.004" d="M 259.5,141.5 C 260.833,142.167 260.833,142.167 259.5,141.5 Z"/>
 </g>
 <g>
  <path fill="#f2f4f4" style="opacity:0.004" d="M 483.5,171.5 C 484.525,171.897 484.692,172.563 484,173.5C 483.536,172.906 483.369,172.239 483.5,171.5 Z"/>
 </g>
 <g>
  <path fill="#f3f5f5" style="opacity:0.004" d="M 491.5,171.5 C 492.833,172.167 492.833,172.167 491.5,171.5 Z"/>
 </g>
 <g>
  <path fill="#f3f5f6" style="opacity:0.004" d="M 523.5,171.5 C 524.833,172.167 524.833,172.167 523.5,171.5 Z"/>
 </g>
 <g>
  <path fill="#f2f6f4" style="opacity:0.004" d="M 531.5,171.5 C 532.833,172.167 532.833,172.167 531.5,171.5 Z"/>
 </g>
 <g>
  <path fill="#f4f5f6" style="opacity:0.004" d="M 479.5,172.5 C 480.833,173.167 480.833,173.167 479.5,172.5 Z"/>
 </g>
 <g>
  <path fill="#fefefe" style="opacity:0.995" d="M 635.5,195.5 C 643.213,199.352 651.213,202.685 659.5,205.5C 663.151,207.992 667.151,209.992 671.5,211.5C 671.842,212.338 672.508,212.672 673.5,212.5C 679.685,216.851 686.185,220.851 693,224.5C 694.84,223.167 695.34,223.334 694.5,225C 695.876,227.543 697.043,227.709 698,225.5C 698.309,226.766 698.809,227.933 699.5,229C 706.987,233.663 714.32,238.496 721.5,243.5C 723.891,245.806 726.891,248.139 730.5,250.5C 732.234,253.2 734.568,255.2 737.5,256.5C 739.88,259.881 742.88,262.547 746.5,264.5C 746.833,265.5 747.5,266.167 748.5,266.5C 761.232,279.894 773.565,293.56 785.5,307.5C 786.031,309.544 787.198,311.211 789,312.5C 793.049,318.996 797.882,325.996 803.5,333.5C 803.75,335.674 804.75,337.341 806.5,338.5C 813.885,352.334 820.885,366.334 827.5,380.5C 855.034,450.51 860.201,522.177 843,595.5C 832.474,637.205 814.974,675.539 790.5,710.5C 789.094,710.973 788.427,711.973 788.5,713.5C 771.528,735.137 752.861,755.137 732.5,773.5C 725.186,778.818 718.186,784.484 711.5,790.5C 642.843,837.648 567.509,858.814 485.5,854C 486.696,854.654 486.696,855.154 485.5,855.5C 484.646,854.478 483.646,853.645 482.5,853C 465.708,851.257 449.041,848.757 432.5,845.5C 422.026,842.212 411.359,839.212 400.5,836.5C 398.786,835.262 396.786,834.595 394.5,834.5C 385,830.447 374.667,825.78 363.5,820.5C 362.914,820.709 362.414,821.043 362,821.5C 357.551,817.356 352.385,814.356 346.5,812.5C 329.849,802.839 313.849,792.172 298.5,780.5C 285.639,769.875 273.305,758.542 261.5,746.5C 254.869,737.868 247.869,729.535 240.5,721.5C 239.396,719.611 238.063,717.945 236.5,716.5C 235.974,714.77 234.974,713.436 233.5,712.5C 225.497,699.825 217.497,687.159 209.5,674.5C 208.341,670.849 206.674,667.515 204.5,664.5C 204.34,662.847 203.674,661.514 202.5,660.5C 200.344,654.196 197.678,648.196 194.5,642.5C 165.506,566.831 162.172,489.831 184.5,411.5C 195.352,380.13 209.685,350.463 227.5,322.5C 233.521,315.139 239.187,307.472 244.5,299.5C 249.51,294.488 254.177,289.155 258.5,283.5C 265.833,275.5 273.5,267.833 281.5,260.5C 282.833,259.833 283.833,258.833 284.5,257.5C 291.795,252.206 298.795,246.539 305.5,240.5C 316.043,233.735 326.377,226.735 336.5,219.5C 337.492,219.672 338.158,219.338 338.5,218.5C 348.747,212.877 359.08,207.544 369.5,202.5C 398.7,190.763 428.7,182.096 459.5,176.5C 519.749,168.591 578.416,174.925 635.5,195.5 Z"/>
 </g>
 <g>
  <path fill="#f3f5f6" style="opacity:0.004" d="M 459.5,176.5 C 458.127,176.657 456.793,176.49 455.5,176C 457.066,175.235 458.399,175.402 459.5,176.5 Z"/>
 </g>
 <g>
  <path fill="#f1f2f2" style="opacity:0.008" d="M 564.5,176.5 C 564.897,175.475 565.563,175.308 566.5,176C 565.906,176.464 565.239,176.631 564.5,176.5 Z"/>
 </g>
 <g>
  <path fill="#f2f5f3" style="opacity:0.004" d="M 444.5,178.5 C 445.251,177.427 446.251,177.26 447.5,178C 446.552,178.483 445.552,178.649 444.5,178.5 Z"/>
 </g>
 <g>
  <path fill="#f0f3f4" style="opacity:0.008" d="M 576.5,177.5 C 577.833,178.167 577.833,178.167 576.5,177.5 Z"/>
 </g>
 <g>
  <path fill="#f2f2f3" style="opacity:0.004" d="M 439.5,178.5 C 440.833,179.167 440.833,179.167 439.5,178.5 Z"/>
 </g>
 <g>
  <path fill="#f1f4f2" style="opacity:0.004" d="M 441.5,178.5 C 442.833,179.167 442.833,179.167 441.5,178.5 Z"/>
 </g>
 <g>
  <path fill="#f2f5f5" style="opacity:0.004" d="M 435.5,179.5 C 436.833,180.167 436.833,180.167 435.5,179.5 Z"/>
 </g>
 <g>
  <path fill="#f2f4f2" style="opacity:0.004" d="M 606.5,184.5 C 607.833,185.167 607.833,185.167 606.5,184.5 Z"/>
 </g>
 <g>
  <path fill="#f0f4f4" style="opacity:0.004" d="M 612.5,187.5 C 612.897,186.475 613.563,186.308 614.5,187C 613.906,187.464 613.239,187.631 612.5,187.5 Z"/>
 </g>
 <g>
  <path fill="#f3f4f5" style="opacity:0.004" d="M 392.5,192.5 C 392.897,191.475 393.563,191.308 394.5,192C 393.906,192.464 393.239,192.631 392.5,192.5 Z"/>
 </g>
 <g>
  <path fill="#eff2f2" style="opacity:0.004" d="M 628.5,191.5 C 629.833,192.167 629.833,192.167 628.5,191.5 Z"/>
 </g>
 <g>
  <path fill="#f1f3f4" style="opacity:0.008" d="M 635.5,195.5 C 635.897,194.475 636.563,194.308 637.5,195C 636.906,195.464 636.239,195.631 635.5,195.5 Z"/>
 </g>
 <g>
  <path fill="#3a89ac" style="opacity:0.999" d="M 489.5,198.5 C 607.826,194.588 702.326,239.588 773,333.5C 831.119,421.435 844.119,515.768 812,616.5C 774.272,715.228 705.439,781.728 605.5,816C 495.043,847.103 394.71,826.103 304.5,753C 213.352,668.977 179.185,565.811 202,443.5C 224.044,356.153 273.211,288.987 349.5,242C 393.054,217.091 439.721,202.591 489.5,198.5 Z"/>
 </g>
 <g>
  <path fill="#eef1f2" style="opacity:0.004" d="M 372.5,199.5 C 373.833,200.167 373.833,200.167 372.5,199.5 Z"/>
 </g>
 <g>
  <path fill="#eef3f1" style="opacity:0.008" d="M 651.5,200.5 C 652.833,201.167 652.833,201.167 651.5,200.5 Z"/>
 </g>
 <g>
  <path fill="#f0f2f3" style="opacity:0.004" d="M 369.5,202.5 C 368.761,202.631 368.094,202.464 367.5,202C 368.437,201.308 369.103,201.475 369.5,202.5 Z"/>
 </g>
 <g>
  <path fill="#edf0ef" style="opacity:0.008" d="M 659.5,204.5 C 660.833,205.167 660.833,205.167 659.5,204.5 Z"/>
 </g>
 <g>
  <path fill="#f0f3f3" style="opacity:0.004" d="M 352.5,208.5 C 353.833,209.167 353.833,209.167 352.5,208.5 Z"/>
 </g>
 <g>
  <path fill="#f1f3f1" style="opacity:0.004" d="M 671.5,210.5 C 672.833,211.167 672.833,211.167 671.5,210.5 Z"/>
 </g>
 <g>
  <path fill="#edf0ef" style="opacity:0.004" d="M 673.5,211.5 C 674.833,212.167 674.833,212.167 673.5,211.5 Z"/>
 </g>
 <g>
  <path fill="#edf1ef" style="opacity:0.004" d="M 675.5,212.5 C 676.833,213.167 676.833,213.167 675.5,212.5 Z"/>
 </g>
 <g>
  <path fill="#edf0f1" style="opacity:0.004" d="M 685.5,216.5 C 686.833,217.167 686.833,217.167 685.5,216.5 Z"/>
 </g>
 <g>
  <path fill="#eef2ee" style="opacity:0.008" d="M 335.5,218.5 C 334.833,217.167 334.833,217.167 335.5,218.5 Z"/>
 </g>
 <g>
  <path fill="#eef3f3" style="opacity:0.004" d="M 338.5,218.5 C 337.833,217.167 337.833,217.167 338.5,218.5 Z"/>
 </g>
 <g>
  <path fill="#f2f4f3" style="opacity:0.008" d="M 335.5,218.5 C 336.167,218.5 336.5,218.833 336.5,219.5C 336.167,219.167 335.833,218.833 335.5,218.5 Z"/>
 </g>
 <g>
  <path fill="#f0f1f1" style="opacity:0.004" d="M 691.5,221.5 C 692.833,222.167 692.833,222.167 691.5,221.5 Z"/>
 </g>
 <g>
  <path fill="#edf1ef" style="opacity:0.004" d="M 307.5,236.5 C 308.833,237.167 308.833,237.167 307.5,236.5 Z"/>
 </g>
 <g>
  <path fill="#eff1f2" style="opacity:0.012" d="M 305.5,240.5 C 304.833,239.167 304.833,239.167 305.5,240.5 Z"/>
 </g>
 <g>
  <path fill="#f0f2f2" style="opacity:0.004" d="M 719.5,240.5 C 720.833,241.167 720.833,241.167 719.5,240.5 Z"/>
 </g>
 <g>
  <path fill="#f0f3f3" style="opacity:0.024" d="M 721.5,242.5 C 722.833,243.167 722.833,243.167 721.5,242.5 Z"/>
 </g>
 <g>
  <path fill="#f1f2f2" style="opacity:0.004" d="M 728.5,247.5 C 729.833,248.167 729.833,248.167 728.5,247.5 Z"/>
 </g>
 <g>
  <path fill="#eef2f1" style="opacity:0.004" d="M 290.5,249.5 C 291.833,250.167 291.833,250.167 290.5,249.5 Z"/>
 </g>
 <g>
  <path fill="#f2f4f3" style="opacity:0.004" d="M 730.5,249.5 C 731.833,250.167 731.833,250.167 730.5,249.5 Z"/>
 </g>
 <g>
  <path fill="#eff1f1" style="opacity:0.008" d="M 737.5,255.5 C 738.833,256.167 738.833,256.167 737.5,255.5 Z"/>
 </g>
 <g>
  <path fill="#f1f3f4" style="opacity:0.004" d="M 284.5,257.5 C 283.833,256.167 283.833,256.167 284.5,257.5 Z"/>
 </g>
 <g>
  <path fill="#f0f4f2" style="opacity:0.004" d="M 740.5,257.5 C 741.833,258.167 741.833,258.167 740.5,257.5 Z"/>
 </g>
 <g>
  <path fill="#f0f3f3" style="opacity:0.008" d="M 281.5,260.5 C 280.833,259.167 280.833,259.167 281.5,260.5 Z"/>
 </g>
 <g>
  <path fill="#fefefe" style="opacity:0.999" d="M 495.5,261.5 C 587.276,258.817 661.443,293.151 718,364.5C 768.464,438.456 778.798,518.122 749,603.5C 722.076,668.889 676.576,716.389 612.5,746C 517.882,782.198 430.549,769.531 350.5,708C 277.633,644.048 248.133,563.881 262,467.5C 279.185,386.343 324.351,326.51 397.5,288C 428.68,273.207 461.347,264.374 495.5,261.5 Z"/>
 </g>
 <g>
  <path fill="#f0f3f2" style="opacity:0.004" d="M 746.5,263.5 C 747.833,264.167 747.833,264.167 746.5,263.5 Z"/>
 </g>
 <g>
  <path fill="#f2f3f2" style="opacity:0.012" d="M 748.5,266.5 C 748.897,265.475 749.563,265.308 750.5,266C 749.906,266.464 749.239,266.631 748.5,266.5 Z"/>
 </g>
 <g>
  <path fill="#f0f2f2" style="opacity:0.004" d="M 271.5,266.5 C 272.833,267.167 272.833,267.167 271.5,266.5 Z"/>
 </g>
 <g>
  <path fill="#f0f3f3" style="opacity:0.004" d="M 255.5,282.5 C 256.833,283.167 256.833,283.167 255.5,282.5 Z"/>
 </g>
 <g>
  <path fill="#f1f5f4" style="opacity:0.004" d="M 258.5,283.5 C 257.833,282.167 257.833,282.167 258.5,283.5 Z"/>
 </g>
 <g>
  <path fill="#3a89ac" style="opacity:0.999" d="M 502.5,286.5 C 581.247,285.964 645.413,315.964 695,376.5C 742.24,443.399 752.573,515.732 726,593.5C 713.957,625.615 695.457,653.282 670.5,676.5C 662.626,663.25 654.626,650.083 646.5,637C 659.88,610.089 665.047,581.589 662,551.5C 659.053,525.995 652.053,501.661 641,478.5C 623.589,444.01 605.922,409.677 588,375.5C 581.732,363.415 572.232,359.581 559.5,364C 552.955,367.916 549.621,373.75 549.5,381.5C 564.471,415.114 580.305,448.448 597,481.5C 597.667,483.5 597.667,485.5 597,487.5C 595.612,488.554 594.112,488.72 592.5,488C 566.733,436.631 540.899,385.464 515,334.5C 507.034,325.799 497.867,324.299 487.5,330C 478.409,339.153 477.243,349.319 484,360.5C 505.497,404.165 526.497,448.165 547,492.5C 548.368,495.738 548.701,499.072 548,502.5C 545.201,506.145 542.034,506.478 538.5,503.5C 536.808,501.641 535.308,499.641 534,497.5C 511.701,454.52 489.367,411.52 467,368.5C 456.96,356.758 445.96,355.758 434,365.5C 429.133,372.486 428.466,379.819 432,387.5C 454.063,430.626 476.396,473.626 499,516.5C 500.15,518.754 500.484,521.087 500,523.5C 496.4,526.354 493.4,525.687 491,521.5C 465.325,481.827 439.658,442.161 414,402.5C 403.363,391.634 393.03,391.968 383,403.5C 379.053,413.024 380.053,422.024 386,430.5C 413.917,474.665 441.584,518.999 469,563.5C 476.014,575.544 480.847,588.377 483.5,602C 483.556,604.538 482.556,606.372 480.5,607.5C 474.554,605.194 468.888,602.361 463.5,599C 444.553,585.72 425.886,572.053 407.5,558C 398.512,550.196 388.512,548.53 377.5,553C 369.561,559.148 367.061,566.981 370,576.5C 372.171,580.844 374.837,584.844 378,588.5C 407.957,619.473 441.124,646.306 477.5,669C 501.283,681.595 526.45,689.761 553,693.5C 562.379,705.757 571.879,717.924 581.5,730C 500.511,754.136 427.511,739.469 362.5,686C 301.438,630.164 275.938,560.998 286,478.5C 300.053,401.816 341.553,345.649 410.5,310C 439.771,296.183 470.437,288.35 502.5,286.5 Z"/>
 </g>
 <g>
  <path fill="#eef2f1" style="opacity:0.004" d="M 239.5,298.5 C 240.833,299.167 240.833,299.167 239.5,298.5 Z"/>
 </g>
 <g>
  <path fill="#f1f3f2" style="opacity:0.004" d="M 244.5,299.5 C 243.833,298.167 243.833,298.167 244.5,299.5 Z"/>
 </g>
 <g>
  <path fill="#eff2f3" style="opacity:0.012" d="M 785.5,306.5 C 786.833,307.167 786.833,307.167 785.5,306.5 Z"/>
 </g>
 <g>
  <path fill="#f0f3f3" style="opacity:0.008" d="M 235.5,308.5 C 236.833,309.167 236.833,309.167 235.5,308.5 Z"/>
 </g>
 <g>
  <path fill="#eef1f2" style="opacity:0.004" d="M 797.5,320.5 C 798.833,321.167 798.833,321.167 797.5,320.5 Z"/>
 </g>
 <g>
  <path fill="#f0f4f4" style="opacity:0.008" d="M 227.5,322.5 C 226.833,321.167 226.833,321.167 227.5,322.5 Z"/>
 </g>
 <g>
  <path fill="#eff4f3" style="opacity:0.008" d="M 797.5,321.5 C 796.833,322.167 796.833,322.167 797.5,321.5 Z"/>
 </g>
 <g>
  <path fill="#ecf0ef" style="opacity:0.004" d="M 800.5,327.5 C 801.833,328.167 801.833,328.167 800.5,327.5 Z"/>
 </g>
 <g>
  <path fill="#eef2ef" style="opacity:0.004" d="M 803.5,332.5 C 804.833,333.167 804.833,333.167 803.5,332.5 Z"/>
 </g>
 <g>
  <path fill="#eff3f3" style="opacity:0.008" d="M 806.5,337.5 C 807.833,338.167 807.833,338.167 806.5,337.5 Z"/>
 </g>
 <g>
  <path fill="#f4f6f6" style="opacity:0.008" d="M 215.5,338.5 C 216.833,339.167 216.833,339.167 215.5,338.5 Z"/>
 </g>
 <g>
  <path fill="#f2f5f5" style="opacity:0.004" d="M 212.5,343.5 C 213.833,344.167 213.833,344.167 212.5,343.5 Z"/>
 </g>
 <g>
  <path fill="#f3f5f4" style="opacity:0.004" d="M 212.5,344.5 C 211.833,345.167 211.833,345.167 212.5,344.5 Z"/>
 </g>
 <g>
  <path fill="#f0f1f2" style="opacity:0.004" d="M 813.5,349.5 C 814.833,350.167 814.833,350.167 813.5,349.5 Z"/>
 </g>
 <g>
  <path fill="#171a18" style="opacity:0.004" d="M 1003.5,349.5 C 1004.83,350.167 1004.83,350.167 1003.5,349.5 Z"/>
 </g>
 <g>
  <path fill="#f1f4f4" style="opacity:0.004" d="M 827.5,379.5 C 828.833,380.167 828.833,380.167 827.5,379.5 Z"/>
 </g>
 <g>
  <path fill="#f2f5f2" style="opacity:0.012" d="M 191.5,386.5 C 192.833,387.167 192.833,387.167 191.5,386.5 Z"/>
 </g>
 <g>
  <path fill="#eff3f2" style="opacity:0.004" d="M 833.5,392.5 C 834.833,393.167 834.833,393.167 833.5,392.5 Z"/>
 </g>
 <g>
  <path fill="#f2f5f4" style="opacity:0.004" d="M 833.5,394.5 C 834.833,395.167 834.833,395.167 833.5,394.5 Z"/>
 </g>
 <g>
  <path fill="#f1f4f4" style="opacity:0.008" d="M 187.5,397.5 C 188.833,398.167 188.833,398.167 187.5,397.5 Z"/>
 </g>
 <g>
  <path fill="#f4f6f7" style="opacity:0.004" d="M 184.5,411.5 C 183.833,410.167 183.833,410.167 184.5,411.5 Z"/>
 </g>
 <g>
  <path fill="#f0f2f2" style="opacity:0.004" d="M 180.5,420.5 C 181.833,421.167 181.833,421.167 180.5,420.5 Z"/>
 </g>
 <g>
  <path fill="#f2f3f5" style="opacity:0.004" d="M 844.5,430.5 C 845.525,430.897 845.692,431.563 845,432.5C 844.536,431.906 844.369,431.239 844.5,430.5 Z"/>
 </g>
 <g>
  <path fill="#f3f7f7" style="opacity:0.004" d="M 176.5,434.5 C 177.833,435.167 177.833,435.167 176.5,434.5 Z"/>
 </g>
 <g>
  <path fill="#f0f3f2" style="opacity:0.004" d="M 846.5,436.5 C 847.833,437.167 847.833,437.167 846.5,436.5 Z"/>
 </g>
 <g>
  <path fill="#f0f3f3" style="opacity:0.004" d="M 849.5,456.5 C 850.833,457.167 850.833,457.167 849.5,456.5 Z"/>
 </g>
 <g>
  <path fill="#f4f6f5" style="opacity:0.008" d="M 171.5,461.5 C 172.833,462.167 172.833,462.167 171.5,461.5 Z"/>
 </g>
 <g>
  <path fill="#f1f4f4" style="opacity:0.004" d="M 850.5,463.5 C 851.833,464.167 851.833,464.167 850.5,463.5 Z"/>
 </g>
 <g>
  <path fill="#f2f5f4" style="opacity:0.004" d="M 170.5,467.5 C 171.833,468.167 171.833,468.167 170.5,467.5 Z"/>
 </g>
 <g>
  <path fill="#f2f5f5" style="opacity:0.004" d="M 851.5,467.5 C 852.833,468.167 852.833,468.167 851.5,467.5 Z"/>
 </g>
 <g>
  <path fill="#f3f7f7" style="opacity:0.008" d="M 169.5,475.5 C 170.833,476.167 170.833,476.167 169.5,475.5 Z"/>
 </g>
 <g>
  <path fill="#f4f9f6" style="opacity:0.004" d="M 169.5,477.5 C 170.833,478.167 170.833,478.167 169.5,477.5 Z"/>
 </g>
 <g>
  <path fill="#f1f4f5" style="opacity:0.004" d="M 852.5,477.5 C 853.833,478.167 853.833,478.167 852.5,477.5 Z"/>
 </g>
 <g>
  <path fill="#f2f5f7" style="opacity:0.008" d="M 852.5,479.5 C 853.833,480.167 853.833,480.167 852.5,479.5 Z"/>
 </g>
 <g>
  <path fill="#f6f7f7" style="opacity:0.004" d="M 169.5,482.5 C 170.833,483.167 170.833,483.167 169.5,482.5 Z"/>
 </g>
 <g>
  <path fill="#f2f2f2" style="opacity:0.004" d="M 853.5,486.5 C 854.833,487.167 854.833,487.167 853.5,486.5 Z"/>
 </g>
 <g>
  <path fill="#f4f7f6" style="opacity:0.004" d="M 168.5,489.5 C 169.833,490.167 169.833,490.167 168.5,489.5 Z"/>
 </g>
 <g>
  <path fill="#f5f7f8" style="opacity:0.004" d="M 168.5,491.5 C 169.833,492.167 169.833,492.167 168.5,491.5 Z"/>
 </g>
 <g>
  <path fill="#f3f5f4" style="opacity:0.004" d="M 853.5,497.5 C 854.833,498.167 854.833,498.167 853.5,497.5 Z"/>
 </g>
 <g>
  <path fill="#f7f7f8" style="opacity:0.004" d="M 167.5,514.5 C 168.833,515.167 168.833,515.167 167.5,514.5 Z"/>
 </g>
 <g>
  <path fill="#f7f6f8" style="opacity:0.006" d="M 168.5,535.5 C 169.525,535.897 169.692,536.563 169,537.5C 168.536,536.906 168.369,536.239 168.5,535.5 Z"/>
 </g>
 <g>
  <path fill="#f5f6f8" style="opacity:0.006" d="M 169.5,546.5 C 170.598,547.601 170.765,548.934 170,550.5C 169.51,549.207 169.343,547.873 169.5,546.5 Z"/>
 </g>
 <g>
  <path fill="#f4f6f6" style="opacity:0.004" d="M 169.5,551.5 C 170.833,552.167 170.833,552.167 169.5,551.5 Z"/>
 </g>
 <g>
  <path fill="#f3f5f2" style="opacity:0.004" d="M 851.5,556.5 C 852.833,557.167 852.833,557.167 851.5,556.5 Z"/>
 </g>
 <g>
  <path fill="#f2f5f5" style="opacity:0.004" d="M 170.5,558.5 C 171.833,559.167 171.833,559.167 170.5,558.5 Z"/>
 </g>
 <g>
  <path fill="#f5f7f7" style="opacity:0.008" d="M 171.5,563.5 C 172.525,563.897 172.692,564.563 172,565.5C 171.536,564.906 171.369,564.239 171.5,563.5 Z"/>
 </g>
 <g>
  <path fill="#f2f4f4" style="opacity:0.008" d="M 172.5,570.5 C 173.598,571.601 173.765,572.934 173,574.5C 172.51,573.207 172.343,571.873 172.5,570.5 Z"/>
 </g>
 <g>
  <path fill="#f3f4f4" style="opacity:0.004" d="M 846.5,582.5 C 847.833,583.167 847.833,583.167 846.5,582.5 Z"/>
 </g>
 <g>
  <path fill="#f4f6f6" style="opacity:0.004" d="M 175.5,585.5 C 176.833,586.167 176.833,586.167 175.5,585.5 Z"/>
 </g>
 <g>
  <path fill="#f3f3f5" style="opacity:0.004" d="M 846.5,584.5 C 847.525,584.897 847.692,585.563 847,586.5C 846.536,585.906 846.369,585.239 846.5,584.5 Z"/>
 </g>
 <g>
  <path fill="#f3f6f4" style="opacity:0.012" d="M 176.5,590.5 C 177.833,591.167 177.833,591.167 176.5,590.5 Z"/>
 </g>
 <g>
  <path fill="#f4f7f8" style="opacity:0.008" d="M 177.5,594.5 C 178.525,594.897 178.692,595.563 178,596.5C 177.536,595.906 177.369,595.239 177.5,594.5 Z"/>
 </g>
 <g>
  <path fill="#f1f5f3" style="opacity:0.014" d="M 843.5,596.5 C 844.525,596.897 844.692,597.563 844,598.5C 843.536,597.906 843.369,597.239 843.5,596.5 Z"/>
 </g>
 <g>
  <path fill="#f2f6f5" style="opacity:0.004" d="M 179.5,603.5 C 180.833,604.167 180.833,604.167 179.5,603.5 Z"/>
 </g>
 <g>
  <path fill="#f3f5f3" style="opacity:0.004" d="M 180.5,605.5 C 181.833,606.167 181.833,606.167 180.5,605.5 Z"/>
 </g>
 <g>
  <path fill="#f2f4f4" style="opacity:0.004" d="M 183.5,616.5 C 184.833,617.167 184.833,617.167 183.5,616.5 Z"/>
 </g>
 <g>
  <path fill="#f5f6f6" style="opacity:0.008" d="M 184.5,618.5 C 185.833,619.167 185.833,619.167 184.5,618.5 Z"/>
 </g>
 <g>
  <path fill="#f1f5f3" style="opacity:0.004" d="M 836.5,621.5 C 837.833,622.167 837.833,622.167 836.5,621.5 Z"/>
 </g>
 <g>
  <path fill="#f2f4f4" style="opacity:0.008" d="M 830.5,638.5 C 831.833,639.167 831.833,639.167 830.5,638.5 Z"/>
 </g>
 <g>
  <path fill="#f4f6f5" style="opacity:0.006" d="M 194.5,642.5 C 194.631,643.239 194.464,643.906 194,644.5C 193.308,643.563 193.475,642.897 194.5,642.5 Z"/>
 </g>
 <g>
  <path fill="#f0f3f4" style="opacity:0.012" d="M 827.5,645.5 C 828.833,646.167 828.833,646.167 827.5,645.5 Z"/>
 </g>
 <g>
  <path fill="#f2f3f1" style="opacity:0.02" d="M 199.5,657.5 C 200.833,658.167 200.833,658.167 199.5,657.5 Z"/>
 </g>
 <g>
  <path fill="#f2f4f5" style="opacity:0.004" d="M 201.5,660.5 C 200.833,659.167 200.833,659.167 201.5,660.5 Z"/>
 </g>
 <g>
  <path fill="#f0f2f4" style="opacity:0.008" d="M 201.5,660.5 C 201.833,660.5 202.167,660.5 202.5,660.5C 202.315,661.17 201.981,661.17 201.5,660.5 Z"/>
 </g>
 <g>
  <path fill="#f1f4f4" style="opacity:0.004" d="M 204.5,664.5 C 203.833,665.167 203.833,665.167 204.5,664.5 Z"/>
 </g>
 <g>
  <path fill="#f1f4f3" style="opacity:0.004" d="M 208.5,674.5 C 207.833,673.167 207.833,673.167 208.5,674.5 Z"/>
 </g>
 <g>
  <path fill="#f1f5f4" style="opacity:0.012" d="M 208.5,674.5 C 208.833,674.5 209.167,674.5 209.5,674.5C 209.315,675.17 208.981,675.17 208.5,674.5 Z"/>
 </g>
 <g>
  <path fill="#f2f4f5" style="opacity:0.004" d="M 215.5,687.5 C 216.833,688.167 216.833,688.167 215.5,687.5 Z"/>
 </g>
 <g>
  <path fill="#f3f4f5" style="opacity:0.004" d="M 217.5,690.5 C 218.525,690.897 218.692,691.563 218,692.5C 217.536,691.906 217.369,691.239 217.5,690.5 Z"/>
 </g>
 <g>
  <path fill="#f0f5f2" style="opacity:0.004" d="M 802.5,693.5 C 803.833,694.167 803.833,694.167 802.5,693.5 Z"/>
 </g>
 <g>
  <path fill="#f2f4f1" style="opacity:0.004" d="M 790.5,710.5 C 791.833,711.167 791.833,711.167 790.5,710.5 Z"/>
 </g>
 <g>
  <path fill="#f0f4f4" style="opacity:0.004" d="M 233.5,712.5 C 232.833,713.167 232.833,713.167 233.5,712.5 Z"/>
 </g>
 <g>
  <path fill="#f0f3f3" style="opacity:0.008" d="M 789.5,712.5 C 790.833,713.167 790.833,713.167 789.5,712.5 Z"/>
 </g>
 <g>
  <path fill="#f1f5f4" style="opacity:0.008" d="M 788.5,713.5 C 788.833,713.5 789.167,713.5 789.5,713.5C 789.315,714.17 788.981,714.17 788.5,713.5 Z"/>
 </g>
 <g>
  <path fill="#f1f3f4" style="opacity:0.004" d="M 233.5,714.5 C 234.833,715.167 234.833,715.167 233.5,714.5 Z"/>
 </g>
 <g>
  <path fill="#f0f3f3" style="opacity:0.02" d="M 236.5,716.5 C 235.833,717.167 235.833,717.167 236.5,716.5 Z"/>
 </g>
 <g>
  <path fill="#f0f2f4" style="opacity:0.008" d="M 240.5,721.5 C 239.833,722.167 239.833,722.167 240.5,721.5 Z"/>
 </g>
 <g>
  <path fill="#eff0f0" style="opacity:0.004" d="M 261.5,746.5 C 260.833,747.167 260.833,747.167 261.5,746.5 Z"/>
 </g>
 <g>
  <path fill="#f2f5f3" style="opacity:0.004" d="M 732.5,773.5 C 733.833,774.167 733.833,774.167 732.5,773.5 Z"/>
 </g>
 <g>
  <path fill="#eef2f2" style="opacity:0.012" d="M 298.5,780.5 C 297.833,781.167 297.833,781.167 298.5,780.5 Z"/>
 </g>
 <g>
  <path fill="#eff3f1" style="opacity:0.004" d="M 726.5,780.5 C 727.833,781.167 727.833,781.167 726.5,780.5 Z"/>
 </g>
 <g>
  <path fill="#eff2f1" style="opacity:0.004" d="M 711.5,790.5 C 712.833,791.167 712.833,791.167 711.5,790.5 Z"/>
 </g>
 <g>
  <path fill="#eaedec" style="opacity:0.004" d="M 316.5,797.5 C 317.833,798.167 317.833,798.167 316.5,797.5 Z"/>
 </g>
 <g>
  <path fill="#edeff0" style="opacity:0.004" d="M 346.5,812.5 C 345.833,813.167 345.833,813.167 346.5,812.5 Z"/>
 </g>
 <g>
  <path fill="#f0f2f2" style="opacity:0.004" d="M 668.5,817.5 C 669.833,818.167 669.833,818.167 668.5,817.5 Z"/>
 </g>
 <g>
  <path fill="#edf0f0" style="opacity:0.012" d="M 359.5,820.5 C 360.833,821.167 360.833,821.167 359.5,820.5 Z"/>
 </g>
 <g>
  <path fill="#eef2f1" style="opacity:0.008" d="M 660.5,821.5 C 661.833,822.167 661.833,822.167 660.5,821.5 Z"/>
 </g>
 <g>
  <path fill="#eef3f2" style="opacity:0.012" d="M 375.5,827.5 C 376.833,828.167 376.833,828.167 375.5,827.5 Z"/>
 </g>
 <g>
  <path fill="#edf2f1" style="opacity:0.012" d="M 377.5,828.5 C 378.833,829.167 378.833,829.167 377.5,828.5 Z"/>
 </g>
 <g>
  <path fill="#eef3f0" style="opacity:0.004" d="M 380.5,829.5 C 381.833,830.167 381.833,830.167 380.5,829.5 Z"/>
 </g>
 <g>
  <path fill="#f0f2f1" style="opacity:0.004" d="M 642.5,829.5 C 643.833,830.167 643.833,830.167 642.5,829.5 Z"/>
 </g>
 <g>
  <path fill="#eff3f1" style="opacity:0.004" d="M 639.5,830.5 C 640.833,831.167 640.833,831.167 639.5,830.5 Z"/>
 </g>
 <g>
  <path fill="#eef1f2" style="opacity:0.004" d="M 391.5,834.5 C 392.833,835.167 392.833,835.167 391.5,834.5 Z"/>
 </g>
 <g>
  <path fill="#eef3f2" style="opacity:0.004" d="M 394.5,834.5 C 393.833,835.167 393.833,835.167 394.5,834.5 Z"/>
 </g>
 <g>
  <path fill="#f0f3f3" style="opacity:0.004" d="M 626.5,835.5 C 627.833,836.167 627.833,836.167 626.5,835.5 Z"/>
 </g>
 <g>
  <path fill="#eff3f2" style="opacity:0.004" d="M 400.5,836.5 C 399.833,837.167 399.833,837.167 400.5,836.5 Z"/>
 </g>
 <g>
  <path fill="#edf2f0" style="opacity:0.008" d="M 402.5,838.5 C 403.833,839.167 403.833,839.167 402.5,838.5 Z"/>
 </g>
 <g>
  <path fill="#f1f4f3" style="opacity:0.004" d="M 418.5,842.5 C 419.833,843.167 419.833,843.167 418.5,842.5 Z"/>
 </g>
 <g>
  <path fill="#f0f1f2" style="opacity:0.016" d="M 425.5,844.5 C 426.833,845.167 426.833,845.167 425.5,844.5 Z"/>
 </g>
 <g>
  <path fill="#f1f3f2" style="opacity:0.004" d="M 432.5,845.5 C 433.463,846.363 433.463,847.03 432.5,847.5C 431.227,846.743 431.227,846.077 432.5,845.5 Z"/>
 </g>
 <g>
  <path fill="#f2f4f4" style="opacity:0.006" d="M 587.5,847.5 C 588.251,846.427 589.251,846.26 590.5,847C 589.552,847.483 588.552,847.649 587.5,847.5 Z"/>
 </g>
 <g>
  <path fill="#f1f3f3" style="opacity:0.004" d="M 449.5,849.5 C 450.833,850.167 450.833,850.167 449.5,849.5 Z"/>
 </g>
 <g>
  <path fill="#f2f3f3" style="opacity:0.008" d="M 459.5,851.5 C 460.833,852.167 460.833,852.167 459.5,851.5 Z"/>
 </g>
 <g>
  <path fill="#f4f6f5" style="opacity:0.004" d="M 561.5,851.5 C 562.833,852.167 562.833,852.167 561.5,851.5 Z"/>
 </g>
 <g>
  <path fill="#f3f5f5" style="opacity:0.004" d="M 552.5,853.5 C 552.897,852.475 553.563,852.308 554.5,853C 553.906,853.464 553.239,853.631 552.5,853.5 Z"/>
 </g>
 <g>
  <path fill="#f1f4f3" style="opacity:0.008" d="M 475.5,854.5 C 476.251,853.427 477.251,853.26 478.5,854C 477.552,854.483 476.552,854.649 475.5,854.5 Z"/>
 </g>
 <g>
  <path fill="#f6f9f6" style="opacity:0.012" d="M 479.5,853.5 C 480.833,854.167 480.833,854.167 479.5,853.5 Z"/>
 </g>
 <g>
  <path fill="#f3f6f5" style="opacity:0.006" d="M 543.5,854.5 C 543.897,853.475 544.563,853.308 545.5,854C 544.906,854.464 544.239,854.631 543.5,854.5 Z"/>
 </g>
 <g>
  <path fill="#f4f7f6" style="opacity:0.004" d="M 487.5,854.5 C 488.833,855.167 488.833,855.167 487.5,854.5 Z"/>
 </g>
 <g>
  <path fill="#f4f5f5" style="opacity:0.012" d="M 490.5,855.5 C 491.251,854.427 492.251,854.26 493.5,855C 492.552,855.483 491.552,855.649 490.5,855.5 Z"/>
 </g>
 <g>
  <path fill="#f4f5f6" style="opacity:0.004" d="M 528.5,854.5 C 529.833,855.167 529.833,855.167 528.5,854.5 Z"/>
 </g>
 <g>
  <path fill="#f5f7f5" style="opacity:0.014" d="M 531.5,855.5 C 531.897,854.475 532.563,854.308 533.5,855C 532.906,855.464 532.239,855.631 531.5,855.5 Z"/>
 </g>
 <g>
  <path fill="#000000" style="opacity:0.004" d="M 95.5,922.5 C 96.8333,923.167 96.8333,923.167 95.5,922.5 Z"/>
 </g>
 <g>
  <path fill="#282a28" style="opacity:0.004" d="M 307.5,933.5 C 308.833,934.167 308.833,934.167 307.5,933.5 Z"/>
 </g>
 <g>
  <path fill="#000000" style="opacity:0.004" d="M 842.5,964.5 C 843.833,965.167 843.833,965.167 842.5,964.5 Z"/>
 </g>
</svg>
