<?xml version='1.0' encoding='UTF-8'?>
<!DOCTYPE svg PUBLIC '-//W3C//DTD SVG 1.1//EN' 'http://www.w3.org/Graphics/SVG/1.1/DTD/svg11.dtd'>
<svg height="1024px" version="1.1" xmlns:xlink="http://www.w3.org/1999/xlink" style="shape-rendering:geometricPrecision; text-rendering:geometricPrecision; image-rendering:optimizeQuality; fill-rule:evenodd; clip-rule:evenodd" xmlns="http://www.w3.org/2000/svg" width="1024px">
 <g>
  <path fill="#090c09" style="opacity:0.004" d="M 795.5,61.5 C 796.833,62.1667 796.833,62.1667 795.5,61.5 Z"/>
 </g>
 <g>
  <path fill="#f5f8f7" style="opacity:0.004" d="M 491.5,178.5 C 492.833,179.167 492.833,179.167 491.5,178.5 Z"/>
 </g>
 <g>
  <path fill="#f4f6f6" style="opacity:0.004" d="M 525.5,179.5 C 525.897,178.475 526.563,178.308 527.5,179C 526.906,179.464 526.239,179.631 525.5,179.5 Z"/>
 </g>
 <g>
  <path fill="#f5f7f7" style="opacity:0.004" d="M 529.5,178.5 C 530.833,179.167 530.833,179.167 529.5,178.5 Z"/>
 </g>
 <g>
  <path fill="#f4f6f4" style="opacity:0.008" d="M 467.5,180.5 C 468.833,181.167 468.833,181.167 467.5,180.5 Z"/>
 </g>
 <g>
  <path fill="#fdfefe" style="opacity:0.995" d="M 605.5,192.5 C 631.436,200.517 656.77,211.183 681.5,224.5C 695.811,233.66 709.811,243.327 723.5,253.5C 752.901,277.981 777.901,306.315 798.5,338.5C 856.246,440.26 863.246,545.26 819.5,653.5C 816.716,657.405 814.716,661.738 813.5,666.5C 812.326,667.514 811.66,668.847 811.5,670.5C 798.467,694.192 783.467,716.525 766.5,737.5C 691.791,822.825 597.458,861.992 483.5,855C 450.501,852.409 419.834,845.242 391.5,833.5C 386.343,832.169 381.343,830.336 376.5,828C 366.145,822.822 355.811,817.656 345.5,812.5C 343.664,810.412 341.331,809.079 338.5,808.5C 326.069,799.918 313.736,791.084 301.5,782C 289.362,771.696 277.695,760.863 266.5,749.5C 264.906,746.236 262.573,743.569 259.5,741.5C 253.493,733.828 247.493,726.161 241.5,718.5C 239.066,714.618 236.399,710.952 233.5,707.5C 233.672,706.508 233.338,705.842 232.5,705.5C 231.396,703.611 230.063,701.945 228.5,700.5C 222.549,689.987 216.382,678.987 210,667.5C 204.379,654.774 198.879,642.107 193.5,629.5C 186.074,603.121 180.241,577.121 176,551.5C 175.183,527.562 175.35,503.562 176.5,479.5C 180.56,446.926 188.56,415.26 200.5,384.5C 210.881,362.734 222.548,341.734 235.5,321.5C 237.9,319.704 239.567,317.37 240.5,314.5C 242.587,313.415 243.92,311.749 244.5,309.5C 246.543,308.421 247.876,306.754 248.5,304.5C 273.138,274.48 301.471,249.48 333.5,229.5C 335.23,228.974 336.564,227.974 337.5,226.5C 422.146,179.315 511.479,167.982 605.5,192.5 Z"/>
 </g>
 <g>
  <path fill="#f3f7f6" style="opacity:0.004" d="M 550.5,180.5 C 551.833,181.167 551.833,181.167 550.5,180.5 Z"/>
 </g>
 <g>
  <path fill="#f2f6f6" style="opacity:0.008" d="M 448.5,183.5 C 449.833,184.167 449.833,184.167 448.5,183.5 Z"/>
 </g>
 <g>
  <path fill="#f2f5f6" style="opacity:0.008" d="M 582.5,185.5 C 583.833,186.167 583.833,186.167 582.5,185.5 Z"/>
 </g>
 <g>
  <path fill="#f1f3f4" style="opacity:0.008" d="M 605.5,192.5 C 605.897,191.475 606.563,191.308 607.5,192C 606.906,192.464 606.239,192.631 605.5,192.5 Z"/>
 </g>
 <g>
  <path fill="#f3f7f7" style="opacity:0.004" d="M 411.5,192.5 C 412.833,193.167 412.833,193.167 411.5,192.5 Z"/>
 </g>
 <g>
  <path fill="#f0f3f4" style="opacity:0.004" d="M 611.5,192.5 C 612.833,193.167 612.833,193.167 611.5,192.5 Z"/>
 </g>
 <g>
  <path fill="#f1f5f4" style="opacity:0.008" d="M 613.5,194.5 C 613.897,193.475 614.563,193.308 615.5,194C 614.906,194.464 614.239,194.631 613.5,194.5 Z"/>
 </g>
 <g>
  <path fill="#f1f6f6" style="opacity:0.008" d="M 387.5,200.5 C 388.833,201.167 388.833,201.167 387.5,200.5 Z"/>
 </g>
 <g>
  <path fill="#e8ece9" style="opacity:0.004" d="M 646.5,200.5 C 647.833,201.167 647.833,201.167 646.5,200.5 Z"/>
 </g>
 <g>
  <path fill="#f3f7f6" style="opacity:0.008" d="M 384.5,201.5 C 385.833,202.167 385.833,202.167 384.5,201.5 Z"/>
 </g>
 <g>
  <path fill="#3a89ac" style="opacity:0.999" d="M 502.5,201.5 C 616.262,201.881 706.429,247.881 773,339.5C 831.789,432.606 842.122,530.939 804,634.5C 765.42,726.458 698.92,788.625 604.5,821C 492.826,851.739 392.826,830.073 304.5,756C 217.391,674.68 183.224,574.847 202,456.5C 221.015,366.91 268.848,297.41 345.5,248C 393.858,218.823 446.192,203.323 502.5,201.5 Z"/>
 </g>
 <g>
  <path fill="#eef1f0" style="opacity:0.004" d="M 641.5,203.5 C 642.833,204.167 642.833,204.167 641.5,203.5 Z"/>
 </g>
 <g>
  <path fill="#f2f6f4" style="opacity:0.004" d="M 363.5,210.5 C 364.833,211.167 364.833,211.167 363.5,210.5 Z"/>
 </g>
 <g>
  <path fill="#f0f4f4" style="opacity:0.008" d="M 657.5,210.5 C 658.833,211.167 658.833,211.167 657.5,210.5 Z"/>
 </g>
 <g>
  <path fill="#f0f3f3" style="opacity:0.008" d="M 659.5,211.5 C 660.833,212.167 660.833,212.167 659.5,211.5 Z"/>
 </g>
 <g>
  <path fill="#f1f3f4" style="opacity:0.008" d="M 673.5,218.5 C 674.833,219.167 674.833,219.167 673.5,218.5 Z"/>
 </g>
 <g>
  <path fill="#f0f4f4" style="opacity:0.006" d="M 681.5,224.5 C 682.167,223.167 682.833,223.167 683.5,224.5C 682.833,224.5 682.167,224.5 681.5,224.5 Z"/>
 </g>
 <g>
  <path fill="#f0f3f3" style="opacity:0.004" d="M 683.5,224.5 C 684.833,225.167 684.833,225.167 683.5,224.5 Z"/>
 </g>
 <g>
  <path fill="#eef3f3" style="opacity:0.008" d="M 337.5,226.5 C 336.833,225.167 336.833,225.167 337.5,226.5 Z"/>
 </g>
 <g>
  <path fill="#eff0f1" style="opacity:0.004" d="M 333.5,229.5 C 332.833,228.167 332.833,228.167 333.5,229.5 Z"/>
 </g>
 <g>
  <path fill="#edf1ef" style="opacity:0.004" d="M 310.5,240.5 C 311.833,241.167 311.833,241.167 310.5,240.5 Z"/>
 </g>
 <g>
  <path fill="#f1f2f3" style="opacity:0.008" d="M 310.5,242.5 C 311.833,243.167 311.833,243.167 310.5,242.5 Z"/>
 </g>
 <g>
  <path fill="#edf2f2" style="opacity:0.004" d="M 723.5,252.5 C 724.833,253.167 724.833,253.167 723.5,252.5 Z"/>
 </g>
 <g>
  <path fill="#eff3f4" style="opacity:0.004" d="M 284.5,263.5 C 285.833,264.167 285.833,264.167 284.5,263.5 Z"/>
 </g>
 <g>
  <path fill="#fefefe" style="opacity:0.999" d="M 506.5,262.5 C 595.783,263.557 667.283,299.557 721,370.5C 766.516,440.446 777.516,515.446 754,595.5C 729.368,667.799 682.535,720.299 613.5,753C 526.85,788.438 444.516,780.105 366.5,728C 280.996,662.418 246.162,575.918 262,468.5C 278.059,393.836 318.559,336.669 383.5,297C 421.879,275.659 462.879,264.159 506.5,262.5 Z"/>
 </g>
 <g>
  <path fill="#f0f4f3" style="opacity:0.004" d="M 284.5,264.5 C 283.833,265.167 283.833,265.167 284.5,264.5 Z"/>
 </g>
 <g>
  <path fill="#eff2f1" style="opacity:0.004" d="M 758.5,281.5 C 759.833,282.167 759.833,282.167 758.5,281.5 Z"/>
 </g>
 <g>
  <path fill="#3a89ac" style="opacity:0.999" d="M 499.5,285.5 C 594.446,284.218 666.279,324.218 715,405.5C 744.382,461.194 751.048,519.528 735,580.5C 711.238,658.595 661.072,711.761 584.5,740C 489.394,767.042 407.561,744.876 339,673.5C 284.494,607.449 268.161,532.782 290,449.5C 317.646,368.76 372.48,316.593 454.5,293C 469.48,289.506 484.48,287.006 499.5,285.5 Z"/>
 </g>
 <g>
  <path fill="#f0f3f3" style="opacity:0.004" d="M 771.5,299.5 C 772.833,300.167 772.833,300.167 771.5,299.5 Z"/>
 </g>
 <g>
  <path fill="#f1f4f2" style="opacity:0.008" d="M 248.5,304.5 C 247.833,303.167 247.833,303.167 248.5,304.5 Z"/>
 </g>
 <g>
  <path fill="#eef1f3" style="opacity:0.012" d="M 244.5,309.5 C 243.833,308.167 243.833,308.167 244.5,309.5 Z"/>
 </g>
 <g>
  <path fill="#f2f4f5" style="opacity:0.008" d="M 240.5,314.5 C 239.833,313.167 239.833,313.167 240.5,314.5 Z"/>
 </g>
 <g>
  <path fill="#fdfefe" style="opacity:0.999" d="M 505.5,313.5 C 514.102,312.536 521.769,314.703 528.5,320C 548.996,342.163 569.83,363.996 591,385.5C 600.746,403.122 596.579,416.288 578.5,425C 572.276,426.061 566.276,425.394 560.5,423C 553.395,417.564 546.895,411.398 541,404.5C 540.009,434.645 540.342,464.645 542,494.5C 570.47,493.17 598.97,493.17 627.5,494.5C 628.521,493.998 628.688,493.332 628,492.5C 621.208,486.714 615.541,480.048 611,472.5C 606.747,458.301 610.913,447.467 623.5,440C 632.718,436.222 641.385,437.222 649.5,443C 668.639,462.813 688.972,481.147 710.5,498C 726.324,512.689 726.324,527.356 710.5,542C 689.267,559.561 668.933,578.228 649.5,598C 635.329,606.872 623.162,604.705 613,591.5C 608.333,582.5 608.333,573.5 613,564.5C 617.349,559.097 622.183,554.263 627.5,550C 598.502,549.5 569.502,549.333 540.5,549.5C 540.167,577.841 540.5,606.175 541.5,634.5C 546.828,628.708 552.494,623.208 558.5,618C 577.135,610.074 589.635,615.574 596,634.5C 597.035,640.515 596.035,646.182 593,651.5C 571.982,675.192 550.149,698.358 527.5,721C 515.313,728.857 503.646,728.19 492.5,719C 472.333,697.5 452.167,676 432,654.5C 423.402,640.784 425.236,628.618 437.5,618C 450.962,611.643 462.628,613.977 472.5,625C 475.538,627.703 478.205,630.703 480.5,634C 481.332,634.688 481.998,634.521 482.5,633.5C 481.17,605.97 481.17,578.47 482.5,551C 453.646,549.343 424.646,549.009 395.5,550C 403.791,554.756 409.624,561.59 413,570.5C 415.449,592.041 405.949,602.875 384.5,603C 380.456,602.144 376.789,600.478 373.5,598C 353.773,577.607 332.773,558.607 310.5,541C 298.022,526.095 298.689,511.762 312.5,498C 334.387,480.784 355.054,462.118 374.5,442C 388.507,434.629 400.341,437.129 410,449.5C 414.929,459.348 414.596,469.014 409,478.5C 404.167,483.333 399.333,488.167 394.5,493C 423.498,493.5 452.498,493.667 481.5,493.5C 481.667,464.165 481.5,434.831 481,405.5C 475.412,413.09 468.579,419.256 460.5,424C 441.545,428.839 430.212,421.506 426.5,402C 427.092,395.556 429.258,389.722 433,384.5C 452.888,363.453 472.721,342.287 492.5,321C 496.602,317.954 500.935,315.454 505.5,313.5 Z"/>
 </g>
 <g>
  <path fill="#f1f5f4" style="opacity:0.004" d="M 235.5,321.5 C 234.833,320.167 234.833,320.167 235.5,321.5 Z"/>
 </g>
 <g>
  <path fill="#3a89ac" style="opacity:0.999" d="M 506.5,322.5 C 511.449,321.959 516.116,322.792 520.5,325C 541.635,347.803 563.135,370.303 585,392.5C 589.525,402.591 587.025,410.424 577.5,416C 571.657,417.324 566.324,416.324 561.5,413C 551.646,403.413 542.146,393.579 533,383.5C 532.5,423.165 532.333,462.832 532.5,502.5C 571.586,502.988 610.586,502.488 649.5,501C 640.614,492.445 631.78,483.945 623,475.5C 616.327,465.904 617.16,457.071 625.5,449C 632.624,445.224 639.291,445.891 645.5,451C 651.162,457.662 657.162,463.995 663.5,470C 679.134,483.392 694.634,496.892 710,510.5C 711.7,513.467 712.867,516.633 713.5,520C 711.94,527.572 707.94,533.572 701.5,538C 681.465,554.524 662.465,572.19 644.5,591C 630.281,597.725 621.281,593.392 617.5,578C 618.111,573.655 619.777,569.821 622.5,566.5C 631.675,558.49 640.675,550.323 649.5,542C 610.501,541.5 571.501,541.333 532.5,541.5C 532.333,579.501 532.5,617.501 533,655.5C 542.833,645.667 552.667,635.833 562.5,626C 573.637,620.325 581.804,623.158 587,634.5C 587.667,637.5 587.667,640.5 587,643.5C 584.05,648.118 580.716,652.452 577,656.5C 558.984,675.015 541.151,693.682 523.5,712.5C 513.439,719.933 504.272,718.933 496,709.5C 476.972,689.141 457.972,668.807 439,648.5C 432.718,635.396 436.551,626.729 450.5,622.5C 454.028,623.106 457.361,624.272 460.5,626C 470.471,636.3 480.304,646.466 490,656.5C 490.5,618.168 490.667,579.835 490.5,541.5C 451.499,541.333 412.499,541.5 373.5,542C 382.369,550.538 391.536,558.704 401,566.5C 407.353,575.949 406.186,584.449 397.5,592C 390.414,595.655 383.747,594.988 377.5,590C 371.56,583.057 365.226,576.39 358.5,570C 345.142,558.637 331.808,547.304 318.5,536C 305.91,524.329 306.577,513.329 320.5,503C 341.419,485.898 361.419,467.898 380.5,449C 391.052,444.295 398.886,447.129 404,457.5C 405.068,462.768 404.401,467.768 402,472.5C 392.137,482.697 381.971,492.53 371.5,502C 410.949,502.48 450.615,502.647 490.5,502.5C 490.667,462.499 490.5,422.499 490,382.5C 479.833,393.333 469.667,404.167 459.5,415C 445.95,419.402 437.95,414.736 435.5,401C 435.952,397.591 437.119,394.424 439,391.5C 459.044,370.625 478.877,349.625 498.5,328.5C 500.926,326.059 503.593,324.059 506.5,322.5 Z"/>
 </g>
 <g>
  <path fill="#eff5f4" style="opacity:0.004" d="M 798.5,337.5 C 799.833,338.167 799.833,338.167 798.5,337.5 Z"/>
 </g>
 <g>
  <path fill="#f1f4f2" style="opacity:0.004" d="M 211.5,357.5 C 212.833,358.167 212.833,358.167 211.5,357.5 Z"/>
 </g>
 <g>
  <path fill="#f1f3f4" style="opacity:0.004" d="M 203.5,373.5 C 204.833,374.167 204.833,374.167 203.5,373.5 Z"/>
 </g>
 <g>
  <path fill="#f3f6f6" style="opacity:0.004" d="M 201.5,378.5 C 202.833,379.167 202.833,379.167 201.5,378.5 Z"/>
 </g>
 <g>
  <path fill="#f0f5f5" style="opacity:0.004" d="M 200.5,380.5 C 201.833,381.167 201.833,381.167 200.5,380.5 Z"/>
 </g>
 <g>
  <path fill="#f0f2f3" style="opacity:0.008" d="M 200.5,384.5 C 199.475,384.103 199.308,383.437 200,382.5C 200.464,383.094 200.631,383.761 200.5,384.5 Z"/>
 </g>
 <g>
  <path fill="#f0f5f4" style="opacity:0.008" d="M 830.5,404.5 C 831.833,405.167 831.833,405.167 830.5,404.5 Z"/>
 </g>
 <g>
  <path fill="#f4f5f3" style="opacity:0.004" d="M 187.5,416.5 C 188.833,417.167 188.833,417.167 187.5,416.5 Z"/>
 </g>
 <g>
  <path fill="#f4f5f6" style="opacity:0.004" d="M 835.5,420.5 C 836.833,421.167 836.833,421.167 835.5,420.5 Z"/>
 </g>
 <g>
  <path fill="#f5f7f5" style="opacity:0.004" d="M 836.5,423.5 C 837.833,424.167 837.833,424.167 836.5,423.5 Z"/>
 </g>
 <g>
  <path fill="#f4f6f4" style="opacity:0.004" d="M 841.5,443.5 C 842.833,444.167 842.833,444.167 841.5,443.5 Z"/>
 </g>
 <g>
  <path fill="#f1f3f5" style="opacity:0.004" d="M 844.5,448.5 C 845.833,449.167 845.833,449.167 844.5,448.5 Z"/>
 </g>
 <g>
  <path fill="#f4f7f9" style="opacity:0.004" d="M 177.5,459.5 C 178.833,460.167 178.833,460.167 177.5,459.5 Z"/>
 </g>
 <g>
  <path fill="#f4f6f6" style="opacity:0.004" d="M 845.5,463.5 C 846.573,464.251 846.74,465.251 846,466.5C 845.517,465.552 845.351,464.552 845.5,463.5 Z"/>
 </g>
 <g>
  <path fill="#f6f9f7" style="opacity:0.004" d="M 175.5,472.5 C 176.833,473.167 176.833,473.167 175.5,472.5 Z"/>
 </g>
 <g>
  <path fill="#f6f8f8" style="opacity:0.009" d="M 846.5,472.5 C 847.573,473.251 847.74,474.251 847,475.5C 846.517,474.552 846.351,473.552 846.5,472.5 Z"/>
 </g>
 <g>
  <path fill="#f9f9f9" style="opacity:0.012" d="M 175.5,474.5 C 176.833,475.167 176.833,475.167 175.5,474.5 Z"/>
 </g>
 <g>
  <path fill="#f3f8f7" style="opacity:0.004" d="M 846.5,476.5 C 847.833,477.167 847.833,477.167 846.5,476.5 Z"/>
 </g>
 <g>
  <path fill="#f5faf8" style="opacity:0.004" d="M 176.5,479.5 C 175.833,478.167 175.833,478.167 176.5,479.5 Z"/>
 </g>
 <g>
  <path fill="#f4f6f8" style="opacity:0.009" d="M 846.5,552.5 C 847.573,553.251 847.74,554.251 847,555.5C 846.517,554.552 846.351,553.552 846.5,552.5 Z"/>
 </g>
 <g>
  <path fill="#f5faf8" style="opacity:0.004" d="M 175.5,555.5 C 176.833,556.167 176.833,556.167 175.5,555.5 Z"/>
 </g>
 <g>
  <path fill="#f5f6f7" style="opacity:0.008" d="M 846.5,556.5 C 847.833,557.167 847.833,557.167 846.5,556.5 Z"/>
 </g>
 <g>
  <path fill="#f5f8fa" style="opacity:0.012" d="M 176.5,568.5 C 177.077,567.227 177.743,567.227 178.5,568.5C 178.03,569.463 177.363,569.463 176.5,568.5 Z"/>
 </g>
 <g>
  <path fill="#f3f7f5" style="opacity:0.008" d="M 844.5,569.5 C 845.833,570.167 845.833,570.167 844.5,569.5 Z"/>
 </g>
 <g>
  <path fill="#f5f8f9" style="opacity:0.008" d="M 177.5,570.5 C 178.573,571.251 178.74,572.251 178,573.5C 177.517,572.552 177.351,571.552 177.5,570.5 Z"/>
 </g>
 <g>
  <path fill="#f4f8f6" style="opacity:0.004" d="M 843.5,574.5 C 844.833,575.167 844.833,575.167 843.5,574.5 Z"/>
 </g>
 <g>
  <path fill="#f5f9f7" style="opacity:0.004" d="M 179.5,579.5 C 180.833,580.167 180.833,580.167 179.5,579.5 Z"/>
 </g>
 <g>
  <path fill="#f4f5f6" style="opacity:0.004" d="M 838.5,598.5 C 839.833,599.167 839.833,599.167 838.5,598.5 Z"/>
 </g>
 <g>
  <path fill="#f3f7f8" style="opacity:0.004" d="M 184.5,603.5 C 185.525,603.897 185.692,604.563 185,605.5C 184.536,604.906 184.369,604.239 184.5,603.5 Z"/>
 </g>
 <g>
  <path fill="#f5f7f8" style="opacity:0.006" d="M 836.5,605.5 C 837.525,605.897 837.692,606.563 837,607.5C 836.536,606.906 836.369,606.239 836.5,605.5 Z"/>
 </g>
 <g>
  <path fill="#f1f8f6" style="opacity:0.004" d="M 185.5,606.5 C 186.833,607.167 186.833,607.167 185.5,606.5 Z"/>
 </g>
 <g>
  <path fill="#f4f7f8" style="opacity:0.012" d="M 193.5,629.5 C 192.833,630.167 192.833,630.167 193.5,629.5 Z"/>
 </g>
 <g>
  <path fill="#f2f7f8" style="opacity:0.006" d="M 193.5,632.5 C 194.525,632.897 194.692,633.563 194,634.5C 193.536,633.906 193.369,633.239 193.5,632.5 Z"/>
 </g>
 <g>
  <path fill="#f3f7f7" style="opacity:0.004" d="M 195.5,637.5 C 196.833,638.167 196.833,638.167 195.5,637.5 Z"/>
 </g>
 <g>
  <path fill="#f2f5f5" style="opacity:0.004" d="M 822.5,646.5 C 823.833,647.167 823.833,647.167 822.5,646.5 Z"/>
 </g>
 <g>
  <path fill="#f4f8f8" style="opacity:0.004" d="M 200.5,650.5 C 201.833,651.167 201.833,651.167 200.5,650.5 Z"/>
 </g>
 <g>
  <path fill="#f2f6f8" style="opacity:0.004" d="M 201.5,652.5 C 202.833,653.167 202.833,653.167 201.5,652.5 Z"/>
 </g>
 <g>
  <path fill="#f1f6f4" style="opacity:0.004" d="M 819.5,653.5 C 820.833,654.167 820.833,654.167 819.5,653.5 Z"/>
 </g>
 <g>
  <path fill="#f2f3f4" style="opacity:0.004" d="M 204.5,659.5 C 205.833,660.167 205.833,660.167 204.5,659.5 Z"/>
 </g>
 <g>
  <path fill="#f1f4f6" style="opacity:0.008" d="M 207.5,665.5 C 208.833,666.167 208.833,666.167 207.5,665.5 Z"/>
 </g>
 <g>
  <path fill="#f4f7f8" style="opacity:0.012" d="M 813.5,666.5 C 814.833,667.167 814.833,667.167 813.5,666.5 Z"/>
 </g>
 <g>
  <path fill="#f2f5f4" style="opacity:0.004" d="M 207.5,668.5 C 208.833,669.167 208.833,669.167 207.5,668.5 Z"/>
 </g>
 <g>
  <path fill="#f3f7f7" style="opacity:0.004" d="M 812.5,669.5 C 813.833,670.167 813.833,670.167 812.5,669.5 Z"/>
 </g>
 <g>
  <path fill="#f4f7f6" style="opacity:0.004" d="M 811.5,670.5 C 811.833,670.5 812.167,670.5 812.5,670.5C 812.315,671.17 811.981,671.17 811.5,670.5 Z"/>
 </g>
 <g>
  <path fill="#f3f7f5" style="opacity:0.004" d="M 212.5,675.5 C 213.833,676.167 213.833,676.167 212.5,675.5 Z"/>
 </g>
 <g>
  <path fill="#f2f5f4" style="opacity:0.004" d="M 797.5,695.5 C 798.833,696.167 798.833,696.167 797.5,695.5 Z"/>
 </g>
 <g>
  <path fill="#f1f4f6" style="opacity:0.008" d="M 228.5,700.5 C 228.631,701.239 228.464,701.906 228,702.5C 227.308,701.563 227.475,700.897 228.5,700.5 Z"/>
 </g>
 <g>
  <path fill="#f0f3f3" style="opacity:0.004" d="M 232.5,705.5 C 232.5,706.167 232.5,706.833 232.5,707.5C 231.167,706.833 231.167,706.167 232.5,705.5 Z"/>
 </g>
 <g>
  <path fill="#f0f3f5" style="opacity:0.004" d="M 232.5,707.5 C 232.833,707.5 233.167,707.5 233.5,707.5C 233.167,710.167 232.833,710.167 232.5,707.5 Z"/>
 </g>
 <g>
  <path fill="#eff3f3" style="opacity:0.004" d="M 241.5,718.5 C 240.833,719.167 240.833,719.167 241.5,718.5 Z"/>
 </g>
 <g>
  <path fill="#f1f5f5" style="opacity:0.004" d="M 781.5,719.5 C 782.833,720.167 782.833,720.167 781.5,719.5 Z"/>
 </g>
 <g>
  <path fill="#f1f3f4" style="opacity:0.004" d="M 781.5,720.5 C 780.833,721.167 780.833,721.167 781.5,720.5 Z"/>
 </g>
 <g>
  <path fill="#eff4f2" style="opacity:0.004" d="M 241.5,722.5 C 242.833,723.167 242.833,723.167 241.5,722.5 Z"/>
 </g>
 <g>
  <path fill="#eff4f6" style="opacity:0.004" d="M 243.5,723.5 C 244.833,724.167 244.833,724.167 243.5,723.5 Z"/>
 </g>
 <g>
  <path fill="#f0f5f5" style="opacity:0.004" d="M 766.5,737.5 C 767.833,738.167 767.833,738.167 766.5,737.5 Z"/>
 </g>
 <g>
  <path fill="#eff3f3" style="opacity:0.004" d="M 259.5,741.5 C 258.833,742.167 258.833,742.167 259.5,741.5 Z"/>
 </g>
 <g>
  <path fill="#f0f4f4" style="opacity:0.004" d="M 266.5,749.5 C 265.833,750.167 265.833,750.167 266.5,749.5 Z"/>
 </g>
 <g>
  <path fill="#eff3f3" style="opacity:0.004" d="M 722.5,781.5 C 723.833,782.167 723.833,782.167 722.5,781.5 Z"/>
 </g>
 <g>
  <path fill="#eaeeec" style="opacity:0.004" d="M 316.5,797.5 C 317.833,798.167 317.833,798.167 316.5,797.5 Z"/>
 </g>
 <g>
  <path fill="#eef2f2" style="opacity:0.004" d="M 338.5,808.5 C 337.833,809.167 337.833,809.167 338.5,808.5 Z"/>
 </g>
 <g>
  <path fill="#f0f4f4" style="opacity:0.004" d="M 345.5,812.5 C 344.833,813.167 344.833,813.167 345.5,812.5 Z"/>
 </g>
 <g>
  <path fill="#edf1f0" style="opacity:0.004" d="M 354.5,818.5 C 355.833,819.167 355.833,819.167 354.5,818.5 Z"/>
 </g>
 <g>
  <path fill="#f0f3f1" style="opacity:0.008" d="M 651.5,826.5 C 652.833,827.167 652.833,827.167 651.5,826.5 Z"/>
 </g>
 <g>
  <path fill="#eef1f2" style="opacity:0.008" d="M 647.5,828.5 C 648.833,829.167 648.833,829.167 647.5,828.5 Z"/>
 </g>
 <g>
  <path fill="#e9eced" style="opacity:0.004" d="M 383.5,836.5 C 384.833,837.167 384.833,837.167 383.5,836.5 Z"/>
 </g>
 <g>
  <path fill="#eff1f2" style="opacity:0.01" d="M 393.5,837.5 C 393.897,836.475 394.563,836.308 395.5,837C 394.906,837.464 394.239,837.631 393.5,837.5 Z"/>
 </g>
 <g>
  <path fill="#eef1f2" style="opacity:0.008" d="M 399.5,839.5 C 399.897,838.475 400.563,838.308 401.5,839C 400.906,839.464 400.239,839.631 399.5,839.5 Z"/>
 </g>
 <g>
  <path fill="#f2f5f4" style="opacity:0.004" d="M 622.5,838.5 C 623.833,839.167 623.833,839.167 622.5,838.5 Z"/>
 </g>
 <g>
  <path fill="#f1f6f4" style="opacity:0.016" d="M 424.5,846.5 C 423.833,845.167 423.833,845.167 424.5,846.5 Z"/>
 </g>
 <g>
  <path fill="#f2f4f6" style="opacity:0.004" d="M 599.5,846.5 C 599.897,845.475 600.563,845.308 601.5,846C 600.906,846.464 600.239,846.631 599.5,846.5 Z"/>
 </g>
 <g>
  <path fill="#eff4f3" style="opacity:0.004" d="M 424.5,846.5 C 425.833,847.167 425.833,847.167 424.5,846.5 Z"/>
 </g>
 <g>
  <path fill="#f2f5f3" style="opacity:0.006" d="M 596.5,847.5 C 596.897,846.475 597.563,846.308 598.5,847C 597.906,847.464 597.239,847.631 596.5,847.5 Z"/>
 </g>
 <g>
  <path fill="#f1f3f4" style="opacity:0.008" d="M 581.5,850.5 C 581.897,849.475 582.563,849.308 583.5,850C 582.906,850.464 582.239,850.631 581.5,850.5 Z"/>
 </g>
 <g>
  <path fill="#f1f3f4" style="opacity:0.008" d="M 448.5,851.5 C 449.833,852.167 449.833,852.167 448.5,851.5 Z"/>
 </g>
 <g>
  <path fill="#f0f4f3" style="opacity:0.004" d="M 455.5,852.5 C 456.833,853.167 456.833,853.167 455.5,852.5 Z"/>
 </g>
 <g>
  <path fill="#eff2f1" style="opacity:0.004" d="M 459.5,853.5 C 460.833,854.167 460.833,854.167 459.5,853.5 Z"/>
 </g>
 <g>
  <path fill="#f3f6f4" style="opacity:0.008" d="M 559.5,853.5 C 560.833,854.167 560.833,854.167 559.5,853.5 Z"/>
 </g>
 <g>
  <path fill="#f3f4f4" style="opacity:0.004" d="M 466.5,855.5 C 466.897,854.475 467.563,854.308 468.5,855C 467.906,855.464 467.239,855.631 466.5,855.5 Z"/>
 </g>
 <g>
  <path fill="#313432" style="opacity:0.004" d="M 307.5,933.5 C 308.833,934.167 308.833,934.167 307.5,933.5 Z"/>
 </g>
 <g>
  <path fill="#010301" style="opacity:0.004" d="M 842.5,964.5 C 843.833,965.167 843.833,965.167 842.5,964.5 Z"/>
 </g>
</svg>
