<?xml version='1.0' encoding='UTF-8'?>
<!DOCTYPE svg PUBLIC '-//W3C//DTD SVG 1.1//EN' 'http://www.w3.org/Graphics/SVG/1.1/DTD/svg11.dtd'>
<svg xmlns:xlink="http://www.w3.org/1999/xlink" style="shape-rendering:geometricPrecision; text-rendering:geometricPrecision; image-rendering:optimizeQuality; fill-rule:evenodd; clip-rule:evenodd" width="1024px" height="1024px" xmlns="http://www.w3.org/2000/svg" version="1.1">
 <g>
  <path style="opacity:0.004" fill="#0e0f0d" d="M 419.5,5.5 C 420.833,6.16667 420.833,6.16667 419.5,5.5 Z"/>
 </g>
 <g>
  <path style="opacity:0.004" fill="#050705" d="M 659.5,13.5 C 660.833,14.1667 660.833,14.1667 659.5,13.5 Z"/>
 </g>
 <g>
  <path style="opacity:0.004" fill="#000000" d="M 723.5,13.5 C 724.833,14.1667 724.833,14.1667 723.5,13.5 Z"/>
 </g>
 <g>
  <path style="opacity:0.004" fill="#000200" d="M 795.5,61.5 C 796.833,62.1667 796.833,62.1667 795.5,61.5 Z"/>
 </g>
 <g>
  <path style="opacity:0.004" fill="#000000" d="M 963.5,101.5 C 964.833,102.167 964.833,102.167 963.5,101.5 Z"/>
 </g>
 <g>
  <path style="opacity:0.004" fill="#242525" d="M 259.5,141.5 C 260.833,142.167 260.833,142.167 259.5,141.5 Z"/>
 </g>
 <g>
  <path style="opacity:0.004" fill="#ecf1f0" d="M 476.5,191.5 C 477.833,192.167 477.833,192.167 476.5,191.5 Z"/>
 </g>
 <g>
  <path style="opacity:0.008" fill="#eff3f2" d="M 546.5,191.5 C 547.833,192.167 547.833,192.167 546.5,191.5 Z"/>
 </g>
 <g>
  <path style="opacity:0.997" fill="#fefefe" d="M 621.5,209.5 C 629.888,213.353 638.555,216.686 647.5,219.5C 648.514,220.674 649.847,221.34 651.5,221.5C 655.182,224.008 659.182,226.008 663.5,227.5C 680.776,237.142 697.442,247.809 713.5,259.5C 760.705,297.035 795.705,343.702 818.5,399.5C 818.733,402.542 819.733,405.208 821.5,407.5C 821.263,408.791 821.596,409.791 822.5,410.5C 823.926,417.435 825.926,424.101 828.5,430.5C 841.118,482.995 841.785,535.662 830.5,588.5C 826.864,600.416 823.197,612.416 819.5,624.5C 804.956,662.938 784.29,697.604 757.5,728.5C 755.086,729.911 753.419,731.911 752.5,734.5C 751.761,734.369 751.094,734.536 750.5,735C 748.666,737.663 746.666,740.163 744.5,742.5C 742.5,743.833 740.833,745.5 739.5,747.5C 738.167,748.167 737.167,749.167 736.5,750.5C 732.88,752.453 729.88,755.119 727.5,758.5C 723.183,761.486 719.183,764.82 715.5,768.5C 708.282,773.602 701.282,778.936 694.5,784.5C 691.802,784.845 689.802,786.178 688.5,788.5C 683.657,790.418 679.323,793.084 675.5,796.5C 663.461,802.519 651.461,808.519 639.5,814.5C 608.811,826.755 577.144,834.755 544.5,838.5C 474.826,844.3 409.493,830.3 348.5,796.5C 340.232,791.024 331.899,785.524 323.5,780C 315.339,774.001 307.339,767.834 299.5,761.5C 291.86,754.194 284.193,746.861 276.5,739.5C 274.5,736.833 272.167,734.5 269.5,732.5C 261.09,722.764 253.09,712.764 245.5,702.5C 244.974,700.77 243.974,699.436 242.5,698.5C 240.735,695.291 238.735,692.291 236.5,689.5C 235.525,687.205 234.192,685.205 232.5,683.5C 231.921,680.669 230.588,678.336 228.5,676.5C 225.151,670.465 221.818,664.465 218.5,658.5C 216.73,653.167 214.397,648.167 211.5,643.5C 211.065,640.843 210.065,638.509 208.5,636.5C 207.013,630.88 205.013,625.547 202.5,620.5C 199.964,612.224 197.63,603.891 195.5,595.5C 191.944,595.725 191.61,594.892 194.5,593C 194.43,592.235 194.097,591.735 193.5,591.5C 172.665,497.82 188.665,411.154 241.5,331.5C 250.582,319.69 259.916,308.023 269.5,296.5C 280.891,285.106 292.558,274.106 304.5,263.5C 308.857,260.136 313.191,256.802 317.5,253.5C 319.23,252.974 320.564,251.974 321.5,250.5C 326.709,247.402 331.709,244.068 336.5,240.5C 338.434,239.89 340.101,238.89 341.5,237.5C 342.71,237.068 343.71,236.401 344.5,235.5C 371.215,220.822 399.215,209.488 428.5,201.5C 467.028,192.655 505.694,189.989 544.5,193.5C 558.467,194.604 573.134,196.937 588.5,200.5C 589.442,200.392 590.275,200.059 591,199.5C 600.889,203.355 611.056,206.688 621.5,209.5 Z"/>
 </g>
 <g>
  <path style="opacity:0.004" fill="#edf2f1" d="M 560.5,193.5 C 561.833,194.167 561.833,194.167 560.5,193.5 Z"/>
 </g>
 <g>
  <path style="opacity:0.006" fill="#eff0f1" d="M 454.5,195.5 C 454.897,194.475 455.563,194.308 456.5,195C 455.906,195.464 455.239,195.631 454.5,195.5 Z"/>
 </g>
 <g>
  <path style="opacity:0.004" fill="#eef1f1" d="M 567.5,194.5 C 568.833,195.167 568.833,195.167 567.5,194.5 Z"/>
 </g>
 <g>
  <path style="opacity:0.008" fill="#eef1f1" d="M 569.5,194.5 C 570.833,195.167 570.833,195.167 569.5,194.5 Z"/>
 </g>
 <g>
  <path style="opacity:0.004" fill="#edeeef" d="M 441.5,196.5 C 442.833,197.167 442.833,197.167 441.5,196.5 Z"/>
 </g>
 <g>
  <path style="opacity:0.004" fill="#eeefef" d="M 443.5,197.5 C 443.897,196.475 444.563,196.308 445.5,197C 444.906,197.464 444.239,197.631 443.5,197.5 Z"/>
 </g>
 <g>
  <path style="opacity:0.008" fill="#ebefee" d="M 428.5,199.5 C 429.833,200.167 429.833,200.167 428.5,199.5 Z"/>
 </g>
 <g>
  <path style="opacity:0.008" fill="#eceeef" d="M 592.5,199.5 C 593.833,200.167 593.833,200.167 592.5,199.5 Z"/>
 </g>
 <g>
  <path style="opacity:0.008" fill="#edf1f0" d="M 428.5,200.5 C 428.5,200.833 428.5,201.167 428.5,201.5C 427.83,201.019 427.83,200.685 428.5,200.5 Z"/>
 </g>
 <g>
  <path style="opacity:0.008" fill="#eaf0ef" d="M 597.5,200.5 C 598.833,201.167 598.833,201.167 597.5,200.5 Z"/>
 </g>
 <g>
  <path style="opacity:0.004" fill="#ecefef" d="M 421.5,201.5 C 422.833,202.167 422.833,202.167 421.5,201.5 Z"/>
 </g>
 <g>
  <path style="opacity:0.004" fill="#eceff0" d="M 601.5,201.5 C 602.833,202.167 602.833,202.167 601.5,201.5 Z"/>
 </g>
 <g>
  <path style="opacity:0.008" fill="#eaefee" d="M 417.5,202.5 C 418.833,203.167 418.833,203.167 417.5,202.5 Z"/>
 </g>
 <g>
  <path style="opacity:0.008" fill="#eceeee" d="M 607.5,203.5 C 608.833,204.167 608.833,204.167 607.5,203.5 Z"/>
 </g>
 <g>
  <path style="opacity:0.004" fill="#edefee" d="M 411.5,204.5 C 412.833,205.167 412.833,205.167 411.5,204.5 Z"/>
 </g>
 <g>
  <path style="opacity:0.008" fill="#ebedee" d="M 621.5,208.5 C 622.833,209.167 622.833,209.167 621.5,208.5 Z"/>
 </g>
 <g>
  <path style="opacity:0.008" fill="#ecf1ef" d="M 396.5,209.5 C 397.833,210.167 397.833,210.167 396.5,209.5 Z"/>
 </g>
 <g>
  <path style="opacity:0.008" fill="#eceeee" d="M 391.5,210.5 C 392.833,211.167 392.833,211.167 391.5,210.5 Z"/>
 </g>
 <g>
  <path style="opacity:0.004" fill="#eef1f1" d="M 627.5,210.5 C 628.833,211.167 628.833,211.167 627.5,210.5 Z"/>
 </g>
 <g>
  <path style="opacity:0.004" fill="#edeeed" d="M 635.5,213.5 C 636.833,214.167 636.833,214.167 635.5,213.5 Z"/>
 </g>
 <g>
  <path style="opacity:0.004" fill="#e8ecec" d="M 374.5,216.5 C 375.833,217.167 375.833,217.167 374.5,216.5 Z"/>
 </g>
 <g>
  <path style="opacity:0.004" fill="#edf1f0" d="M 643.5,216.5 C 644.833,217.167 644.833,217.167 643.5,216.5 Z"/>
 </g>
 <g>
  <path style="opacity:0.008" fill="#eceeee" d="M 647.5,218.5 C 646.833,217.167 646.833,217.167 647.5,218.5 Z"/>
 </g>
 <g>
  <path style="opacity:0.008" fill="#edf0ef" d="M 647.5,218.5 C 648.833,219.167 648.833,219.167 647.5,218.5 Z"/>
 </g>
 <g>
  <path style="opacity:0.008" fill="#ebefed" d="M 369.5,220.5 C 370.833,221.167 370.833,221.167 369.5,220.5 Z"/>
 </g>
 <g>
  <path style="opacity:0.999" fill="#3a89ac" d="M 495.5,220.5 C 617.486,218.391 709.986,269.058 773,372.5C 819.449,461.869 821.449,552.203 779,643.5C 727.684,739.417 647.851,794.583 539.5,809C 414.43,814.223 318.93,764.057 253,658.5C 210.837,581.052 203.503,500.385 231,416.5C 259.783,341.049 310.283,285.216 382.5,249C 418.509,232.415 456.176,222.915 495.5,220.5 Z"/>
 </g>
 <g>
  <path style="opacity:0.004" fill="#ebeeee" d="M 651.5,220.5 C 652.833,221.167 652.833,221.167 651.5,220.5 Z"/>
 </g>
 <g>
  <path style="opacity:0.004" fill="#eaf0ee" d="M 367.5,221.5 C 368.833,222.167 368.833,222.167 367.5,221.5 Z"/>
 </g>
 <g>
  <path style="opacity:0.004" fill="#ecf0f1" d="M 658.5,223.5 C 659.833,224.167 659.833,224.167 658.5,223.5 Z"/>
 </g>
 <g>
  <path style="opacity:0.004" fill="#e5e8e8" d="M 669.5,224.5 C 670.833,225.167 670.833,225.167 669.5,224.5 Z"/>
 </g>
 <g>
  <path style="opacity:0.004" fill="#e8ebeb" d="M 358.5,225.5 C 359.833,226.167 359.833,226.167 358.5,225.5 Z"/>
 </g>
 <g>
  <path style="opacity:0.008" fill="#eef1f0" d="M 663.5,226.5 C 662.833,225.167 662.833,225.167 663.5,226.5 Z"/>
 </g>
 <g>
  <path style="opacity:0.012" fill="#eceeee" d="M 663.5,226.5 C 664.833,227.167 664.833,227.167 663.5,226.5 Z"/>
 </g>
 <g>
  <path style="opacity:0.004" fill="#eaede9" d="M 343.5,234.5 C 342.833,233.167 342.833,233.167 343.5,234.5 Z"/>
 </g>
 <g>
  <path style="opacity:0.004" fill="#edeeef" d="M 343.5,234.5 C 344.167,234.5 344.5,234.833 344.5,235.5C 344.167,235.167 343.833,234.833 343.5,234.5 Z"/>
 </g>
 <g>
  <path style="opacity:0.004" fill="#ecf0ee" d="M 679.5,234.5 C 680.833,235.167 680.833,235.167 679.5,234.5 Z"/>
 </g>
 <g>
  <path style="opacity:0.004" fill="#eaeeed" d="M 341.5,237.5 C 340.833,236.167 340.833,236.167 341.5,237.5 Z"/>
 </g>
 <g>
  <path style="opacity:0.016" fill="#eef0f1" d="M 336.5,240.5 C 335.833,239.167 335.833,239.167 336.5,240.5 Z"/>
 </g>
 <g>
  <path style="opacity:0.008" fill="#eceff0" d="M 321.5,250.5 C 320.833,249.167 320.833,249.167 321.5,250.5 Z"/>
 </g>
 <g>
  <path style="opacity:0.004" fill="#edf0f0" d="M 702.5,249.5 C 703.833,250.167 703.833,250.167 702.5,249.5 Z"/>
 </g>
 <g>
  <path style="opacity:0.004" fill="#e9eced" d="M 317.5,253.5 C 316.833,252.167 316.833,252.167 317.5,253.5 Z"/>
 </g>
 <g>
  <path style="opacity:0.004" fill="#e7eaea" d="M 305.5,256.5 C 306.833,257.167 306.833,257.167 305.5,256.5 Z"/>
 </g>
 <g>
  <path style="opacity:0.999" fill="#fefefe" d="M 488.5,256.5 C 581.259,251.444 657.759,283.777 718,353.5C 774.68,428.896 788.013,511.563 758,601.5C 725.98,682.52 668.48,736.353 585.5,763C 495.101,785.791 413.767,768.124 341.5,710C 270.002,645.526 240.835,565.359 254,469.5C 273.096,377.08 325.929,312.247 412.5,275C 437.219,265.828 462.552,259.661 488.5,256.5 Z"/>
 </g>
 <g>
  <path style="opacity:0.008" fill="#ecefef" d="M 713.5,258.5 C 714.833,259.167 714.833,259.167 713.5,258.5 Z"/>
 </g>
 <g>
  <path style="opacity:0.004" fill="#ebefef" d="M 304.5,263.5 C 303.833,262.167 303.833,262.167 304.5,263.5 Z"/>
 </g>
 <g>
  <path style="opacity:0.004" fill="#e9eeee" d="M 299.5,264.5 C 300.833,265.167 300.833,265.167 299.5,264.5 Z"/>
 </g>
 <g>
  <path style="opacity:0.008" fill="#eaeeed" d="M 287.5,274.5 C 288.833,275.167 288.833,275.167 287.5,274.5 Z"/>
 </g>
 <g>
  <path style="opacity:0.999" fill="#3a89ac" d="M 494.5,286.5 C 581.719,283.201 651.219,316.201 703,385.5C 746.969,451.973 754.969,522.64 727,597.5C 691.011,678.472 629.178,725.972 541.5,740C 448.693,748.504 374.859,715.337 320,640.5C 278.97,575.918 270.304,508.251 294,437.5C 323.11,365.723 374.61,318.223 448.5,295C 463.757,290.96 479.091,288.126 494.5,286.5 Z"/>
 </g>
 <g>
  <path style="opacity:0.004" fill="#e8ebec" d="M 266.5,295.5 C 267.833,296.167 267.833,296.167 266.5,295.5 Z"/>
 </g>
 <g>
  <path style="opacity:0.004" fill="#e8edec" d="M 269.5,296.5 C 268.833,295.167 268.833,295.167 269.5,296.5 Z"/>
 </g>
 <g>
  <path style="opacity:0.004" fill="#eaeeed" d="M 768.5,311.5 C 769.833,312.167 769.833,312.167 768.5,311.5 Z"/>
 </g>
 <g>
  <path style="opacity:0.004" fill="#e7eae9" d="M 773.5,313.5 C 774.833,314.167 774.833,314.167 773.5,313.5 Z"/>
 </g>
 <g>
  <path style="opacity:0.004" fill="#e9ebeb" d="M 777.5,323.5 C 778.833,324.167 778.833,324.167 777.5,323.5 Z"/>
 </g>
 <g>
  <path style="opacity:0.004" fill="#ebedee" d="M 243.5,325.5 C 244.833,326.167 244.833,326.167 243.5,325.5 Z"/>
 </g>
 <g>
  <path style="opacity:0.004" fill="#edf1f1" d="M 241.5,331.5 C 240.833,330.167 240.833,330.167 241.5,331.5 Z"/>
 </g>
 <g>
  <path style="opacity:0.004" fill="#eaeeee" d="M 789.5,340.5 C 790.833,341.167 790.833,341.167 789.5,340.5 Z"/>
 </g>
 <g>
  <path style="opacity:0.004" fill="#eaeeec" d="M 793.5,346.5 C 794.833,347.167 794.833,347.167 793.5,346.5 Z"/>
 </g>
 <g>
  <path style="opacity:0.004" fill="#080b09" d="M 1003.5,349.5 C 1004.83,350.167 1004.83,350.167 1003.5,349.5 Z"/>
 </g>
 <g>
  <path style="opacity:0.008" fill="#eaedee" d="M 215.5,372.5 C 216.833,373.167 216.833,373.167 215.5,372.5 Z"/>
 </g>
 <g>
  <path style="opacity:0.004" fill="#e9edec" d="M 812.5,381.5 C 813.833,382.167 813.833,382.167 812.5,381.5 Z"/>
 </g>
 <g>
  <path style="opacity:0.004" fill="#eaeeed" d="M 817.5,392.5 C 818.833,393.167 818.833,393.167 817.5,392.5 Z"/>
 </g>
 <g>
  <path style="opacity:0.004" fill="#ecefee" d="M 817.5,394.5 C 818.833,395.167 818.833,395.167 817.5,394.5 Z"/>
 </g>
 <g>
  <path style="opacity:0.004" fill="#ecefee" d="M 204.5,397.5 C 205.833,398.167 205.833,398.167 204.5,397.5 Z"/>
 </g>
 <g>
  <path style="opacity:0.004" fill="#ecefef" d="M 818.5,399.5 C 818.369,398.761 818.536,398.094 819,397.5C 819.692,398.437 819.525,399.103 818.5,399.5 Z"/>
 </g>
 <g>
  <path style="opacity:0.008" fill="#ebf1ef" d="M 819.5,400.5 C 820.833,401.167 820.833,401.167 819.5,400.5 Z"/>
 </g>
 <g>
  <path style="opacity:0.004" fill="#edeff0" d="M 821.5,407.5 C 821.369,406.761 821.536,406.094 822,405.5C 822.692,406.437 822.525,407.103 821.5,407.5 Z"/>
 </g>
 <g>
  <path style="opacity:0.004" fill="#edf0f1" d="M 200.5,407.5 C 201.833,408.167 201.833,408.167 200.5,407.5 Z"/>
 </g>
 <g>
  <path style="opacity:0.004" fill="#eef0f1" d="M 822.5,409.5 C 823.833,410.167 823.833,410.167 822.5,409.5 Z"/>
 </g>
 <g>
  <path style="opacity:0.012" fill="#eef3f2" d="M 199.5,410.5 C 200.833,411.167 200.833,411.167 199.5,410.5 Z"/>
 </g>
 <g>
  <path style="opacity:0.004" fill="#edf0f0" d="M 828.5,429.5 C 829.833,430.167 829.833,430.167 828.5,429.5 Z"/>
 </g>
 <g>
  <path style="opacity:0.004" fill="#edf1f1" d="M 191.5,434.5 C 192.833,435.167 192.833,435.167 191.5,434.5 Z"/>
 </g>
 <g>
  <path style="opacity:0.004" fill="#edf0f2" d="M 191.5,439.5 C 192.833,440.167 192.833,440.167 191.5,439.5 Z"/>
 </g>
 <g>
  <path style="opacity:0.004" fill="#ebefef" d="M 833.5,448.5 C 834.833,449.167 834.833,449.167 833.5,448.5 Z"/>
 </g>
 <g>
  <path style="opacity:0.004" fill="#eef0f0" d="M 833.5,450.5 C 834.833,451.167 834.833,451.167 833.5,450.5 Z"/>
 </g>
 <g>
  <path style="opacity:0.004" fill="#eff2f1" d="M 835.5,459.5 C 836.833,460.167 836.833,460.167 835.5,459.5 Z"/>
 </g>
 <g>
  <path style="opacity:0.004" fill="#f0f1f3" d="M 186.5,464.5 C 187.525,464.897 187.692,465.563 187,466.5C 186.536,465.906 186.369,465.239 186.5,464.5 Z"/>
 </g>
 <g>
  <path style="opacity:0.004" fill="#ecf1f0" d="M 836.5,465.5 C 837.833,466.167 837.833,466.167 836.5,465.5 Z"/>
 </g>
 <g>
  <path style="opacity:0.016" fill="#f0f3f4" d="M 185.5,471.5 C 186.525,471.897 186.692,472.563 186,473.5C 185.536,472.906 185.369,472.239 185.5,471.5 Z"/>
 </g>
 <g>
  <path style="opacity:0.004" fill="#eff1f4" d="M 184.5,475.5 C 185.833,476.167 185.833,476.167 184.5,475.5 Z"/>
 </g>
 <g>
  <path style="opacity:0.004" fill="#f1f2f4" d="M 184.5,477.5 C 185.833,478.167 185.833,478.167 184.5,477.5 Z"/>
 </g>
 <g>
  <path style="opacity:0.004" fill="#f1f1f4" d="M 184.5,482.5 C 185.833,483.167 185.833,483.167 184.5,482.5 Z"/>
 </g>
 <g>
  <path style="opacity:0.008" fill="#f1f2f4" d="M 838.5,481.5 C 839.525,481.897 839.692,482.563 839,483.5C 838.536,482.906 838.369,482.239 838.5,481.5 Z"/>
 </g>
 <g>
  <path style="opacity:0.999" fill="#fefefe" d="M 375.5,485.5 C 466.501,485.333 557.501,485.5 648.5,486C 668.042,492.929 673.875,506.095 666,525.5C 661.255,533.125 654.422,537.625 645.5,539C 556.5,539.667 467.5,539.667 378.5,539C 363.583,535.914 355.583,526.747 354.5,511.5C 355.679,498 362.679,489.333 375.5,485.5 Z"/>
 </g>
 <g>
  <path style="opacity:0.004" fill="#f1f5f5" d="M 838.5,484.5 C 839.525,484.897 839.692,485.563 839,486.5C 838.536,485.906 838.369,485.239 838.5,484.5 Z"/>
 </g>
 <g>
  <path style="opacity:0.007" fill="#eff2f3" d="M 183.5,488.5 C 184.622,490.288 184.789,492.288 184,494.5C 183.505,492.527 183.338,490.527 183.5,488.5 Z"/>
 </g>
 <g>
  <path style="opacity:0.008" fill="#f1f2f4" d="M 183.5,535.5 C 184.598,536.601 184.765,537.934 184,539.5C 183.51,538.207 183.343,536.873 183.5,535.5 Z"/>
 </g>
 <g>
  <path style="opacity:0.004" fill="#f1f3f5" d="M 838.5,537.5 C 839.833,538.167 839.833,538.167 838.5,537.5 Z"/>
 </g>
 <g>
  <path style="opacity:0.008" fill="#f0f2f4" d="M 183.5,540.5 C 184.833,541.167 184.833,541.167 183.5,540.5 Z"/>
 </g>
 <g>
  <path style="opacity:0.01" fill="#f2f4f5" d="M 838.5,540.5 C 839.573,541.251 839.74,542.251 839,543.5C 838.517,542.552 838.351,541.552 838.5,540.5 Z"/>
 </g>
 <g>
  <path style="opacity:0.004" fill="#f0f1f5" d="M 184.5,547.5 C 185.525,547.897 185.692,548.563 185,549.5C 184.536,548.906 184.369,548.239 184.5,547.5 Z"/>
 </g>
 <g>
  <path style="opacity:0.004" fill="#f1f3f4" d="M 185.5,553.5 C 186.613,554.946 186.78,556.613 186,558.5C 185.506,556.866 185.34,555.199 185.5,553.5 Z"/>
 </g>
 <g>
  <path style="opacity:0.004" fill="#eff3f1" d="M 836.5,557.5 C 837.833,558.167 837.833,558.167 836.5,557.5 Z"/>
 </g>
 <g>
  <path style="opacity:0.004" fill="#eef1f1" d="M 185.5,560.5 C 186.833,561.167 186.833,561.167 185.5,560.5 Z"/>
 </g>
 <g>
  <path style="opacity:0.008" fill="#eff1ef" d="M 186.5,563.5 C 185.833,562.167 185.833,562.167 186.5,563.5 Z"/>
 </g>
 <g>
  <path style="opacity:0.004" fill="#eff2f1" d="M 186.5,563.5 C 187.833,564.167 187.833,564.167 186.5,563.5 Z"/>
 </g>
 <g>
  <path style="opacity:0.008" fill="#ecf2f2" d="M 186.5,565.5 C 187.833,566.167 187.833,566.167 186.5,565.5 Z"/>
 </g>
 <g>
  <path style="opacity:0.008" fill="#f2f3f4" d="M 835.5,564.5 C 836.525,564.897 836.692,565.563 836,566.5C 835.536,565.906 835.369,565.239 835.5,564.5 Z"/>
 </g>
 <g>
  <path style="opacity:0.008" fill="#f0f4f1" d="M 834.5,570.5 C 835.833,571.167 835.833,571.167 834.5,570.5 Z"/>
 </g>
 <g>
  <path style="opacity:0.008" fill="#eff1f3" d="M 187.5,571.5 C 188.833,572.167 188.833,572.167 187.5,571.5 Z"/>
 </g>
 <g>
  <path style="opacity:0.004" fill="#eff2f2" d="M 191.5,588.5 C 192.525,588.897 192.692,589.563 192,590.5C 191.536,589.906 191.369,589.239 191.5,588.5 Z"/>
 </g>
 <g>
  <path style="opacity:0.004" fill="#eff1f1" d="M 830.5,588.5 C 831.833,589.167 831.833,589.167 830.5,588.5 Z"/>
 </g>
 <g>
  <path style="opacity:0.008" fill="#eef0f2" d="M 830.5,590.5 C 831.833,591.167 831.833,591.167 830.5,590.5 Z"/>
 </g>
 <g>
  <path style="opacity:0.004" fill="#f0f2f2" d="M 193.5,591.5 C 193.631,592.239 193.464,592.906 193,593.5C 192.308,592.563 192.475,591.897 193.5,591.5 Z"/>
 </g>
 <g>
  <path style="opacity:0.004" fill="#eff4f0" d="M 828.5,597.5 C 829.833,598.167 829.833,598.167 828.5,597.5 Z"/>
 </g>
 <g>
  <path style="opacity:0.004" fill="#eeefef" d="M 824.5,612.5 C 825.833,613.167 825.833,613.167 824.5,612.5 Z"/>
 </g>
 <g>
  <path style="opacity:0.004" fill="#ebf0f0" d="M 822.5,617.5 C 823.833,618.167 823.833,618.167 822.5,617.5 Z"/>
 </g>
 <g>
  <path style="opacity:0.004" fill="#eef0f2" d="M 202.5,620.5 C 202.631,621.239 202.464,621.906 202,622.5C 201.308,621.563 201.475,620.897 202.5,620.5 Z"/>
 </g>
 <g>
  <path style="opacity:0.004" fill="#131414" d="M 1019.5,621.5 C 1020.83,622.167 1020.83,622.167 1019.5,621.5 Z"/>
 </g>
 <g>
  <path style="opacity:0.004" fill="#eef0f0" d="M 819.5,624.5 C 820.833,625.167 820.833,625.167 819.5,624.5 Z"/>
 </g>
 <g>
  <path style="opacity:0.008" fill="#edf1f1" d="M 208.5,636.5 C 208.631,637.239 208.464,637.906 208,638.5C 207.308,637.563 207.475,636.897 208.5,636.5 Z"/>
 </g>
 <g>
  <path style="opacity:0.008" fill="#eff2f0" d="M 814.5,638.5 C 815.833,639.167 815.833,639.167 814.5,638.5 Z"/>
 </g>
 <g>
  <path style="opacity:0.004" fill="#eeeff1" d="M 813.5,640.5 C 814.833,641.167 814.833,641.167 813.5,640.5 Z"/>
 </g>
 <g>
  <path style="opacity:0.008" fill="#eff1f3" d="M 210.5,643.5 C 209.833,642.167 209.833,642.167 210.5,643.5 Z"/>
 </g>
 <g>
  <path style="opacity:0.004" fill="#f0f2f3" d="M 210.5,643.5 C 210.833,643.5 211.167,643.5 211.5,643.5C 211.167,646.167 210.833,646.167 210.5,643.5 Z"/>
 </g>
 <g>
  <path style="opacity:0.004" fill="#eff3f2" d="M 811.5,645.5 C 812.833,646.167 812.833,646.167 811.5,645.5 Z"/>
 </g>
 <g>
  <path style="opacity:0.016" fill="#ecf0f0" d="M 806.5,656.5 C 807.833,657.167 807.833,657.167 806.5,656.5 Z"/>
 </g>
 <g>
  <path style="opacity:0.012" fill="#eef0f0" d="M 218.5,658.5 C 218.631,659.239 218.464,659.906 218,660.5C 217.308,659.563 217.475,658.897 218.5,658.5 Z"/>
 </g>
 <g>
  <path style="opacity:0.004" fill="#eeeff1" d="M 803.5,662.5 C 804.833,663.167 804.833,663.167 803.5,662.5 Z"/>
 </g>
 <g>
  <path style="opacity:0.012" fill="#ebefed" d="M 225.5,674.5 C 226.833,675.167 226.833,675.167 225.5,674.5 Z"/>
 </g>
 <g>
  <path style="opacity:0.004" fill="#eceeef" d="M 228.5,676.5 C 228.631,677.239 228.464,677.906 228,678.5C 227.308,677.563 227.475,676.897 228.5,676.5 Z"/>
 </g>
 <g>
  <path style="opacity:0.006" fill="#ecf1f1" d="M 232.5,683.5 C 232.631,684.239 232.464,684.906 232,685.5C 231.308,684.563 231.475,683.897 232.5,683.5 Z"/>
 </g>
 <g>
  <path style="opacity:0.004" fill="#ebf0ef" d="M 236.5,689.5 C 235.833,690.167 235.833,690.167 236.5,689.5 Z"/>
 </g>
 <g>
  <path style="opacity:0.008" fill="#ecf0ee" d="M 242.5,698.5 C 241.833,699.167 241.833,699.167 242.5,698.5 Z"/>
 </g>
 <g>
  <path style="opacity:0.008" fill="#eaeced" d="M 245.5,702.5 C 244.833,703.167 244.833,703.167 245.5,702.5 Z"/>
 </g>
 <g>
  <path style="opacity:0.004" fill="#eaeeef" d="M 247.5,707.5 C 248.833,708.167 248.833,708.167 247.5,707.5 Z"/>
 </g>
 <g>
  <path style="opacity:0.008" fill="#ebeded" d="M 757.5,728.5 C 758.833,729.167 758.833,729.167 757.5,728.5 Z"/>
 </g>
 <g>
  <path style="opacity:0.004" fill="#e9eded" d="M 269.5,732.5 C 268.833,733.167 268.833,733.167 269.5,732.5 Z"/>
 </g>
 <g>
  <path style="opacity:0.004" fill="#ebeded" d="M 753.5,733.5 C 754.833,734.167 754.833,734.167 753.5,733.5 Z"/>
 </g>
 <g>
  <path style="opacity:0.008" fill="#eaeded" d="M 752.5,734.5 C 752.833,734.5 753.167,734.5 753.5,734.5C 753.315,735.17 752.981,735.17 752.5,734.5 Z"/>
 </g>
 <g>
  <path style="opacity:0.004" fill="#e9edec" d="M 276.5,739.5 C 275.833,740.167 275.833,740.167 276.5,739.5 Z"/>
 </g>
 <g>
  <path style="opacity:0.004" fill="#e2e7e6" d="M 271.5,741.5 C 272.833,742.167 272.833,742.167 271.5,741.5 Z"/>
 </g>
 <g>
  <path style="opacity:0.004" fill="#edefee" d="M 744.5,742.5 C 745.833,743.167 745.833,743.167 744.5,742.5 Z"/>
 </g>
 <g>
  <path style="opacity:0.008" fill="#e9edec" d="M 281.5,746.5 C 282.833,747.167 282.833,747.167 281.5,746.5 Z"/>
 </g>
 <g>
  <path style="opacity:0.004" fill="#edf0f0" d="M 739.5,747.5 C 740.833,748.167 740.833,748.167 739.5,747.5 Z"/>
 </g>
 <g>
  <path style="opacity:0.012" fill="#e9edec" d="M 283.5,748.5 C 284.833,749.167 284.833,749.167 283.5,748.5 Z"/>
 </g>
 <g>
  <path style="opacity:0.008" fill="#eaeeee" d="M 739.5,749.5 C 740.833,750.167 740.833,750.167 739.5,749.5 Z"/>
 </g>
 <g>
  <path style="opacity:0.016" fill="#ebeded" d="M 736.5,750.5 C 737.833,751.167 737.833,751.167 736.5,750.5 Z"/>
 </g>
 <g>
  <path style="opacity:0.004" fill="#e9eeec" d="M 289.5,754.5 C 290.833,755.167 290.833,755.167 289.5,754.5 Z"/>
 </g>
 <g>
  <path style="opacity:0.004" fill="#ebeeed" d="M 727.5,758.5 C 728.833,759.167 728.833,759.167 727.5,758.5 Z"/>
 </g>
 <g>
  <path style="opacity:0.004" fill="#eaeeef" d="M 299.5,761.5 C 298.833,762.167 298.833,762.167 299.5,761.5 Z"/>
 </g>
 <g>
  <path style="opacity:0.004" fill="#eaedec" d="M 723.5,762.5 C 724.833,763.167 724.833,763.167 723.5,762.5 Z"/>
 </g>
 <g>
  <path style="opacity:0.004" fill="#ebefed" d="M 715.5,768.5 C 716.833,769.167 716.833,769.167 715.5,768.5 Z"/>
 </g>
 <g>
  <path style="opacity:0.004" fill="#ebedec" d="M 311.5,772.5 C 312.833,773.167 312.833,773.167 311.5,772.5 Z"/>
 </g>
 <g>
  <path style="opacity:0.004" fill="#e9eeee" d="M 320.5,779.5 C 319.833,778.167 319.833,778.167 320.5,779.5 Z"/>
 </g>
 <g>
  <path style="opacity:0.004" fill="#eaedef" d="M 320.5,779.5 C 321.833,780.167 321.833,780.167 320.5,779.5 Z"/>
 </g>
 <g>
  <path style="opacity:0.004" fill="#ecefee" d="M 694.5,784.5 C 695.833,785.167 695.833,785.167 694.5,784.5 Z"/>
 </g>
 <g>
  <path style="opacity:0.004" fill="#ebefee" d="M 691.5,786.5 C 692.833,787.167 692.833,787.167 691.5,786.5 Z"/>
 </g>
 <g>
  <path style="opacity:0.004" fill="#e9eeee" d="M 332.5,787.5 C 333.833,788.167 333.833,788.167 332.5,787.5 Z"/>
 </g>
 <g>
  <path style="opacity:0.008" fill="#ebeded" d="M 688.5,788.5 C 689.833,789.167 689.833,789.167 688.5,788.5 Z"/>
 </g>
 <g>
  <path style="opacity:0.008" fill="#eaeeef" d="M 688.5,789.5 C 687.833,790.167 687.833,790.167 688.5,789.5 Z"/>
 </g>
 <g>
  <path style="opacity:0.004" fill="#eaeeef" d="M 348.5,796.5 C 347.833,797.167 347.833,797.167 348.5,796.5 Z"/>
 </g>
 <g>
  <path style="opacity:0.004" fill="#edefef" d="M 675.5,796.5 C 676.239,796.369 676.906,796.536 677.5,797C 676.563,797.692 675.897,797.525 675.5,796.5 Z"/>
 </g>
 <g>
  <path style="opacity:0.004" fill="#eaeded" d="M 361.5,804.5 C 362.833,805.167 362.833,805.167 361.5,804.5 Z"/>
 </g>
 <g>
  <path style="opacity:0.004" fill="#000000" d="M 43.5,813.5 C 44.8333,814.167 44.8333,814.167 43.5,813.5 Z"/>
 </g>
 <g>
  <path style="opacity:0.004" fill="#e9edec" d="M 380.5,813.5 C 381.833,814.167 381.833,814.167 380.5,813.5 Z"/>
 </g>
 <g>
  <path style="opacity:0.004" fill="#eaefef" d="M 639.5,814.5 C 640.833,815.167 640.833,815.167 639.5,814.5 Z"/>
 </g>
 <g>
  <path style="opacity:0.008" fill="#ebeeee" d="M 392.5,818.5 C 393.833,819.167 393.833,819.167 392.5,818.5 Z"/>
 </g>
 <g>
  <path style="opacity:0.016" fill="#e9ecec" d="M 399.5,821.5 C 400.833,822.167 400.833,822.167 399.5,821.5 Z"/>
 </g>
 <g>
  <path style="opacity:0.004" fill="#ecf0f0" d="M 604.5,827.5 C 605.833,828.167 605.833,828.167 604.5,827.5 Z"/>
 </g>
 <g>
  <path style="opacity:0.008" fill="#ebefef" d="M 600.5,828.5 C 601.833,829.167 601.833,829.167 600.5,828.5 Z"/>
 </g>
 <g>
  <path style="opacity:0.004" fill="#ecf0f0" d="M 426.5,829.5 C 427.833,830.167 427.833,830.167 426.5,829.5 Z"/>
 </g>
 <g>
  <path style="opacity:0.004" fill="#eaefee" d="M 443.5,833.5 C 444.833,834.167 444.833,834.167 443.5,833.5 Z"/>
 </g>
 <g>
  <path style="opacity:0.004" fill="#ecf0ef" d="M 452.5,835.5 C 453.833,836.167 453.833,836.167 452.5,835.5 Z"/>
 </g>
 <g>
  <path style="opacity:0.008" fill="#eef1ef" d="M 569.5,835.5 C 570.833,836.167 570.833,836.167 569.5,835.5 Z"/>
 </g>
 <g>
  <path style="opacity:0.004" fill="#ebefee" d="M 457.5,836.5 C 458.833,837.167 458.833,837.167 457.5,836.5 Z"/>
 </g>
 <g>
  <path style="opacity:0.004" fill="#ecf0ef" d="M 463.5,838.5 C 463.897,837.475 464.563,837.308 465.5,838C 464.906,838.464 464.239,838.631 463.5,838.5 Z"/>
 </g>
 <g>
  <path style="opacity:0.005" fill="#ecefee" d="M 466.5,838.5 C 467.251,837.427 468.251,837.26 469.5,838C 468.552,838.483 467.552,838.649 466.5,838.5 Z"/>
 </g>
 <g>
  <path style="opacity:0.004" fill="#eceef0" d="M 474.5,838.5 C 475.833,839.167 475.833,839.167 474.5,838.5 Z"/>
 </g>
 <g>
  <path style="opacity:0.004" fill="#eceef0" d="M 544.5,838.5 C 545.833,839.167 545.833,839.167 544.5,838.5 Z"/>
 </g>
 <g>
  <path style="opacity:0.014" fill="#eeeff0" d="M 547.5,839.5 C 547.897,838.475 548.563,838.308 549.5,839C 548.906,839.464 548.239,839.631 547.5,839.5 Z"/>
 </g>
 <g>
  <path style="opacity:0.004" fill="#000000" d="M 43.5,877.5 C 44.8333,878.167 44.8333,878.167 43.5,877.5 Z"/>
 </g>
 <g>
  <path style="opacity:0.004" fill="#000000" d="M 95.5,922.5 C 96.8333,923.167 96.8333,923.167 95.5,922.5 Z"/>
 </g>
 <g>
  <path style="opacity:0.004" fill="#000300" d="M 187.5,925.5 C 188.833,926.167 188.833,926.167 187.5,925.5 Z"/>
 </g>
 <g>
  <path style="opacity:0.004" fill="#000000" d="M 851.5,925.5 C 852.833,926.167 852.833,926.167 851.5,925.5 Z"/>
 </g>
 <g>
  <path style="opacity:0.004" fill="#161715" d="M 307.5,933.5 C 308.833,934.167 308.833,934.167 307.5,933.5 Z"/>
 </g>
 <g>
  <path style="opacity:0.004" fill="#000000" d="M 842.5,964.5 C 843.833,965.167 843.833,965.167 842.5,964.5 Z"/>
 </g>
</svg>
